<svg xmlns="http://www.w3.org/2000/svg" width="28" height="27.914" viewBox="0 0 28 27.914">
  <g>
    <path fill="rgb(255,255,255)" fill-rule="evenodd" d="M27.65557376 13.37533679L14.62471756.34448059C14.28023698 0 13.71976304 0 13.37528244.3444806L.34442624 13.3753368C0 13.71976303 0 14.28029132.34442624 14.62471757l7.7582595 7.7582595c.15925026.1591959.41731178.1591959.57650768 0 .1591959-.1591959.1591959-.41731177 0-.57645332l-7.7582595-7.7582595c-.02657795-.02657795-.02657795-.06984184 0-.09641979L13.9517901.92098826c.0265236-.02657794.06984184-.02657794.09636543 0l13.0308562 13.0308562c.02657794.02657795.02657794.06984184 0 .09641978l-13.03080185 13.0308562c-.0265236.02657794-.06984184.02657794-.09636543 0l-3.95478721-3.95473287c-.1591959-.15914155-.41725742-.1591959-.57650768 0-.1591959.15919591-.1591959.41731177 0 .57645333l3.95478722 3.95473286c.1722403.1722403.3985061.25833327.62471756.25833327.22621146 0 .45247727-.08609297.62471757-.25833327l13.0308562-13.0308562C28 14.28029133 28 13.71981739 27.65557375 13.3753368z"/>
    <path fill="rgb(255,255,255)" fill-rule="evenodd" d="M14.5576477 24.99103928c-.14897918.14897537-.34703445.23099517-.5576477.23099517-.21061325 0-.40867043-.0820198-.5576477-.23099517L3.00895976 14.5577011c-.14892292-.14892197-.23093986-.34698105-.23093986-.5576477 0-.21066666.08201694-.40872384.23093986-.5576477L13.44235229 3.00906848c.14897728-.14897728.34703446-.23099423.55764771-.23099423.21061325 0 .40866852.08201695.5576477.23099423L24.99104024 13.4424057c.14892197.14892387.23094177.34698105.23094177.5576477 0 .21066666-.0820198.40872574-.23094177.55764771L14.55764771 24.99103928zm9.8380251-10.99098587L14 3.6043825 3.60432816 14.00005341 14 24.39572525l10.3956728-10.39567184z"/>
    <path fill="rgb(255,255,255)" fill-rule="evenodd" d="M14 17.34354885c.76374902 0 1.40221755-.59688953 1.45379724-1.36183429l.22208073-3.69232322c.01353356-.22474397-.15767406-.41785529-.38241802-.43138884-.22490702-.01391402-.41785529.15767406-.43138884.38241803l-.22191768 3.68933388c-.02261028.33556692-.30382558.59846573-.64015343.59846573-.33632785 0-.61754315-.26284445-.63999037-.5954764l-.43720447-7.27029062c-.02038185-.3015428.08207096-.5891716.28844407-.81000225.20642747-.22083065.48650139-.34241523.78880512-.34241523.30230373 0 .58237765.12158458.78880512.34241523.20637312.22083065.30882593.50845944.28828101.8129916l-.1019093 1.6923465c-.01353355.22468962.15761972.4178553.38236368.43138885.22713544.01385966.41785529-.15767407.4314432-.38241803l.10174623-1.68935718c.0351655-.52155818-.1493039-1.03974656-.50628537-1.42162107-.35698147-.38192886-.86158195-.6009659-1.38439022-.6009659s-1.0273544.21903704-1.38439021.6009659c-.35698147.3818745-.54150523.90006289-.50644843 1.41863173l.43720446 7.27029063c.05130793.76195542.68977646 1.35884495 1.45352548 1.35884495z"/>
    <path fill="rgb(255,255,255)" fill-rule="evenodd" d="M14 18.18713951c.85968018 0 1.5590763.69939613 1.5590763 1.55907631S14.85968019 21.30529022 14 21.30529022c-.85968018 0-1.5590763-.69939422-1.5590763-1.5590744 0-.85968018.69939612-1.5590763 1.5590763-1.5590763zm0 .8152752c-.41013718 0-.74380112.33366393-.74380112.74380111 0 .41013908.33366394.74380302.74380112.74380302.41013908 0 .74380302-.33366394.74380302-.74380302 0-.41013718-.33366394-.74380112-.74380302-.74380112z"/>
  </g>
</svg>
