<svg xmlns="http://www.w3.org/2000/svg" width="14.063" height="20" viewBox="0 0 14.063 20">
  <g>
    <path fill="rgb(119,119,119)" fill-rule="evenodd" d="M10.15625.78125h2.734375c.6461792 0 1.171875.52570343 1.171875 1.171875v16.875C14.0625 19.47429657 13.5368042 20 12.890625 20H1.171875C.5256958 20 0 19.47429657 0 18.828125v-16.875C0 1.30695343.5256958.78125 1.171875.78125H3.90625V.390625C3.90625.17488098 4.08117676 0 4.296875 0h5.46875c.21569824 0 .390625.17488098.390625.390625V.78125zm2.734375 18.4375c.21539307 0 .390625-.17523193.390625-.390625v-16.875c0-.21538925-.17523193-.390625-.390625-.390625H10.15625v.390625c0 .21574402-.17492676.390625-.390625.390625h-5.46875c-.21569824 0-.390625-.17488098-.390625-.390625V1.5625H1.171875c-.21539307 0-.390625.17523575-.390625.390625v16.875c0 .21539307.17523193.390625.390625.390625h11.71875z"/>
    <path fill="rgb(119,119,119)" fill-rule="evenodd" d="M2.6484135 9.26229508c0 .16697025.13821139.30358227.30713641.30358227h8.1759711c.16892502 0 .3071364-.13661202.3071364-.30358227s-.13821138-.30358227-.3071364-.30358227H2.9555499c-.16892502 0-.3071364.13661202-.3071364.30358227z"/>
    <path fill="rgb(119,119,119)" fill-rule="evenodd" d="M2.6484135 7.41469338c0 .16697025.13821139.30358227.30713641.30358227h8.1759711c.16892502 0 .3071364-.13661202.3071364-.30358227s-.13821138-.30358227-.3071364-.30358227H2.9555499c-.16892502 0-.3071364.13661202-.3071364.30358227z"/>
    <path fill="rgb(119,119,119)" fill-rule="evenodd" d="M2.95554991 5.79234973h5.34110208c.16892502 0 .30406504-.13661203.30406504-.30358227 0-.16697025-.13821138-.30358227-.3071364-.30358227H2.9555499c-.16892502 0-.3071364.13661202-.3071364.30358227 0 .16697024.13821138.30358227.3071364.30358227z"/>
    <path fill="rgb(119,119,119)" fill-rule="evenodd" d="M2.95554991 11.4177292h8.1759711c.16892502 0 .3071364-.13661202.3071364-.30358227s-.13821138-.30358227-.3071364-.30358227H2.9555499c-.16892502 0-.3071364.13661202-.3071364.30358227s.13821138.30358227.3071364.30358227z"/>
    <path fill="rgb(119,119,119)" fill-rule="evenodd" d="M8.29665199 13.26958106c.16892502 0 .30406504-.13661203.30406504-.30358227 0-.16697025-.13821138-.30358228-.3071364-.30358228H2.9555499c-.16892502 0-.3071364.13661203-.3071364.30358228 0 .16697024.13821138.30358227.3071364.30358227h5.34110208z"/>
    <path fill="rgb(119,119,119)" fill-rule="evenodd" d="M10.92881098 13.65816636l-2.58608853 2.2586521-.74634147-.98664238c-.101355-.1335762-.29485094-.1608986-.42999096-.06071646-.13514002.10018215-.1627823.29143898-.06142728.42501518l.94598012 1.25075896c.0522132.06982392.1289973.11232544.21499549.1214329.00921409.00303583.02149955.00303583.03071364.00303583.07371273 0 .1443541-.0273224.20271002-.0789314l2.83486902-2.47723132c.12899729-.10928962.14128275-.30358227.02764228-.428051-.1105691-.12750456-.3071364-.13964785-.43306233-.0273224z"/>
  </g>
</svg>
