<svg xmlns="http://www.w3.org/2000/svg" width="20" height="21.961" viewBox="0 0 20 21.961">
  <g>
    <path fill="rgb(218,94,94)" fill-rule="evenodd" d="M18.91702443 9.72003878c-.27600001 0-.50000002-.21387895-.50000002-.47740838 0-2.80525162-1.14400006-5.44341032-3.22200016-7.42656472-.195-.18618926-.195-.48886618 0-.67505544.19500001-.18618927.51200003-.18618927.70700004 0 2.2670001 2.16361476 3.51500017 5.04047765 3.51500017 8.10162016 0 .26352943-.22400002.47740838-.50000003.47740838z"/>
    <path fill="rgb(218,94,94)" fill-rule="evenodd" d="M.50000002 9.72003878C.22400002 9.72003878 0 9.50615983 0 9.2426304 0 6.1814879 1.24800006 3.304625 3.51500017 1.14101024c.195-.18618927.51200002-.18618927.70700003 0 .19500001.18618926.19500001.48886618 0 .67505544-2.0780001 1.9831544-3.22200015 4.6213131-3.22200015 7.42656472 0 .26352943-.22400001.47740838-.50000003.47740838z"/>
    <path fill="rgb(218,94,94)" fill-rule="evenodd" d="M11.50001277 3.99113404c-.27600001 0-.50000002-.21387896-.50000002-.47740838L10.0000127 4.77408377c0-.52610403.55100003-.95481675 0-.95481675s0-.52610403 0 0l-1.00000005-.30554136c0 .26352942-.224.47740838-.50000002.47740838s-.50000003-.21292414-.50000003-.47740838V1.9096335C8.0000126.85647063 8.89701265 0 10.0000127 0s2.0000001.85647063 2.0000001 1.90963351v1.60409215c0 .26448424-.22400002.47740838-.50000003.47740838z"/>
    <path fill="rgb(218,94,94)" fill-rule="evenodd" d="M10.0000127 21.9608106c-1.9300001 0-3.50000017-1.4990623-3.50000017-3.34185865 0-.26352942.22400001-.47740837.50000003-.47740837.276 0 .50000002.21387895.50000002.47740837 0 1.3157375 1.12200005-.47740837 2.50000012-.47740837 1.37800006 0 2.50000012 1.79314586 2.50000012.47740837 0-.26352942.224-.47740837.50000002-.47740837s.50000003.21387895.50000003.47740837c0 1.84279634-1.57000008 3.34185865-3.50000017 3.34185865z"/>
    <path fill="rgb(218,94,94)" fill-rule="evenodd" d="M1.5000118 19.09634182c-.82699967 0-1.5-.64260864-1.5-1.43222046 0-.41918945.19099998-.81542969.52499961-1.08850098 1.57600212-1.27182006 2.47500038-3.12225341 2.47500038-5.08154296V8.5933511c0-3.6855774 3.1399994-6.68371582 7-6.68371582 3.86000061 0 7 2.99813842 7 6.68371582v2.90072632c0 1.9602356.89900208 3.8097229 2.46700287 5.07485962.34199524.27975463.53299713.67599487.53299713 1.09518432 0 .78961182-.67199707 1.43222046-1.5 1.43222046h-17z"/>
  </g>
</svg>
