<svg xmlns="http://www.w3.org/2000/svg" width="20" height="20" viewBox="0 0 20 20">
  <g>
    <path fill="rgb(151,0,82)" fill-rule="evenodd" d="M18.39516043 13.12770833c-1.22447598 0-2.42676451-.19151041-3.56608446-.56802083-.5582798-.19041667-1.2445801-.01572917-1.58530838.33421875l-2.24879622 1.69760417C8.3870094 13.199375 6.78055526 11.5934375 5.40743383 9.00505208L7.0550858 6.81484375c.4280718-.4275.58161307-1.05197917.39765522-1.63791667-.37812402-1.1453125-.57020685-2.34703125-.57020685-3.57203125C6.88258624.71994792 6.1626402 0 5.27774667 0h-3.6729071C.71994604 0 0 .71994792 0 1.60484375 0 11.74807292 8.25195768 20 18.39516043 20 19.28005396 20 20 19.28005208 20 18.39515625V14.7325c-.00005208-.88484375-.71999813-1.60479167-1.60483957-1.60479167z"/>
    <path fill="rgb(151,0,82)" fill-rule="evenodd" d="M10.4726523 10.03002115c.11653702.00026334.22836312-.0444647.31066227-.12425824l7.7514761-7.49691417-.02352589 2.65784304c-.00200821.23432995.19262438.42594988.43492718.42819508h.00361937c.24093163.00032647.43688747-.18761535.43854655-.42061124l.03317752-3.6460753c.00112698-.11318722-.0445789-.22211369-.1269448-.30253542-.0823659-.08042173-.19455665-.1256649-.31160174-.12565965h-.0042226l-3.7701732.03208546c-.24220256.00096656-.43773632.1916313-.43673686.4258616.00099946.2342303.19815366.42332792.44035623.42236136h.0042226l2.64877288-.02216814-7.70261465 7.44732754C10.03738997 9.4269187 10 9.6092692 10.06781027 9.7677287c.06781028.1584595.22751227.26192858.40484203.26229245z"/>
  </g>
</svg>
