<svg xmlns="http://www.w3.org/2000/svg" width="22.673" height="19.999" viewBox="0 0 22.673 19.999">
  <g>
    <path fill="rgb(119,119,119)" fill-rule="evenodd" d="M4.10094538 3.94575266h14.47142116c.25185137 0 .45603218.20200387.45603218.45117006 0 .24916618-.2041808.45117006-.45603218.45117006H4.10094538c-.25185137 0-.45603218-.20200388-.45603218-.45117006 0-.24916619.2041808-.45117006.45603218-.45117006z"/>
    <path fill="rgb(119,119,119)" fill-rule="evenodd" d="M4.10094538 7.39467706h14.47142116c.25185137 0 .45603218.20200388.45603218.45117006 0 .24916619-.2041808.45117006-.45603218.45117006H4.10094538c-.25185137 0-.45603218-.20200387-.45603218-.45117006 0-.24916618.2041808-.45117006.45603218-.45117006z"/>
    <path fill="rgb(119,119,119)" fill-rule="evenodd" d="M4.10094538 10.84360147h14.47142116c.25185137 0 .45603218.20200387.45603218.45117006 0 .24916618-.2041808.45117005-.45603218.45117005H4.10094538c-.25185137 0-.45603218-.20200387-.45603218-.45117005 0-.24916619.2041808-.45117006.45603218-.45117006z"/>
    <path fill="rgb(119,119,119)" fill-rule="evenodd" d="M20.02090454 0H2.6524048C1.18981934 0 0 1.17713165 0 2.62406158V13.4291687c0 1.27639008.93808937 2.35203552 2.1678543 2.57931519v3.17832946c0 .33921814.23564912.67074585.55955506.7820282.08749008.03009033.12107468.03009033.2083664.03009033h.00092697c.16389084 0 .34270477-.13249206.49695206-.25498962.0450058-.03575134.08325958-.05847168.12413406-.08607483.02136612-.01443481.05023575-.02946472.06659698-.04995727l3.89096451-3.39556885c.0807457-.10112.20168686-.15904236.33187103-.15904236h12.17368317c1.46258926 0 2.65240479-1.17720032 2.65240479-2.62413025V2.62412262C22.67330933 1.17713165 21.48343277 0 20.02090454 0zM2.62978363 15.15023804C1.68263626 15.13832092.9120636 14.36621857.9120636 13.4291687V2.62406921c0-.9493866.78072739-1.7217865 1.74034119-1.7217865h17.36849975c.95967865 0 1.74034119.7723999 1.74034119 1.7217865v10.80503846c0 .9493866-.78072357 1.7217865-1.74034119 1.7217865H7.84721756c-.41103745 0-.79288864.18299865-1.04759598.50212097l-3.71964264 2.90216064v-2.95376587c0-.24694824-.20065307-.44798279-.45019531-.45117187z"/>
  </g>
</svg>
