<svg xmlns="http://www.w3.org/2000/svg" width="11.781" height="15.963" viewBox="0 0 11.781 15.963">
  <path fill="rgb(239,172,0)" fill-rule="evenodd" d="M5.28868866 3.35333252C6.38959122 1.5065918 8.27810669.22918702 10.83733368.00366211c1.00748444-.08850098 1.34606552 1.4621582.32980728 1.5512085-1.9912262.17547607-3.52103424.99768066-4.45806503 2.5125122.46219253.37341309.87870788.74914551 1.00361252 1.1739502.84128952.78088379 1.51716232 1.60620117 1.73083877 2.79248047.07122421.39587402-.10193634.89038086-.5538063.97528076-1.05780793.1984253-2.11483765.3963623-3.17187119.5947876-.13986969.02661132-.26683807.01654052-.38193512-.01623536-.0092926.02966309-.02038574.0588379-.02916336.08874512.69084168 1.54815674 1.3920021 3.09112549 2.14683914 4.60986328.56619263 1.14141846-1.1437416 2.14575196-1.71199798 1.00048828-.73316193-1.4753418-1.41600037-2.97442627-2.08800125-4.47845459-.67716217 1.47998047-1.27638626 3.0748291-1.77238846 4.54992676-.40774155 1.2111206-2.22812653.42449951-1.82270813-.78112793.66322708-1.97161865 1.51071167-4.15875244 2.48258209-5.99694824.5359993-1.47814941 2.00980377-4.30194092 2.747612-5.22680664zM7.6378479 7.63616943c-.16799927-.33135986-.39045334-.6175537-.65187073-.88952636-.32774353.36956787-.62477493.76177978-.8828392 1.17730713.51148224-.0960083 1.0232277-.19177247 1.53470993-.28778077z"/>
</svg>
