<svg xmlns="http://www.w3.org/2000/svg" xmlns:xlink="http://www.w3.org/1999/xlink" width="12.941" height="12.941" viewBox="0 0 12.941 12.941">
  <defs>
    <path id="path-1" fill-rule="evenodd" d="M7.133422 6.4704923l5.19977343-5.19979687c.18307032-.18307031.18307032-.47988281 0-.66292968-.18307031-.18304688-.47988281-.18307032-.66292968 0L6.47046887 5.80756262 1.27069543.60776575c-.18307031-.18307032-.47988281-.18307032-.66292968 0-.18304688.1830703-.18307032.4798828 0 .66292968l5.19977343 5.19977344-5.19977343 5.19979688c-.18307032.1830703-.18307032.4798828 0 .66292968.09152343.09152344.2115.13727344.33147656.13727344.11997656 0 .23992969-.04575.33147656-.13727344l5.19975-5.19977343 5.19977344 5.19977343c.09152344.09152344.2115.13727344.33147656.13727344.11997656 0 .23992969-.04575.33147656-.13727344.18307032-.18307031.18307032-.47988281 0-.66292968L7.133422 6.4704923z"/>
  </defs>
  <g>
    <use fill="rgb(147,148,149)" xlink:href="#path-1"/>
    <use fill-opacity="0" stroke="rgb(147,148,149)" stroke-linecap="butt" stroke-linejoin="miter" stroke-width=".2" xlink:href="#path-1"/>
  </g>
</svg>
