<svg xmlns="http://www.w3.org/2000/svg" width="16.968" height="15.311" viewBox="0 0 16.968 15.311">
  <g>
    <path fill="rgb(227,55,55)" fill-rule="evenodd" d="M8.4792506 1.4080902C4.78070672-1.82681427.0780693 1.01546643.00095624 4.86863407c-.01965108.98199026.26381481 1.93853022.82806237 2.82037622h3.65728655L5.136812 6.60478806c.18888889-.31478168.646-.32492203.84559259-.01110136l1.37249318 2.15674658 2.00066471-4.22352241c.17447369-.36853217.69444835-.38023002.88688305-.0228655l1.71497855 3.18496491h4.17205848c3.0905536-4.8302534-3.01741715-10.33291813-7.65023197-6.28092007z"/>
    <path fill="rgb(227,55,55)" fill-rule="evenodd" d="M11.22287827 8.42173348l-1.389692-2.58085185L7.8680459 9.98947812c-.16718323.35295711-.65892397.38361014-.86859064.05408187L5.57549816 7.8059557l-.38152242.63585965c-.0898382.1497193-.25161988.24131384-.42622612.24131384H1.61535976c.0988187.10342495-.4278499-.42218323 6.51328654 6.48299805.19385965.19289864.50724952.19293178.7011423 0C15.66412 8.36718767 15.24445528 8.78635531 15.34307516 8.6831292h-3.682538c-.18289085.00003314-.35096882-.10037622-.43765888-.26139571z"/>
  </g>
</svg>
