<svg xmlns="http://www.w3.org/2000/svg" width="8.438" height="16" viewBox="0 0 8.438 16">
  <g>
    <path fill="rgb(103,210,223)" fill-rule="evenodd" d="M7.8125 6c.3451875 0 .625-.2798125.625-.625s-.2798125-.625-.625-.625h-1.25v-.96875h1.25c.3451875 0 .625-.2798125.625-.625s-.2798125-.625-.625-.625H6.54846875C6.40690625 1.11196875 5.20590625 0 3.75 0 2.1991875 0 .9375 1.2616875.9375 2.8125v6.95703125C.331 10.4548125 0 11.3256875 0 12.25 0 14.31775 1.68225 16 3.75 16s3.75-1.68225 3.75-3.75c0-.78546875-.24046875-1.53775-.69546875-2.17546875-.20046875-.281-.59078125-.34628125-.87175-.1458125-.281.20046875-.34628125.59078125-.1458125.87175C6.089875 11.22509375 6.25 11.72634375 6.25 12.25c0 1.3785-1.1215 2.5-2.5 2.5s-2.5-1.1215-2.5-2.5c0-.6769375.266375-1.310875.7500625-1.785125.119875-.1175625.1874375-.27840625.1874375-.44628125V2.8125c0-.8615625.7009375-1.5625 1.5625-1.5625s1.5625.7009375 1.5625 1.5625v4.75c0 .3451875.2798125.625.625.625h1.875c.3451875 0 .625-.2798125.625-.625s-.2798125-.625-.625-.625h-1.25V6h1.25z"/>
    <path fill="rgb(103,210,223)" fill-rule="evenodd" d="M3.75 2.1875c-.3451875 0-.625.2798125-.625.625v8.35515625c-.37353125.21615625-.625.61975-.625 1.08234375 0 .69034375.55965625 1.25 1.25 1.25S5 12.94034375 5 12.25c0-.46259375-.25146875-.8661875-.625-1.08234375V2.8125c0-.3451875-.2798125-.625-.625-.625z"/>
  </g>
</svg>
