<svg xmlns="http://www.w3.org/2000/svg" width="88" height="88" viewBox="0 0 88 88">
  <defs>
    <linearGradient id="linearGradient-3" x1="44" x2="44" y1="21.492" y2="65.16" gradientUnits="userSpaceOnUse">
      <stop offset="0" stop-color="rgb(116,35,143)"/>
      <stop offset="1" stop-color="rgb(59,12,75)"/>
    </linearGradient>
    <linearGradient id="linearGradient-5" x1="47.898" x2="47.898" y1="21.036" y2="65.184" gradientUnits="userSpaceOnUse">
      <stop offset="0" stop-color="rgb(164,55,200)"/>
      <stop offset="1" stop-color="rgb(59,12,75)"/>
    </linearGradient>
  </defs>
  <g>
    <ellipse cx="44" cy="44" fill="rgb(109,32,135)" fill-opacity=".11" rx="44" ry="44"/>
    <g>
      <path fill="url(#linearGradient-3)" fill-rule="evenodd" d="M47.8085785 23.35211182l16.39916991 13.4197998c.1796112.14279175.28663636.35714722.29225159.5856018V58.789917C64.48503113 61.11453247 62.58299255 62.99334717 60.2371521 63H27.7628479c-2.34584045-.00665283-4.24787903-1.88546753-4.2628479-4.210083V37.35751342c.00598145-.2288208.11375427-.44317627.29411316-.5856018l16.40853882-13.41979981c2.20887756-1.80279541 5.39703369-1.80279541 7.60592651 0zm-.98301698 1.1715393c-1.64123535-1.34030151-4.01026916-1.34030151-5.65112304 0L25.3799591 37.46841431l7.31629943 8.30593872v-9.6803894c-.00636291-.193573.06884766-.38162232.20730591-.51846314.13882447-.13647461.32853699-.21026612.52424622-.20324707h7.50714111c.29449463-.0055542.58711243.04006958.86550904.13500976l1.878479.66052246c.22001648.08084107.46174622.08270264.68252563.00482178l1.87884522-.66793823c.2783966-.09420776.57139587-.1390686.86514282-.13278198h7.50750733c.42321777 0 .78656005.30264282.78656005.72207641v9.77902222l7.24745179-8.40533447-15.82141114-12.94400025zM34.2289734 47.51815796l2.83566284 3.24691772 4.16854858-3.36636352c.57739258-.46875 1.26591492-.7843628 2.00045777-.91677857V37.6211853c0-.01037597-.05612183-.00964355-.08868408-.02151489l-1.86836243-.66793823c-.11076355-.03335572-.22601318-.04708863-.34164429-.04077149h-6.7059784v10.62719727zm10.53738403-9.89697266c.0385437.00036621.07633972-.01037597.10888672-.03079223l1.88407898-.6586609c.11225891-.0333557.22938538-.04708862.34614563-.04077148h6.76135254v10.75698853l-2.81956482 3.25360107-4.3964386-3.50320434c-.54446411-.44613648-1.19181824-.7517395-1.88446045-.88894654v-8.8882141zm-19.3635559 22.4945984c-.23799134-.4024048-.3656006-.85931397-.37008668-1.3258667V39.43807982l10.80230713 12.28460694-10.43222046 8.39309692zm26.84861755-8.25961305l10.3379364 8.27331543c.2432251-.4057312.3734436-.86782837.37794495-1.33956909V39.4536438L52.25141907 51.85617066zM27.7628479 61.48092651c-.42807007-.00186157-.84942627-.10494995-1.22923279-.30078125l15.67060852-12.60205078c.00300598-.00222778.00561524-.00631714.00860596-.00854492 1.00248718-.83184814 2.4626007-.83221435 3.46543884-.00073242.00375366.002594.00674439.00518799.0104828.00778198l15.7615509 12.61172485c-.37570191.1906128-.7910614.29074097-1.21315003.29260254H27.7628479z"/>
      <path fill="url(#linearGradient-5)" fill-rule="evenodd" d="M46.7694397 40.59368896h2.25752258c.42321777 0 .76635742-.34008789.76635742-.759552 0-.4194336-.34313965-.75952148-.76635742-.75952148H46.7694397c-.42321778 0-.76635742.34008789-.76635742.75952148 0 .41946411.34313964.759552.76635742.759552z"/>
      <g>
        <path fill="rgb(90,25,112)" fill-rule="evenodd" d="M46.7694397 43.34701538h5.3465271c.42321777 0 .76635742-.34008789.76635742-.759552 0-.4194336-.34313965-.75952149-.76635742-.75952149h-5.3465271c-.42321778 0-.76635742.3400879-.76635742.75952149 0 .41946411.34313964.759552.76635742.759552z"/>
        <path fill="rgb(106,31,131)" fill-rule="evenodd" d="M52.1159668 46.1003418c.42321777 0 .76635742-.3400879.76635742-.759552 0-.4194336-.34313965-.75952149-.76635742-.75952149h-5.3465271c-.42321778 0-.76635742.3400879-.76635742.75952148 0 .41946412.34313964.759552.76635742.759552h5.3465271z"/>
      </g>
    </g>
  </g>
</svg>
