<svg xmlns="http://www.w3.org/2000/svg" xmlns:xlink="http://www.w3.org/1999/xlink" width="14.707" height="14.72" viewBox="0 0 14.707 14.72">
  <defs>
    <path id="path-1" fill-rule="evenodd" d="M10.50166732 12.04222433c.42687528.41978442 1.1111522.41694804 1.53448222-.00638199.4226208-.42262061.42545718-1.10760676.00567276-1.53377299L8.899821 7.36006805l3.1420013-3.1420013c.41978442-.42616622.41694803-1.11115237-.00567276-1.53377298-.42333003-.42333003-1.10760694-.4261664-1.53448222-.006382l-3.1420013 3.1420013-3.1420013-3.1420013c-.27441992-.27938345-.67718605-.38929327-1.0551338-.28931087-.3786568.10069162-.67364044.39567526-.773623.77433206-.10069145.37794793.00992742.78071405.28860182 1.0551338l3.14271035 3.1420013-3.1420013 3.1420013c-.2786744.27441974-.38929327.67718586-.28931088 1.0551338.10069162.37865679.39567527.67364043.77433225.77433205.37794774.0999824.78071387-.00992742 1.0551338-.28931088l3.14200111-3.1420013 3.14129225 3.1420013z"/>
  </defs>
  <g>
    <use fill="rgb(248,92,92)" xlink:href="#path-1"/>
    <use fill-opacity="0" stroke="rgb(255,255,255)" stroke-linecap="butt" stroke-linejoin="miter" stroke-width="1" xlink:href="#path-1"/>
  </g>
</svg>
