<svg xmlns="http://www.w3.org/2000/svg" xmlns:xlink="http://www.w3.org/1999/xlink" width="14.346" height="14.345" viewBox="0 0 14.346 14.345">
  <defs>
    <path id="path-1" fill-rule="evenodd" d="M9.6971231 1.20148712c.06060791-.03381348.13442994-.03378296.1949463.00015259 3.08117675 1.71853637 4.18582153 5.60952758 2.46725463 8.69070434-1.12771606 2.02194214-3.26119995 3.27542114-5.5763855 3.27636719-2.31643676-.00180054-4.45101928-1.25540161-5.58096313-3.2775879-.05419922-.09597778-.0202942-.21774291.07571411-.2718811.0609436-.0343933.1354065-.03436279.19631958.00006104 2.89163208 1.60742187 6.53878784.56637573 8.14620972-2.32525635 1.00610351-1.809906 1.00610351-4.01107788 0-5.82098389-.05374146-.09622192-.01931763-.21780395.0769043-.27157592zm-7.77502441 9.0784607c1.93450928 2.68191527 5.67684936 3.2878723 8.35879517 1.35336303 2.68191528-1.93447876 3.28787231-5.67684937 1.35336303-8.35876465-.37564087-.52081299-.83258056-.97775269-1.35336303-1.35339356 1.36016845 3.2562561-.17694092 6.99862671-3.43319703 8.35879517-1.57589721.65823364-3.34970092.65823364-4.92559814 0z"/>
  </defs>
  <g>
    <use fill="rgb(91,91,91)" xlink:href="#path-1"/>
    <use fill-opacity="0" stroke="rgb(91,91,91)" stroke-linecap="butt" stroke-linejoin="miter" stroke-width=".5" xlink:href="#path-1"/>
  </g>
</svg>
