<svg xmlns="http://www.w3.org/2000/svg" width="20" height="21.787" viewBox="0 0 20 21.787">
  <g>
    <path fill="rgb(51,51,51)" fill-rule="evenodd" d="M9.07795877 21.78723404c-1.8763298 0-3.40425532-1.52692817-3.40425532-3.40425532 0-.3758311.30501995-.68085106.68085106-.68085106.3758311 0 .68085106.30501996.68085106.68085106 0 1.12666222.9168883 2.0425532 2.0425532 2.0425532 1.12566489 0 2.04255319-.91589098 2.04255319-2.0425532 0-.3758311.30501995-.68085106.68085106-.68085106.3758311 0 .68085107.30501996.68085107.68085106 0 1.87732715-1.52775928 3.40425532-3.40425532 3.40425532z"/>
    <path fill="rgb(51,51,51)" fill-rule="evenodd" d="M16.56732047 19.06382979H1.58859707C.71259973 19.06382979 0 18.35123004 0 17.47523272c0-.46492685.20246009-.90508642.55551864-1.2074468.0227726-.01994681.0472074-.03806515.07263962-.05452128 1.33261302-1.16289894 2.095246-2.8359375 2.095246-4.60255987v-2.532746c0-3.50398937 2.85139625-6.35455451 6.3545545-6.35455451.14527928 0 .30236039.00265957.44763962.02726063.3711769.0616689.62184179.41306515.56000668.7834109-.06166889.37034574-.41938166.62101064-.78341093.55917553-.07263962-.01180187-.15242685-.00814494-.22423536-.00814494-2.75232711 0-4.99285239 2.23952792-4.99285239 4.99285239v2.532746c0 2.19331783-.96143617 4.26861702-2.63530587 5.69281914-.0136303.01097077-.02543217.02094418-.04005983.03091758-.0244348.03091757-.04803855.07812498-.04803855.14079123 0 .12333775.10355719.22689494.22689493.22689494h14.9787234c.123504 0 .2270612-.1035572.2270612-.22689494 0-.06366357-.02360375-.10987366-.04903592-.14079123-.01363034-.0099734-.02543217-.0199468-.0390625-.03091758-1.67486703-1.42519944-2.63530584-3.49950131-2.63530584-5.69281914v-.9893617c0-.37583111.30501996-.68085107.68085107-.68085107.3758311 0 .68085106.30501996.68085106.68085106v.9893617c0 1.7676197.76346409 3.44148937 2.09790558 4.60538567.02443485.01628991.04803855.03357714.06981383.0526928.35322472.30136307.55568485.74152264.55568485 1.2064495 0 .87599731-.71259975 1.58859706-1.58876332 1.58859706z"/>
    <path fill="rgb(51,51,51)" fill-rule="evenodd" d="M1.58910601 19.06382979h14.98195427c.87618627 0 1.58893972-.71259975 1.58893972-1.58859707 0-.46492685-.20250376-.90508642-.55563846-1.2074468-.02277751-.01994681-.04721759-.03806515-.07265529-.05452128-1.33290046-1.16289894-2.09569794-2.8359375-2.09569794-4.60255987v-2.532746c0-3.50398937-2.85201129-6.35455451-6.35592516-6.35455451-.14531062 0-.3024256.00265957-.44773618.02726063-.37125695.0616689-.62197591.41306515-.56012747.7834109.0616822.37034574.41947212.62101064.78357992.55917553.07265528-.01180187.15245973-.00814494.22428373-.00814494 2.75292077 0 4.99392932 2.23952792 4.99392932 4.99285239v2.532746c0 2.19331783.96164355 4.26861702 2.6358743 5.69281914.01363324.01097077.02543766.02094418.04006847.03091758.02444008.03091757.04804892.07812498.04804892.14079123 0 .12333775-.10357953.22689494-.22694388.22689494H1.58910601c-.12353064 0-.22711017-.1035572-.22711017-.22689494 0-.06366357.02360884-.10987366.0490465-.14079123.01363327-.0099734.02543765-.0199468.03907093-.03091758 1.67522829-1.42519944 2.63587426-3.49950131 2.63587426-5.69281914v-.9893617c0-.37583111-.30508575-.68085107-.68099792-.68085107-.37591218 0-.68099792.30501996-.68099792.68085106v.9893617c0 1.7676197-.76362877 3.44148937-2.0983581 4.60538567-.02444011.01628991-.0480489.03357714-.06982888.0526928C.2025038 16.5701463 0 17.01030587 0 17.47523273c0 .87599731.71275345 1.58859706 1.58910601 1.58859706z"/>
  </g>
</svg>
