<svg id="Layer_1" data-name="Layer 1" xmlns="http://www.w3.org/2000/svg" viewBox="0 0 776.23 134.24"><defs><style>.cls-1{fill:#a13ac3;}.cls-2{fill:#762b8e;}.cls-3{fill:#7b2c95;}.cls-4{fill:#9235b0;}.cls-5{fill:#9d39bd;}.cls-6{fill:#67237e;}.cls-7{fill:#a63cc8;}.cls-8{fill:#8830a5;}.cls-9{fill:#b040d4;}.cls-10{fill:#72288a;}.cls-11{fill:#7a2b94;}.cls-12{fill:#8731a3;}.cls-13{fill:#8d33aa;}.cls-14{fill:#471754;}.cls-15{fill:#802b9c;}.cls-16{fill:#9639b5;}.cls-17{fill:#9b34be;}.cls-18{fill:#fbf9fc;}.cls-19{fill:#511b60;}.cls-20{fill:#6d2684;}.cls-21{fill:#aa3ece;}.cls-22{fill:#8534a0;}.cls-23{fill:#601f73;}.cls-24{fill:#9431b5;}.cls-25{fill:#3a1044;}.cls-26{fill:#572169;}</style></defs><path class="cls-1" d="M302.6,105.53c-.25-7-.49-14.08-.74-21.25,1.44-.56,2.64,0,3.9,1.29q19.5,19.37,39.09,38.64c.51.5,1.08.94,1.74,1.5V84.29h6.16v57.43l-.89.53a10.83,10.83,0,0,1-2.65-1.42q-19.53-19.16-39-38.38c-.68-.68-1.39-1.32-2.09-2l-.66.23v7.83a16,16,0,0,1-2.43-1.06A25,25,0,0,1,302.6,105.53Z" transform="translate(-41.08 -36.68)"/><path class="cls-2" d="M658.65,97a48.46,48.46,0,0,1,11.23-20c9.92-11.14,22.54-18.15,36.35-23.74l1.21,2.38c-20.36,8.28-34.77,21.62-39,44.06,3.63-1.69,7-3.64,10.55-4.83,13.84-4.62,26.93,2.43,30.16,16.25a26.25,26.25,0,0,1-5,23.06A33.48,33.48,0,0,1,700,138l-3.73-3.46c4.22-5.87,4.88-12.41,3.26-19.21-1.71-7.13-5.33-13.24-12.71-15.35-6.86-1.95-13.43-.17-19,4.54-2.18-2-4.32-4-6.55-6A16.14,16.14,0,0,0,658.65,97Z" transform="translate(-41.08 -36.68)"/><path class="cls-3" d="M632.1,128.56c.67-4.75,1.8-9.48,1.93-14.24.26-9.84-7-16-16.78-14.6-1.47.2-2.94.45-4.59.71V97c1.73-.46,3.6-.81,5.36-1.46,6.58-2.42,11.43-6.38,12.21-14,.88-8.59-4.8-14.28-13.39-13.48a22.35,22.35,0,0,0-16.38,9.32c-.25.32-.51.64-.78.94,0,0-.16,0-.53,0,1-3.36,2-6.65,3.08-9.91a1.89,1.89,0,0,1,1-.95c8-3.33,16.17-5.21,24.79-3.07,7.93,2,11.93,6.24,12.72,13.15.68,6-3.14,12.33-9.48,15.72L627,95.63l3.87.94c10,2.35,15.34,9.36,14.6,19.57A30.75,30.75,0,0,1,638,134Z" transform="translate(-41.08 -36.68)"/><path class="cls-4" d="M446.86,118.49q5.25-11,10.49-22c1.87-3.9,3.82-7.75,5.63-11.68a2.85,2.85,0,0,1,2.92-2.06c1.71,0,2.27.89,2.88,2.17,6.9,14.65,13.79,29.31,20.81,43.9,2,4.25,4.51,8.3,6.83,12.52H483.69c-.3-6.4-3.77-11.54-6.25-17-.28-.61-1.61-1.06-2.45-1.06-7,0-14,.13-21,.21-.83,0-1.66-.08-2.49-.12Zm5.38.75h22.94c-3.8-8.12-7.45-15.89-11.34-24.18C459.84,103.41,456.09,111.22,452.24,119.24Z" transform="translate(-41.08 -36.68)"/><path class="cls-5" d="M379,85c-3.76,10.8-3.29,21.57.36,32.28C387.4,141,417.27,144.4,431.13,130a1.77,1.77,0,0,1,1.29-.59c-1.28,3.26-2.54,6.53-3.88,9.76a2.24,2.24,0,0,1-1.25,1c-16.14,5.61-39.61,3.31-52.66-11.28-11.21-12.55-12.49-34.35-2.44-47.72a9.37,9.37,0,0,1,.7-.71c1,.7,1.95,1.37,2.9,2.08S377.92,84.19,379,85Z" transform="translate(-41.08 -36.68)"/><path class="cls-6" d="M737.55,69c13.64-7.56,27.38-7.34,40.39.92,14.51,9.21,20.46,23,18,40-.58,4-2.59,7.72-3.94,11.58-1-.73-1.91-1.46-2.88-2.18L785.78,117a33.76,33.76,0,0,0,1.83-21.18,31.8,31.8,0,0,0-29.49-24.3A34.7,34.7,0,0,0,742.05,75c-.83-1.06-1.67-2.1-2.48-3.17S738.22,70,737.55,69Z" transform="translate(-41.08 -36.68)"/><path class="cls-7" d="M231.54,67.59c8.41-4.4,17.31-4.83,26.4-3C286.5,70.48,294.79,99.08,286.4,119a17.43,17.43,0,0,1-2.62-1.53c-1.93-1.59-3.76-3.3-5.63-5,0-3,.18-6,.08-9-.23-7.13-1.57-14-5-20.39-4.79-8.91-12.07-14.11-22.35-14.94a31.2,31.2,0,0,0-16.38,3.27C232.64,70.88,231.38,69.78,231.54,67.59Z" transform="translate(-41.08 -36.68)"/><path class="cls-8" d="M505.25,100c-.36-5.22-.72-10.43-1.09-15.85,8.29.83,16.93-1.76,25.58.44,11.76,3,16.67,15.47,9.42,24.63-1.54,2-3.89,3.29-6,4.73-1.11.76-1.88,1.19-.76,2.6q9.35,11.87,18.6,23.81c0,.32,0,.64,0,1h-4a17.62,17.62,0,0,0-1.89-2.85c-4.5-4.59-9-9.18-13.63-13.62-2.22-2.13-4.75-3.92-7.14-5.86L522,116.83c-.17-.93-.33-1.87-.5-2.8a30.28,30.28,0,0,0,4.84-1.75c5.38-3,7.65-11.49,5.14-18.6-2-5.62-6.39-7.85-13.47-6.85-.58.08-1.15.16-1.73.2-1.65.09-2.2.89-2.18,2.56.06,5.65,0,11.3-.08,16.94-.79-.52-1.6-1-2.37-1.56C509.49,103.39,508.42,100.34,505.25,100Z" transform="translate(-41.08 -36.68)"/><path class="cls-9" d="M264.09,140.73c-8.4,3.3-17,3-25.42.53-15.68-4.52-25.09-15-27.85-31.13A35.9,35.9,0,0,1,212,92c1.61,1.46,3.17,3,4.86,4.37,1.41,1.16,3,2.15,4.45,3.22.39,4,.52,8.13,1.23,12.12,1.49,8.4,4.83,16,11.81,21.28,8.28,6.3,17.54,6.81,27.2,3.83Q262.81,138.75,264.09,140.73Z" transform="translate(-41.08 -36.68)"/><path class="cls-10" d="M767.05,141.54a36.62,36.62,0,0,1-32.87-5.9c-13.68-10-18.84-23.76-16-40.48a2.39,2.39,0,0,1,.34-.65c1,.64,2,1.24,3,1.94,1.36,1,2.66,2,4,3.08l0,3.73c0,20.47,16.84,35,37.09,32a25.34,25.34,0,0,0,1.45,2.47C765,139,766,140.27,767.05,141.54Z" transform="translate(-41.08 -36.68)"/><path class="cls-11" d="M696.31,134.55,700,138c-9.47,8.05-31.63,7.72-39.79-9.87-4.67-10.08-4.73-20.55-1.6-31.11a16.14,16.14,0,0,1,2.65,1.55c2.23,1.92,4.37,4,6.55,6-.24,8.14-.17,16.23,2.64,24.05C675,141.06,690.15,142,696.31,134.55Z" transform="translate(-41.08 -36.68)"/><path class="cls-12" d="M569,113.05V138l22.64-2.39c-.22,1.44-.39,3.16-.8,4.81a2,2,0,0,1-1.45,1.16c-10.22.07-20.44.05-30.19.05.29-12.55.57-24.8.85-37.05.59.2,1.37.23,1.75.64C564.29,107.75,566.65,110.41,569,113.05Z" transform="translate(-41.08 -36.68)"/><path class="cls-13" d="M505.25,100c3.17.32,4.24,3.37,6.44,5,.77.56,1.58,1,2.37,1.56a48,48,0,0,0,.2,5.64,2.51,2.51,0,0,0,1.64,1.72,46,46,0,0,0,5.64.14c.17.93.33,1.87.5,2.8l-8,.38c.33,8,.67,16,1,24.12H503.86c2-11.47,1-23,1.26-34.57C505.16,104.51,505.2,102.27,505.25,100Z" transform="translate(-41.08 -36.68)"/><path class="cls-14" d="M153.53,161.11H140.17V148.06c1-.64,2-1.31,3-1.92s1.93-1.06,2.89-1.6v6c4.8-1.71,12.9-12.27,18.64-24,1.64-1.29,3.23-2.63,4.93-3.84a25.55,25.55,0,0,1,3.09-1.69,65,65,0,0,1-19,31.82c-.48.46-1,.85-1.51,1.29-.18.16-.32.37-.91,1.07H157a23.38,23.38,0,0,1-1.24,2.79C155.12,159.09,154.29,160.08,153.53,161.11Z" transform="translate(-41.08 -36.68)"/><path class="cls-15" d="M569,113.05c-2.39-2.64-4.75-5.3-7.2-7.88-.38-.41-1.16-.44-1.75-.64-.19-3.9-.33-7.8-.57-11.7a31,31,0,0,0-.72-6.4c-.62-2.18.26-2.42,2-2.42q13,0,26-.15c1.49,0,3-.18,4.64-.29-.64,1.82-1.22,3.45-1.66,4.69l-20.64-.8v22.16l18.48-1.11c-.41,1.91-.78,3.69-1.15,5.4Z" transform="translate(-41.08 -36.68)"/><path class="cls-16" d="M379,85c-1.06-.82-2.11-1.65-3.19-2.46s-1.93-1.38-2.9-2.08c4.38-6.74,10.72-11,18.06-13.83,11.33-4.32,22.79-3.83,34.23-.33.6.19,1.45.47,1.64.93,1.17,2.9,2.2,5.86,3.43,9.22C414.09,62.81,387,66.16,379,85Z" transform="translate(-41.08 -36.68)"/><path class="cls-17" d="M44.62,82C49,68.52,57.28,57.8,68.64,49.41A59.15,59.15,0,0,1,87.49,40a11,11,0,0,1-1.24,2.5c-1.16,1.37-2.57,2.53-3.76,3.88-.34.39-.29,1.13-.42,1.71-4.93,3.43-10,6.65-14.74,10.34A48.2,48.2,0,0,0,55,73.51c-.39.72-.9,1.38-1.36,2.06a21.35,21.35,0,0,0-3.06,1.65C48.55,78.75,46.61,80.42,44.62,82Z" transform="translate(-41.08 -36.68)"/><path class="cls-18" d="M812.4,68.31l-1.19.68c-1,.22-2,.46-3.07.65-1.33.25-2.71.79-4,.59a12.36,12.36,0,0,1-7.6-4.18c-3-4.14-3.14-8.48-.91-13a3.81,3.81,0,0,0,1-.6c4.55-4.82,10.79-5.43,15.27-1.48,4.91,4.32,5.27,10.45,1,15.68A4.63,4.63,0,0,0,812.4,68.31Zm-4.85-8.82-3.62.71,5.64,5.07a18,18,0,0,0-1.71-2.73,5.07,5.07,0,0,1-.26-1.95c.8-1.11,2.13-2.18,2.23-3.36A4.42,4.42,0,0,0,807.9,54c-1-.68-2.55-.6-3.85-.86h-3c.1,4.28-.43,8.38.69,12.47a3.7,3.7,0,0,0,.75-2.21c0-2.49-.1-5,.06-7.48,0-.57,1-1.08,1.48-1.62,1.45.53,3.11.8,4.23,1.73C808.69,56.42,807.83,58.3,807.55,59.49Z" transform="translate(-41.08 -36.68)"/><path class="cls-19" d="M406,132c-16.17-2.15-28.26-15.74-25.29-34.06a1.15,1.15,0,0,1,.24-.43c1.55,1.28,3.06,2.61,4.66,3.83a28.49,28.49,0,0,0,2.83,1.68c.76,7.17,2.42,14,7.62,19.4a25.45,25.45,0,0,0,8.44,5.65Z" transform="translate(-41.08 -36.68)"/><path class="cls-20" d="M725.5,99.53c-1.33-1-2.63-2.1-4-3.08-1-.7-2-1.3-3-1.94a37.62,37.62,0,0,1,19-25.49c.67.94,1.33,1.9,2,2.82S741.22,74,742.05,75a93,93,0,0,0-8,6.58C729.1,86.52,726.63,92.74,725.5,99.53Z" transform="translate(-41.08 -36.68)"/><path class="cls-21" d="M221.29,99.54c-1.5-1.07-3-2.06-4.46-3.22-1.69-1.38-3.25-2.91-4.86-4.37,2.85-11.07,9.22-19.31,19.57-24.36-.16,2.19,1.1,3.29,3,3.93-2,1.81-4.29,3.41-6,5.47C223.05,83.48,221.19,91.22,221.29,99.54Z" transform="translate(-41.08 -36.68)"/><path class="cls-20" d="M767.05,141.54c-1-1.27-2.08-2.51-3-3.81a25.34,25.34,0,0,1-1.45-2.47c1.89-.55,3.83-1,5.67-1.67,8.19-3.05,13.71-9,17.55-16.64l3.33,2.39c1,.72,1.92,1.45,2.88,2.18A37.58,37.58,0,0,1,767.05,141.54Z" transform="translate(-41.08 -36.68)"/><path class="cls-6" d="M119.56,112.14A10.31,10.31,0,0,1,113,118a18.2,18.2,0,0,0-1.67-2.36Q103.67,107.76,96,100a10.57,10.57,0,0,1,6.55-6.36,12.53,12.53,0,0,0,1.53,2.68C109.18,101.59,114.38,106.86,119.56,112.14Z" transform="translate(-41.08 -36.68)"/><path class="cls-21" d="M264.09,140.73q-1.27-2-2.57-4c2.49-1.6,5.22-2.94,7.43-4.87,5.83-5.07,8-12,9.2-19.37,1.87,1.67,3.7,3.38,5.63,5A17.43,17.43,0,0,0,286.4,119C282.25,129.64,275,137.06,264.09,140.73Z" transform="translate(-41.08 -36.68)"/><path class="cls-19" d="M172.72,121a25.55,25.55,0,0,0-3.09,1.69c-1.7,1.21-3.29,2.55-4.93,3.84,3.1-8.47,4.87-17.17,4.21-26.22-.26-3.62-.93-7.2-1.41-10.8l5-3.5A61.64,61.64,0,0,1,172.72,121Z" transform="translate(-41.08 -36.68)"/><path class="cls-22" d="M632.1,128.56,638,134c-3.34,4.89-7.86,8.55-12.67,11.86a82.08,82.08,0,0,1-26.47,12.06c-.29-.76-.54-1.44-.9-2.39C613.27,151.39,625.63,143.65,632.1,128.56Z" transform="translate(-41.08 -36.68)"/><path class="cls-7" d="M302.6,105.53a25,25,0,0,0,2.44,1.94,16,16,0,0,0,2.43,1.06c.15,8.16.26,16.32.48,24.47.07,2.74.42,5.47.65,8.31h-6.51C302.26,129.3,302.43,117.41,302.6,105.53Z" transform="translate(-41.08 -36.68)"/><path class="cls-10" d="M119.56,112.14c-5.18-5.28-10.38-10.55-15.51-15.87a12.53,12.53,0,0,1-1.53-2.68,12.92,12.92,0,0,1,15.24,2.93C121.94,101.06,122.64,107.17,119.56,112.14Z" transform="translate(-41.08 -36.68)"/><path class="cls-23" d="M96,100q7.68,7.83,15.35,15.68A18.2,18.2,0,0,1,113,118c-7.55,3.78-17.55-1.89-18.42-10.45C94.31,104.88,94.31,102.26,96,100Z" transform="translate(-41.08 -36.68)"/><path class="cls-16" d="M446.86,118.49l4.68,4.83c-.59.36-1.46.57-1.71,1.09-2,4.18-4,8.39-5.83,12.67a20.46,20.46,0,0,0-.8,4.24h-8.1C439,133.76,442.93,126.13,446.86,118.49Z" transform="translate(-41.08 -36.68)"/><path class="cls-24" d="M82.07,48c.13-.58.08-1.32.42-1.71,1.19-1.35,2.6-2.51,3.76-3.88A11,11,0,0,0,87.49,40,58.37,58.37,0,0,1,109,36.71c-.54.88-1.09,1.76-1.62,2.65-.64,1.12-1.27,2.25-1.9,3.38C97.33,42.93,89.67,45.37,82.07,48Z" transform="translate(-41.08 -36.68)"/><path class="cls-8" d="M105.5,42.74c.63-1.13,1.26-2.26,1.9-3.38.53-.89,1.08-1.77,1.62-2.65,7.19.17,14.27,1,21,3.79l-3,5.09C120,43.36,112.78,42.78,105.5,42.74Z" transform="translate(-41.08 -36.68)"/><path class="cls-20" d="M75.43,162.24a55,55,0,0,1-16.82-13.4c1.18-1.56,2.37-3.12,3.55-4.69,4.58,5.52,10.44,9.45,16.38,13.3Z" transform="translate(-41.08 -36.68)"/><path class="cls-23" d="M75.43,162.24l3.11-4.79a70.45,70.45,0,0,0,20,6.67c-.49.72-1,1.45-1.48,2.15-.82,1.08-1.67,2.13-2.52,3.19A57.91,57.91,0,0,1,75.43,162.24Z" transform="translate(-41.08 -36.68)"/><path class="cls-19" d="M94.51,169.46c.85-1.06,1.7-2.11,2.52-3.19.52-.7,1-1.43,1.48-2.15l18,.83.83,5.12C109.65,171.55,102.08,170.94,94.51,169.46Z" transform="translate(-41.08 -36.68)"/><path class="cls-24" d="M44.62,82c2-1.61,3.93-3.28,6-4.81a21.35,21.35,0,0,1,3.06-1.65C51.75,81.43,49.82,87.28,48,93.15a29.22,29.22,0,0,0-.68,3.4,18.39,18.39,0,0,0-2.77,1.28c-1.21.8-2.29,1.79-3.42,2.7A54.44,54.44,0,0,1,44.62,82Z" transform="translate(-41.08 -36.68)"/><path class="cls-11" d="M62.16,144.15c-1.18,1.57-2.37,3.13-3.55,4.69a49.9,49.9,0,0,1-11-16.31l4.92-3Z" transform="translate(-41.08 -36.68)"/><path class="cls-13" d="M524.38,119c2.39,1.94,4.92,3.73,7.14,5.86,4.64,4.44,9.13,9,13.63,13.62a17.62,17.62,0,0,1,1.89,2.85l-.48.1c-4.47.7-7.64-.24-10.14-4.8C533,130.43,528.45,124.86,524.38,119Z" transform="translate(-41.08 -36.68)"/><path class="cls-19" d="M146.06,144.54c-1,.54-1.94,1-2.89,1.6s-2,1.28-3,1.92V129.73h5.89Z" transform="translate(-41.08 -36.68)"/><path class="cls-15" d="M52.5,129.54l-4.92,3-5.27-15.45,5.38-3.63Z" transform="translate(-41.08 -36.68)"/><path class="cls-13" d="M47.69,113.45l-5.38,3.63-1.23-16.55c1.13-.91,2.21-1.9,3.42-2.7a18.39,18.39,0,0,1,2.77-1.28Z" transform="translate(-41.08 -36.68)"/><path class="cls-3" d="M127,45.59l3-5.09L145,48l-3.51,4.54Z" transform="translate(-41.08 -36.68)"/><path class="cls-23" d="M172.53,86l-5,3.5-5.57-14.85L166.44,71c1.85,4.12,3.72,8.22,5.51,12.35A13.68,13.68,0,0,1,172.53,86Z" transform="translate(-41.08 -36.68)"/><path class="cls-25" d="M153.53,161.11c.76-1,1.59-2,2.25-3.12A23.38,23.38,0,0,0,157,155.2h14.5l.39.36v5.56Z" transform="translate(-41.08 -36.68)"/><path class="cls-6" d="M166.44,71l-4.51,3.66-8.88-12.27L157,58Z" transform="translate(-41.08 -36.68)"/><path class="cls-2" d="M157,58l-3.95,4.39-11.54-9.9L145,48Z" transform="translate(-41.08 -36.68)"/><path class="cls-23" d="M388.47,103a28.49,28.49,0,0,1-2.83-1.68c-1.6-1.22-3.11-2.55-4.66-3.83L384.05,89a19.28,19.28,0,0,1,2.48,1.27c1,.67,1.89,1.48,2.83,2.23Z" transform="translate(-41.08 -36.68)"/><path class="cls-1" d="M411.52,73.59c4.41.61,8.83,1.19,13.23,1.89a2.48,2.48,0,0,1,1.64,1.25c.83,1.87,1.44,3.83,2.33,6.33A26.45,26.45,0,0,0,413,76.83Z" transform="translate(-41.08 -36.68)"/><path class="cls-19" d="M107.89,160.22a4.29,4.29,0,0,1-4.33-4.21,4.51,4.51,0,0,1,4.41-4.49,4.56,4.56,0,0,1,4.47,4.45A4.35,4.35,0,0,1,107.89,160.22Z" transform="translate(-41.08 -36.68)"/><path class="cls-5" d="M812.4,68.31a4.63,4.63,0,0,1,.5-1.65c4.31-5.23,4-11.36-1-15.68-4.48-3.95-10.72-3.34-15.27,1.48a3.81,3.81,0,0,1-1,.6l-.4-.5c1.26-3.27,5.91-5.79,10.53-5.46,5.24.38,8.83,3.28,10.65,8.09A11.07,11.07,0,0,1,814,67.4,5.89,5.89,0,0,1,812.4,68.31Z" transform="translate(-41.08 -36.68)"/><path class="cls-13" d="M107.87,51.17a4.63,4.63,0,0,1,4.55,4.38,4.54,4.54,0,0,1-4.51,4.39,4.62,4.62,0,0,1-4.32-4.36A4.81,4.81,0,0,1,107.87,51.17Z" transform="translate(-41.08 -36.68)"/><path class="cls-26" d="M89.63,128.41A4.62,4.62,0,0,1,85.39,124a4.46,4.46,0,0,1,4.39-4.42A4.52,4.52,0,0,1,94,123.93,4.59,4.59,0,0,1,89.63,128.41Z" transform="translate(-41.08 -36.68)"/><path class="cls-3" d="M112.35,82.88a4.92,4.92,0,0,1-4.51,4.51,4.77,4.77,0,0,1-4.26-4.45,4.64,4.64,0,0,1,4.35-4.33A4.74,4.74,0,0,1,112.35,82.88Z" transform="translate(-41.08 -36.68)"/><path class="cls-12" d="M130.53,87.61a4.33,4.33,0,1,1-8.65-.1,4.33,4.33,0,1,1,8.65.1Z" transform="translate(-41.08 -36.68)"/><path class="cls-23" d="M89.44,105.74a4.2,4.2,0,0,1-4.17,4.32,4.32,4.32,0,1,1-.27-8.63A4.25,4.25,0,0,1,89.44,105.74Z" transform="translate(-41.08 -36.68)"/><path class="cls-20" d="M89.61,91.88a4.35,4.35,0,0,1-4.22-4.34,4.32,4.32,0,1,1,4.22,4.34Z" transform="translate(-41.08 -36.68)"/><path class="cls-20" d="M130.53,123.87a4.32,4.32,0,1,1-8.63.37,4.43,4.43,0,0,1,4.23-4.58A4.52,4.52,0,0,1,130.53,123.87Z" transform="translate(-41.08 -36.68)"/><path class="cls-12" d="M144.59,101.41a4.76,4.76,0,0,1,4.29,4.41,4.65,4.65,0,0,1-4.45,4.24,4.33,4.33,0,1,1,.16-8.65Z" transform="translate(-41.08 -36.68)"/><path class="cls-26" d="M71.49,101.43a4.33,4.33,0,1,1-.22,8.64,4.36,4.36,0,0,1-4.21-4.3A4.3,4.3,0,0,1,71.49,101.43Z" transform="translate(-41.08 -36.68)"/><path class="cls-3" d="M126.46,105.86a4.27,4.27,0,0,1,4.3-4.45,4.33,4.33,0,1,1,0,8.66A4.26,4.26,0,0,1,126.46,105.86Z" transform="translate(-41.08 -36.68)"/><path class="cls-26" d="M107.83,146.58a4.54,4.54,0,0,1-4.26-4.38,4.46,4.46,0,0,1,4.33-4.28,4.33,4.33,0,1,1-.07,8.66Z" transform="translate(-41.08 -36.68)"/><path class="cls-23" d="M107.83,124.17a4.37,4.37,0,1,1-.18,8.74,4.56,4.56,0,0,1-4.08-4.34A4.65,4.65,0,0,1,107.83,124.17Z" transform="translate(-41.08 -36.68)"/><path class="cls-13" d="M158.18,110.06a4.37,4.37,0,0,1-4.34-4.24,4.29,4.29,0,0,1,4.19-4.38,4.4,4.4,0,0,1,4.5,4.36A4.45,4.45,0,0,1,158.18,110.06Z" transform="translate(-41.08 -36.68)"/><path class="cls-12" d="M107.89,73.56a4.31,4.31,0,0,1-4.31-4.19,4.39,4.39,0,0,1,4.35-4.45,4.7,4.7,0,0,1,4.43,4.25A4.48,4.48,0,0,1,107.89,73.56Z" transform="translate(-41.08 -36.68)"/><path class="cls-19" d="M62,105.78a4.35,4.35,0,1,1-4.19-4.39A4.44,4.44,0,0,1,62,105.78Z" transform="translate(-41.08 -36.68)"/><path class="cls-10" d="M389.36,92.54c-.94-.75-1.84-1.56-2.83-2.23A19.28,19.28,0,0,0,384.05,89q3.17-3.93,6.34-7.84,1.31,1.86,2.63,3.71Z" transform="translate(-41.08 -36.68)"/><path class="cls-4" d="M411.52,73.59l1.5,3.24L400.51,79,399,76.05a35.92,35.92,0,0,1,5-1.66C406.53,73.94,409,73.84,411.52,73.59Z" transform="translate(-41.08 -36.68)"/><path class="cls-15" d="M399,76.05l1.47,2.9-7.49,6q-1.32-1.84-2.63-3.71Z" transform="translate(-41.08 -36.68)"/><path class="cls-23" d="M415,129.58l8.39-2.09,3.1,3-10,2.06Z" transform="translate(-41.08 -36.68)"/><path class="cls-26" d="M415,129.58l1.5,2.92L406,132l-1.5-3.93Z" transform="translate(-41.08 -36.68)"/><path class="cls-20" d="M796.56,66.05a12.36,12.36,0,0,0,7.6,4.18c1.27.2,2.65-.34,4-.59,1-.19,2.05-.43,3.07-.65-3.16,3.13-6.89,3.17-10.64,1.54-1.79-.78-3.26-2.32-4.88-3.52Z" transform="translate(-41.08 -36.68)"/><path class="cls-23" d="M796.56,66.05l-.87,1c-3.65-4.7-3.84-10.9-.44-14.45l.4.5C793.42,57.57,793.57,61.91,796.56,66.05Z" transform="translate(-41.08 -36.68)"/><path class="cls-2" d="M426.52,130.44l-3.1-3,6.94-4.76c-1,2.59-2,5-3,7.48C427.3,130.37,426.81,130.37,426.52,130.44Z" transform="translate(-41.08 -36.68)"/><path class="cls-13" d="M551,141.34c0-.32,0-.64,0-1l2.08,1.16Z" transform="translate(-41.08 -36.68)"/><path class="cls-14" d="M171.91,155.55l-.39-.36Z" transform="translate(-41.08 -36.68)"/><path class="cls-22" d="M804.05,54.34c-.52.54-1.45,1-1.48,1.62-.16,2.49,0,5-.06,7.48a3.7,3.7,0,0,1-.75,2.21c-1.12-4.09-.59-8.19-.69-12.47h3Z" transform="translate(-41.08 -36.68)"/><path class="cls-16" d="M804.05,54.34V53.18c1.3.26,2.83.18,3.85.86a4.42,4.42,0,0,1,1.93,3.19c-.1,1.18-1.43,2.25-2.23,3.36,0-.37,0-.73-.05-1.1.28-1.19,1.14-3.07.73-3.42C807.16,55.14,805.5,54.87,804.05,54.34Z" transform="translate(-41.08 -36.68)"/><path class="cls-22" d="M807.55,59.49c0,.37,0,.73.05,1.1a5.07,5.07,0,0,0,.26,1.95,18,18,0,0,1,1.71,2.73l-5.64-5.07Z" transform="translate(-41.08 -36.68)"/></svg>