<svg xmlns="http://www.w3.org/2000/svg" width="17" height="14.941" viewBox="0 0 17 14.941">
  <g>
    <ellipse cx="1.494" cy="7.471" fill="rgb(103,210,223)" rx="1.494" ry="1.494"/>
    <path fill="rgb(103,210,223)" fill-rule="evenodd" d="M0 9.9609375h17v1.9921875H0V9.9609375z"/>
    <path fill="rgb(103,210,223)" fill-rule="evenodd" d="M14.50976563 5.9765625h-9.03125c-1.37311524 0-2.49023438 1.11711914-2.49023438 2.49023438v.49804687H17v-.49804688c0-1.37311523-1.11711914-2.49023437-2.49023438-2.49023437z"/>
    <path fill="rgb(103,210,223)" fill-rule="evenodd" d="M0 14.94140625h.99609375v-.99609375h15.0078125v.99609375H17v-1.9921875H0v1.9921875z"/>
    <path fill="rgb(103,210,223)" fill-rule="evenodd" d="M8.19217383 2.98828125h2.79806055V1.9921875H9.80391991L10.80001367 0H8.00195312v.99609375h1.18631446l-.99609375 1.9921875z"/>
    <path fill="rgb(103,210,223)" fill-rule="evenodd" d="M4.20779883 4.98046875h2.79806055V3.984375H5.81954491l.99609375-1.9921875H4.01757812v.99609375h1.18631446l-.99609375 1.9921875z"/>
  </g>
</svg>
