<svg xmlns="http://www.w3.org/2000/svg" width="14.4" height="18.607" viewBox="0 0 14.4 18.607">
  <path fill="rgb(239,172,0)" fill-rule="evenodd" d="M13.33337402 1.69140625h.5333252c.29455566 0 .5333252.23876953.5333252.5333252v10.68347167c-.00598145 1.29553223-.52856446 2.53515626-1.45178223 3.44396973-.85351563.85412598-2.01037598 1.3355713-3.21789551 1.3392334h-.0756836c-2.39978027-.0522461-4.37231445-1.90881348-4.56958007-4.3010254-2.27038574-.19311522-3.5871582-1.25549315-3.92663574-3.1656494H.5333252C.23876953 10.22473145 0 9.9859619 0 9.69140625v-.80004883c0-.29455566.23876953-.5333252.5333252-.5333252h.57788085c.30688477-2.93725585 2.20910645-6.66662597 4.75549317-6.66662597s4.44848633 3.72937012 4.75549316 6.66662598h.5777588c.29455566 0 .53332519.23876953.53332519.5333252v.80004882c0 .29455566-.23876953.5333252-.5333252.5333252h-.625c-.33679199 1.89331054-1.6352539 2.95446777-3.87231445 3.1586914.18713379 1.41796875 1.3137207 2.52770996 2.734375 2.69335938.86230469.0871582 1.72058105-.19873047 2.35839844-.7854004.63830566-.58093261 1.00292968-1.40356445 1.00463867-2.26660156V2.22473145c0-.29455567.23876953-.5333252.5333252-.5333252zM1.5999756 9.15808105c0-.17285156.00720214-.34851074.01977539-.52563476 0-.00292969.00158691-.00500488.00158691-.00769043V8.6204834c.21252441-2.95410156 2.11816406-6.39575195 4.24536133-6.39575195 2.12719726 0 4.03271484 3.44165039 4.24609375 6.39575195v.00427246c0 .00268555 0 .00476074.00158691.00769043.01257325.17712402.0197754.3527832.0197754.52563476 0 2.26831055-1.13708497 3.47680665-3.46667481 3.69360352v-.53515625c2.58666992-.26086426 2.9333496-1.8133545 2.9333496-3.15844727-.00085448-3.05041503-1.9547119-6.4000244-3.73413085-6.4000244-1.77954102 0-3.73339844 3.34960937-3.73339844 6.4000244 0 1.34375.34667969 2.89758301 2.93334961 3.15844727v.53759766c-2.3293457-.21813965-3.4666748-1.42749024-3.4666748-3.69604493zm10.97412109 6.81384278c.82165527-.80834961 1.28686523-1.91113281 1.29260254-3.0637207V2.22473144h-.5333252v10.80004882c-.00158691 1.01342774-.42944336 1.9794922-1.17871093 2.66186524-.74938965.68725586-1.75622559 1.022583-2.76794434.921875-1.76452637-.20446778-3.12939453-1.6430664-3.24084473-3.41577149-.00402832-.01159668-.00720214-.0234375-.00939941-.03552246.0008545-.0135498.00268555-.0270996.00561523-.04052734-.00317382-.06311035-.00878906-.1258545-.00878906-.1895752v-3.5024414c0-.1472168-.11938476-.26660157-.26660156-.26660157-.015625 0-.03125.00134278-.04675293.00378418-.13305664.03271485-.22497559.15441895-.2199707.29138184v3.5715332c.00964355 2.25170899 1.81225586 4.08532715 4.06347656 4.13330078 1.09057617.0140381 2.14050293-.41381835 2.91064453-1.18615722zm-7.50744629-5.74719238V9.4534912c-.00512695-.39819336.27575684-.74267578.66662598-.8178711.2322998-.03918456.4699707.02587891.64990234.17797852.17980957.15197754.28356934.37561035.28344727.61108399v.80004883c.45910644-.34436036.64648437-.94384766.46496582-1.48828125-.18151856-.5444336-.69104004-.91174317-1.26489258-.91174317-.57397461 0-1.0834961.36730957-1.26489258.91174317-.18151855.54443359.0057373 1.1439209.46484375 1.48828125zM.5333252 8.89135742v.80004883h.55541993c-.0135498-.17224121-.02209473-.34936523-.02209473-.5333252 0-.08776855.00219727-.1767578.00561524-.26672363H.5333252zm10.66662598 0v.80004883h-.55541992c.0135498-.17224121.02209473-.34936523.02209473-.5333252 0-.08776855-.0020752-.1767578-.00561524-.26672363h.53894043z"/>
</svg>
