<svg xmlns="http://www.w3.org/2000/svg"
  width="10.097"
  height="13.985"
  viewBox="0 0 10.097 13.985">
  <path fill="rgb(196,214,0)"
    fill-rule="evenodd"
    d="M4.04528046 6.1171875c.20639038-.80432129.3082161-2.1459961.13319015-3.10168457C3.85988617 1.27703857 3.1819191.26922607 2.26429367.02996826.30714417-.2567749.06143951 1.57312012.01189423 2.96820068c-.10936737.78051758.5506134 3.79309082 1.35417556 4.36035157.79086304-.1994629 1.5674324-.3949585 2.35221863-.57189942.20245743-.1074829.13831711-.07269287.32699204-.63946533zm3.78751373-2.83105469c1.95715332-.28674316 2.20285797 1.5432129 2.25239944 2.93817139.10937119.78063965-.55052948 3.79302978-1.35401153 4.3604126-.79091644-.1994629-1.56759262-.3951416-2.3521347-.57189942-.20270157-.10760498-.13856125-.0727539-.32715607-.63952636-.20655442-.80426026-.30838013-2.14587403-.13327027-3.10168457.31882477-1.73846436.99671173-2.74603272 1.91417313-2.98547364zM3.9342308 7.23620605c2.383255 3.51782227-2.01000595 5.36291504-2.37755966.71704102.95707321-.29412842 1.6231575-.4586792 2.37755966-.71704102zm4.6061058 3.97296143c-.9570999-.29412842-1.6232376-.4586792-2.37763976-.71704102-2.38330841 3.5178833 2.00994873 5.36297608 2.37763977.71704102z" />
</svg>
