<svg xmlns="http://www.w3.org/2000/svg" width="13.972" height="7.569" viewBox="0 0 13.972 7.569">
  <g opacity=".8">
    <path fill="rgb(51,51,51)" fill-rule="evenodd" d="M6.98614502 3.47457886c.96105957 0 1.8481903.4065857 2.4765625 1.03497314.64686584.62838745 1.0349884 1.51553345 1.0349884 2.47659302H9.5366211c0-.70233154-.27722168-1.34918213-.73927307-1.81121826-.46203613-.46206665-1.10890198-.73928833-1.81121826-.73928833-.70230102 0-1.34916687.27722168-1.81121826.73928833-.4620514.46203613-.73927307 1.10888672-.73927307 1.81121826h-.96104431c0-.96105957.40660095-1.84820557 1.0349884-2.47659302.6283722-.64685058 1.51550293-1.03497314 2.4765625-1.03497314zm-2.5505066 3.51156616H9.5366211c0 .70230102-5.10098266.70230102-5.10098266 0z"/>
    <path fill="rgb(51,51,51)" fill-rule="evenodd" d="M13.49174917 6.50561056h-1.4231023c-.25874588 0-.48052806.22178218-.48052806.48052805 0 .25874588.22178218.48052806.48052805.48052806h1.42310231c.25874588 0 .48052806-.22178218.48052806-.48052806 0-.25874587-.22178218-.48052805-.48052806-.48052805z"/>
    <path fill="rgb(51,51,51)" fill-rule="evenodd" d="M6.98613861 0c-.25874587 0-.48052805.22178218-.48052805.48052805v1.42310231c0 .25874588.22178218.48052806.48052805.48052806.25874588 0 .48052806-.22178218.48052806-.48052806V.48052806C7.46666667.22178217 7.24488449 0 6.9861386 0z"/>
    <path fill="rgb(51,51,51)" fill-rule="evenodd" d="M11.93927393 2.05148515c-.18481848-.18481848-.48052806-.18481848-.66534654 0L10.25742574 3.0679868c-.18481848.18481848-.18481848.48052805 0 .66534653.16633664.18481849.48052806.18481849.66534654 0l1.01650165-1.01650165c.18481848-.18481848.18481848-.48052805 0-.66534653z"/>
    <path fill="rgb(51,51,51)" fill-rule="evenodd" d="M13.49174917 6.50561056H.48052805C.22178218 6.50561056 0 6.72739274 0 6.98613861c0 .25874588.20330033.48052806.48052805.48052806h13.01122112c.25874588 0 .48052806-.22178218.48052806-.48052806 0-.25874587-.22178218-.48052805-.48052806-.48052805z"/>
    <path fill="rgb(51,51,51)" fill-rule="evenodd" d="M3.71485149 3.0679868L2.69834983 2.05148515c-.18481848-.18481848-.48052805-.18481848-.66534653 0s-.18481848.48052805 0 .66534653l1.01650165 1.01650165c.18481848.18481849.48052805.18481849.66534654 0 .18481848-.18481848.18481848-.48052805 0-.66534653z"/>
  </g>
</svg>
