<svg xmlns="http://www.w3.org/2000/svg" width="11.976" height="11.976" viewBox="0 0 11.976 11.976">
  <g opacity=".8">
    <path fill="rgb(51,51,51)" fill-rule="evenodd" d="M5.9881134 2.97821045c.82376099 0 1.58415223.34851074 2.12277222.88711548.55445862.53863525.88713074 1.29901123.88713074 2.12277221 0 .823761-.348526 1.58416749-.88713074 2.12277222-.53862.55447388-1.29901123.887146-2.12277222.887146-.82376098 0-1.58416748-.34851074-2.12277221-.887146-.53862-.53860473-.88713074-1.29901123-.88713074-2.12277222 0-.82376098.34851074-1.58413696.88713074-2.12277221.53860473-.55444336 1.29901123-.88711548 2.12277221-.88711548zm.00001526 5.19604492c.60197449 0 1.1564331-.23764038 1.55247498-.633667.39604187-.39605712.63366699-.95050048.63366699-1.55249023 0-.60195922-.23762512-1.1564331-.633667-1.55245971-.39604186-.39605713-.95050048-.633667-1.55247497-.633667-.60198974 0-1.1564331.23760987-1.55247497.633667-.39604187.3960266-.633667.95050049-.633667 1.55245971 0 .60198975.23762513 1.15643311.633667 1.55249024.39604187.39602661.95048523.633667 1.55247497.633667z"/>
    <path fill="rgb(51,51,51)" fill-rule="evenodd" d="M11.56435644 5.57623762h-1.21980198c-.22178218 0-.4118812.19009901-.4118812.4118812 0 .22178217.19009902.41188118.4118812.41188118h1.21980198c.22178217 0 .41188118-.19009901.41188118-.41188119s-.190099-.41188119-.41188118-.41188119z"/>
    <path fill="rgb(51,51,51)" fill-rule="evenodd" d="M5.98811881 9.93267327c-.22178218 0-.41188119.190099-.41188119.41188119v1.21980198c0 .22178217.19009901.41188118.4118812.41188118.22178217 0 .41188118-.190099.41188118-.41188118v-1.21980198c0-.22178218-.19009901-.4118812-.41188119-.4118812z"/>
    <path fill="rgb(51,51,51)" fill-rule="evenodd" d="M10.21782178 9.64752475l-.87128713-.87128713c-.14257425-.15841584-.41188118-.15841584-.57029703 0-.15841584.15841585-.15841584.4118812 0 .57029703l.87128713.87128713c.15841584.15841584.4118812.15841584.57029703 0 .15841584-.15841584.15841584-.41188119 0-.57029703z"/>
    <path fill="rgb(51,51,51)" fill-rule="evenodd" d="M5.98811881 0c-.22178218 0-.41188119.19009901-.41188119.41188119v1.21980198c0 .22178218.19009901.41188119.4118812.41188119.22178217 0 .41188118-.19009901.41188118-.4118812V.4118812C6.4.190099 6.20990099 0 5.98811881 0z"/>
    <path fill="rgb(51,51,51)" fill-rule="evenodd" d="M10.23366337 1.75841584c-.15841585-.15841584-.4118812-.15841584-.57029703 0l-.87128713.87128713c-.15841584.15841584-.15841584.41188119 0 .57029703.14257426.15841584.41188119.15841584.57029703 0l.87128713-.87128713c.15841584-.15841584.15841584-.41188119 0-.57029703z"/>
    <path fill="rgb(51,51,51)" fill-rule="evenodd" d="M1.63168317 5.57623762H.41188119C.190099 5.57623762 0 5.76633663 0 5.98811882 0 6.20990098.17425743 6.4.41188119 6.4h1.21980198c.22178218 0 .41188119-.19009901.41188119-.41188119s-.19009901-.41188119-.4118812-.41188119z"/>
    <path fill="rgb(51,51,51)" fill-rule="evenodd" d="M3.18415842 8.77623762c-.14257426-.15841584-.4118812-.15841584-.57029703 0l-.87128713.87128713c-.15841584.15841584-.15841584.4118812 0 .57029703.15841584.15841584.41188119.15841584.57029703 0l.87128713-.87128713c.15841584-.15841584.15841584-.41188118 0-.57029703z"/>
    <path fill="rgb(51,51,51)" fill-rule="evenodd" d="M3.18415842 2.62970297l-.87128713-.87128713c-.15841584-.15841584-.4118812-.15841584-.57029703 0-.15841584.15841584-.15841584.41188119 0 .57029703L2.61386139 3.2c.15841584.15841584.41188118.15841584.57029703 0 .15841584-.15841584.15841584-.41188119 0-.57029703z"/>
  </g>
</svg>
