<svg xmlns="http://www.w3.org/2000/svg" width="24" height="24" viewBox="0 0 24 24">
  <path fill="rgb(131,0,81)" fill-rule="evenodd" d="M12 .00183105V0c6.62738037 0 12 5.37237549 12 12 0 6.62738037-5.37261963 12.00024414-12 12.00024414S0 18.62738037 0 12c0-4.06671143 2.02505493-7.65875244 5.11972046-9.82940674l.02267456.03271485c.09680176-.06036377.21017456-.09674073.33227539-.09674073.34918213 0 .6315918.28265381.6315918.6315918 0 .28057861-.18432617.51550293-.43722534.59783936C3.00053406 5.28930664 1.26318359 8.43963623 1.26318359 12c0 5.9298706 4.80697632 10.7368164 10.73681641 10.7368164 5.93011475 0 10.73709106-4.8069458 10.73709106-10.7368164 0-5.925354-4.79986572-10.72943115-10.72390747-10.73657227-.00421142.00030518-.00842285.00158692-.01318359.00158692-.34887695 0-.6315918-.28265381-.6315918-.6315918 0-.34887695.28271485-.6315918.6315918-.6315918zM3.15927124 11.3684082c.34889221 0 .63160706.28295899.63160706.6315918 0 .0036621-.00106812.0065918-.00106812.0102539C3.79534912 16.5401001 7.46887207 20.21044923 12 20.21044923c4.53482056 0 8.21069336-3.67590332 8.21069336-8.21044922 0-4.53137207-3.67062378-8.20489502-8.20040894-8.21020508-.00369262 0-.00686645.00109863-.01028442.00109863-.34890747 0-.6315918-.28271484-.6315918-.6315918 0-.34893798.28268433-.63159179.6315918-.63159179V2.5263672c5.23205566 0 9.47415161 4.24157715 9.47415161 9.47363281 0 5.2322998-4.24209595 9.47387695-9.47415161 9.47387695-5.23208618 0-9.47363281-4.24157715-9.47363281-9.47387695h.00131225c0-.34863281.28269959-.6315918.6315918-.6315918zM12 18.94647217c3.83676147 0 6.94647217-3.1102295 6.94647217-6.94647217 0-3.83648682-3.1097107-6.94647217-6.94647217-6.94647217-.34887695 0-.6315918.28271485-.6315918.6315918s.28271485.6315918.6315918.6315918c3.13845825 0 5.68353271 2.54455566 5.68353271 5.68328857 0 3.13873291-2.54507446 5.68328857-5.68353271 5.68328857-.34887695 0-.6315918.28295899-.6315918.6315918s.28271485.6315918.6315918.6315918zM15.15744019 12c0-1.74365234-1.41348267-3.15740967-3.15744019-3.15740967-.34887695 0-.63131714-.2824707-.63131714-.63134765 0-.34887696.28271485-.6315918.6315918-.6315918 2.44146728 0 4.42062378 1.97918701 4.42062378 4.42034912 0 .34887695-.28323365.6315918-.6315918.6315918-.34890747 0-.63186645-.28295899-.63186645-.6315918z"/>
</svg>
