<svg xmlns="http://www.w3.org/2000/svg" xmlns:xlink="http://www.w3.org/1999/xlink" width="19.206" height="17.066" viewBox="0 0 19.206 17.066">
  <defs>
    <path id="path-1" fill-rule="evenodd" d="M16.6120951 3.987797h-6.21453858c-.47573853.00012207-.9118042-.26538086-1.12991333-.6881714l-.87503052-1.68634032C8.02823279.90851233 7.29986975.46741125 6.5065653.470463H2.59436438C1.42157385.47101233.4709818 1.42157385.470463 2.59436438V14.4713175c.0005188 1.17279053.95111084 2.12341309 2.12390137 2.12390137h14.01773071c1.17279053-.00048828 2.12335205-.95111084 2.12390137-2.12390137V6.11169836c-.00054932-1.17279052-.95111084-2.12365722-2.12390137-2.12390136zM2.59436437 1.32440588H6.5065653c.47576904-.00042724.91183471.26538086 1.12991333.68817139l.87506103 1.68621826c.05429077.10180664.11535645.199646.1826477.2932129H1.32001136V2.60284825c.00012207-.7043457.57000733-1.27593994 1.27435303-1.27844238zm14.0177002 14.42541504c.70288085-.00201416 1.27236938-.5713501 1.27435302-1.27435303V6.11597082c-.00198364-.70300293-.57147217-1.27233886-1.27435303-1.27435302h-6.21026611c-.09954834-.0006714-.19873047-.0078125-.29733276-.02124024-.03997803.01208496-.08151245.01776123-.12319947.01696778H1.32001135v9.63812255c.00198364.70300293.57147217 1.27233887 1.27435303 1.27435303h14.0177002z"/>
    <path id="path-2" fill-rule="evenodd" d="M11.68133948 6.77899573c.66625976 0 1.18814086.18432617 1.56585693.55316162.37771606.36871338.56658935.88018799.56655884 1.53448486 0 .6572876-.34051514 1.32647705-1.02157593 2.00738525L10.012974 13.55078528c-.05352783.05352783-.11898804.08032226-.19628907.08032226-.07733154 0-.1427307-.02679443-.19628906-.08032226L6.8367655 10.8652384q-.0446167-.0357666-.12268066-.11608887c-.05197144-.05352783-.13458252-.1508789-.24758911-.29211425-.1130066-.14129639-.21417237-.28625489-.30334473-.43493653-.08920288-.14868164-.16882324-.32861328-.23867798-.53979492-.06985474-.21099853-.1048584-.4163208-.1048584-.61560058 0-.65423584.1888733-1.16577149.56655884-1.5345459.37768555-.36877442.89956665-.55316162 1.5657959-.55316162.18435669 0 .37249756.03198242.56430054.09588623.19180297.06396484.37026977.15014648.53533935.25878906.16506958.10858154.30703735.21038818.4260559.305542.11892701.0951538.2319336.19628905.33901978.30334472.10705567-.10705567.22009278-.20819092.33901978-.30334473.11904907-.0951538.26095581-.19702148.4260559-.305542.164917-.10858153.34341432-.19482421.53524781-.25878905.19180298-.06390381.37997437-.09588623.56433106-.09588623zm-1.86462403 6.16943359l2.58737183-2.49365234c.55914306-.55908204.83862305-1.08850098.83865356-1.58813477 0-.24084473-.0319519-.45355225-.09579467-.63787842-.06396485-.1843872-.14578248-.33087158-.24539185-.43945312-.09960938-.10852051-.22079468-.19696045-.3635559-.26538086-.14279176-.06842041-.28253175-.11456299-.41937257-.13830567-.13684082-.02374267-.28250122-.03564453-.43713379-.03564453-.15463256 0-.32125854.03790283-.49963379.1137085-.17852783.0758667-.34283447.1710205-.49304199.28552246-.15011596.11462402-.27877807.22161865-.38583374.321167-.10705566.0996704-.19628906.19110107-.26766968.27435302-.05355835.06549072-.1264038.09820557-.2185974.09820557-.0921631 0-.16506959-.03271485-.2185669-.09820557-.07141113-.08325195-.1605835-.17462158-.26763916-.27435303-.10708618-.09954834-.23571778-.206604-.3859253-.32116699-.150177-.11450195-.31448364-.20965576-.4928894-.28552246-.17843628-.07580567-.34503174-.1137085-.49963379-.1137085-.1546936 0-.30038452.01190186-.4371643.03564453-.13677979.02380371-.2765503.06988526-.41937256.13830567-.14276123.0684204-.26391602.15686035-.36355591.26538086q-.1494751.1628418-.24536133.43945312c-.0639038.18432617-.09588623.3970337-.09588623.63787842 0 .49963379.27804565 1.0275879.834198 1.58361816l2.59179687 2.49816895z"/>
  </defs>
  <g>
    <g>
      <use fill="rgb(117,117,117)" xlink:href="#path-1"/>
      <use fill-opacity="0" stroke="rgb(117,117,117)" stroke-linecap="butt" stroke-linejoin="miter" stroke-width=".2" xlink:href="#path-1"/>
    </g>
    <g>
      <use fill="rgb(117,117,117)" xlink:href="#path-2"/>
      <use fill-opacity="0" stroke="rgb(117,117,117)" stroke-linecap="butt" stroke-linejoin="miter" stroke-width=".4" xlink:href="#path-2"/>
    </g>
  </g>
</svg>
