<svg xmlns="http://www.w3.org/2000/svg" xmlns:xlink="http://www.w3.org/1999/xlink" width="26.352" height="26.352" viewBox="0 0 26.352 26.352">
  <defs>
    <path id="path-1" fill-rule="evenodd" d="M17.86365753 1.17615753h3.5625c2.06774902 0 3.75 1.68225097 3.75 3.75v3.5625c0 2.06774902-1.68225098 3.75-3.75 3.75h-3.5625c-2.06774903 0-3.75-1.68225098-3.75-3.75v-3.5625c0-2.06774903 1.68225097-3.75 3.75-3.75zm3.5625 9.1875c1.0338745 0 1.875-.8411255 1.875-1.875v-3.5625c0-1.03387451-.8411255-1.875-1.875-1.875h-3.5625c-1.03387451 0-1.875.84112549-1.875 1.875v3.5625c0 1.0338745.84112549 1.875 1.875 1.875h3.5625z"/>
    <path id="path-2" fill-rule="evenodd" d="M4.92615753 1.17615753h3.5625c2.06774902 0 3.75 1.68225097 3.75 3.75v3.5625c0 2.06774902-1.68225098 3.75-3.75 3.75h-3.5625c-2.06774903 0-3.75-1.68225098-3.75-3.75v-3.5625c0-2.06774903 1.68225097-3.75 3.75-3.75zm3.5625 9.1875c1.0338745 0 1.875-.8411255 1.875-1.875v-3.5625c0-1.03387451-.8411255-1.875-1.875-1.875h-3.5625c-1.03387451 0-1.875.84112549-1.875 1.875v3.5625c0 1.0338745.84112549 1.875 1.875 1.875h3.5625z"/>
    <path id="path-3" fill-rule="evenodd" d="M4.92615753 14.11365753h3.5625c2.06774902 0 3.75 1.68225097 3.75 3.75v3.5625c0 2.06774902-1.68225098 3.75-3.75 3.75h-3.5625c-2.06774903 0-3.75-1.68225098-3.75-3.75v-3.5625c0-2.06774903 1.68225097-3.75 3.75-3.75zm3.5625 9.1875c1.0338745 0 1.875-.8411255 1.875-1.875v-3.5625c0-1.03387451-.8411255-1.875-1.875-1.875h-3.5625c-1.03387451 0-1.875.84112549-1.875 1.875v3.5625c0 1.0338745.84112549 1.875 1.875 1.875h3.5625z"/>
    <path id="path-4" fill-rule="evenodd" d="M24.23865753 20.48865753c-.51778125 0-.9375.41971875-.9375.9375 0 1.033875-.841125 1.875-1.875 1.875h-3.5625c-1.033875 0-1.875-.841125-1.875-1.875v-3.5625c0-1.033875.841125-1.875 1.875-1.875h3.5625c.74554687 0 1.42035937.44151562 1.71914062 1.1248125.20742188.47442187.76021875.69075 1.23459375.483375.47442188-.20746875.69079688-.76021875.483375-1.23459375-.59732812-1.36598438-1.94648437-2.24859375-3.43710937-2.24859375h-3.5625c-2.06775 0-3.75 1.68225-3.75 3.75v3.5625c0 2.06775 1.68225 3.75 3.75 3.75h3.5625c2.06775 0 3.75-1.68225 3.75-3.75 0-.51778125-.41971875-.9375-.9375-.9375z"/>
  </defs>
  <g>
    <g>
      <use fill="rgb(131,0,81)" xlink:href="#path-1"/>
      <use fill-opacity="0" stroke="rgb(255,255,255)" stroke-linecap="butt" stroke-linejoin="miter" stroke-width=".5" xlink:href="#path-1"/>
    </g>
    <g>
      <use fill="rgb(131,0,81)" xlink:href="#path-2"/>
      <use fill-opacity="0" stroke="rgb(255,255,255)" stroke-linecap="butt" stroke-linejoin="miter" stroke-width=".5" xlink:href="#path-2"/>
    </g>
    <g>
      <use fill="rgb(131,0,81)" xlink:href="#path-3"/>
      <use fill-opacity="0" stroke="rgb(255,255,255)" stroke-linecap="butt" stroke-linejoin="miter" stroke-width=".5" xlink:href="#path-3"/>
    </g>
    <g>
      <use fill="rgb(131,0,81)" xlink:href="#path-4"/>
      <use fill-opacity="0" stroke="rgb(255,255,255)" stroke-linecap="butt" stroke-linejoin="miter" stroke-width=".5" xlink:href="#path-4"/>
    </g>
  </g>
</svg>
