<svg xmlns="http://www.w3.org/2000/svg" width="24.006" height="24" viewBox="0 0 24.006 24">
  <defs>
    <rect id="rect-1" width="24.006" height="24" x="0" y="0"/>
  </defs>
  <path fill="rgb(131,0,81)" fill-rule="evenodd" d="M22.13713837 1.9243164c-2.5102234-2.54345702-6.60760498-2.57000732-9.1510315-.05316161l-.0531311.05316162-5.3790512 5.37902832c-.10625459.05975341-.19258882.14611816-.25234986.25238037L1.88931274 12.9613037c-2.52350616 2.53015137-2.51686859 6.62756348.0066452 9.15106201 2.54342652 2.5168457 6.63416291 2.5168457 9.18423463 0l.00663757-.00665283 5.40562439-5.4255371c.0398407-.0265503.07304382-.05316163.10624695-.08636475.03320312-.03320313.05976867-.06640625.08633423-.10620118l5.39897918-5.41229248c2.54342652-2.51019287 2.56334687-6.60760498.05312348-9.15100097zm-6.01657105 13.24176026l5.02709198-5.04040527c2.00552368-2.00549317 2.00552368-5.26617432 0-7.27166748-2.00552368-2.0055542-5.26616669-2.0055542-7.27169037 0L8.84223938 7.88775635l7.27832794 7.27832031zm-5.97673034 6.0032959c-2.02544404 1.99884033-5.28607941 2.00549316-7.31153107 0-1.99887848-2.01220703-1.99887848-5.25952149 0-7.27166748l5.07357788-5.0736084 7.27832794 7.29162598-5.04037475 5.0536499z"/>
</svg>
