<svg xmlns="http://www.w3.org/2000/svg" width="23.992" height="16.414" viewBox="0 0 23.992 16.414">
  <g>
    <path fill="rgb(131,0,81)" fill-rule="evenodd" d="M2.4255066 16.41412354h19.13888549c1.33712769 0 2.4255066-1.13256836 2.4255066-2.52520752V2.52526855C23.98989868 1.13256835 22.90151977 0 21.56439208 0H2.42550659C1.08837891 0 0 1.13256836 0 2.52526855v11.36364747c0 1.39263916 1.0883789 2.52520752 2.4255066 2.52520752zM1.26261901 2.52526855c0-.69573974.52146911-1.26263427 1.16287231-1.26263427H21.5643921c.6414032 0 1.16287231.56689453 1.16287231 1.26263427v11.36364747c0 .6956787-.52146911 1.26263427-1.16287231 1.26263427H2.42549133c-.6414032 0-1.16287231-.56695556-1.16287231-1.26263427V2.52526855z"/>
    <path fill="rgb(131,0,81)" fill-rule="evenodd" d="M11.9949495 10.09469697c-.41666667 0-.83207071-.1010101-1.2108586-.3030303L.33459597 4.21843434c-.3080808-.16414141-.42424242-.54671717-.26010101-.85479798.16414141-.30681818.54671717-.4229798.85479798-.260101l10.44949495 5.57323232c.38636364.20580808.84848485.20580808 1.23484848 0l10.44949495-5.57323233c.30808081-.16161616.68939394-.04671717.85479798.26010101.16414142.30808081.0479798.68939394-.260101.85479798L13.20833332 9.79166667c-.38131313.2020202-.79671717.3030303-1.21338384.3030303z"/>
  </g>
</svg>
