<svg xmlns="http://www.w3.org/2000/svg" xmlns:xlink="http://www.w3.org/1999/xlink" width="16.939" height="25.411" viewBox="0 0 16.939 25.411">
  <defs>
    <path id="path-1" fill-rule="evenodd" d="M3.43128045.70569452h10.07617188c1.50289917 0 2.72558594 1.22271728 2.72558594 2.72558593v18.54882813c0 1.50292969-1.22268677 2.72558594-2.72558594 2.72558594H3.43128045c-1.50289917 0-2.72558593-1.22265625-2.72558593-2.72558594V3.43128045c0-1.50286865 1.22268676-2.72558593 2.72558593-2.72558593zM2.11194452 13.41467889V3.43128045c0-.72747802.5918579-1.31933593 1.31933593-1.31933593h1.1491089l.37115478 2.23620605c.05630493.3392334.34973144.5880127.69360351.5880127h5.6484375c.34387207 0 .63729859-.2487793.69360352-.5880127l.37115478-2.23620605h1.14910889c.72747803 0 1.31933594.5918579 1.31933594 1.31933593v9.98339844H2.11194452zm4.12927246-9.88476562h4.45635986l.23532105-1.41796875H6.0058654l.23535157 1.41796875zM3.43128045 23.29944452h10.07617188c.72747803 0 1.31933594-.59185791 1.31933594-1.31933594v-7.15917969H2.11194452v7.15917969c0 .72747803.5918579 1.31933594 1.31933593 1.31933594z"/>
    <path id="path-2" fill-rule="evenodd" d="M10.09035077 7.26613202L7.83936639 9.51711639l-.9256875-1.23426562c-.23301562-.31059375-.67364062-.37364063-.984375-.140625-.31064062.23301562-.37364062.67373437-.140625.984375l1.41210938 1.88282812c.12229687.16307813.30932812.26503125.51267187.27946875.0166875.00117188.03328125.00178125.049875.00178125.18576563 0 .36482813-.07364062.49710938-.20596875l2.82421875-2.82421875c.27459375-.27459375.27459375-.71976562 0-.99435937-.2745-.27459375-.71976563-.27459375-.9943125 0z"/>
    <path id="path-3" fill-rule="evenodd" d="M10.37863202 17.15089764c-.27454688-.27459375-.71976563-.27459375-.99435938 0l-.91490625.91495313-.91495312-.91495313c-.27454688-.27459375-.71976563-.27459375-.99435938 0-.27459375.27459375-.27459375.71976563 0 .99435938l.91495313.91495312-.91495313.91495313c-.27459375.27459375-.27459375.71976562 0 .99435937.13729688.13729688.31725.20596875.49715625.20596875.17990625 0 .35990625-.068625.49715625-.20596875l.915-.915.91495313.91495313c.13729687.13729687.31725.20596875.49715625.20596875.17990625 0 .35990625-.068625.49715625-.20596875.27459375-.27459375.27459375-.71976563 0-.99435938l-.91495313-.91495312.91495313-.91495313c.27459375-.27454687.27459375-.71971875 0-.9943125z"/>
  </defs>
  <g>
    <g>
      <use fill="rgb(117,117,117)" xlink:href="#path-1"/>
      <use fill-opacity="0" stroke="rgb(255,255,255)" stroke-linecap="butt" stroke-linejoin="miter" stroke-width=".3" xlink:href="#path-1"/>
    </g>
    <g>
      <use fill="rgb(117,117,117)" xlink:href="#path-2"/>
      <use fill-opacity="0" stroke="rgb(255,255,255)" stroke-linecap="butt" stroke-linejoin="miter" stroke-width=".5" xlink:href="#path-2"/>
    </g>
    <g>
      <use fill="rgb(117,117,117)" xlink:href="#path-3"/>
      <use fill-opacity="0" stroke="rgb(255,255,255)" stroke-linecap="butt" stroke-linejoin="miter" stroke-width=".5" xlink:href="#path-3"/>
    </g>
  </g>
</svg>
