<svg xmlns="http://www.w3.org/2000/svg" xmlns:xlink="http://www.w3.org/1999/xlink" width="25.398" height="25.398" viewBox="0 0 25.398 25.398">
  <defs>
    <path id="path-1" fill-rule="evenodd" d="M.70569452 12.69891961c0 6.61309815 5.3802948 11.99316407 11.99337768 11.99316407 6.61309815 0 11.99339295-5.38006592 11.99339295-11.99316407 0-6.61309814-5.3802948-11.9932251-11.99339295-11.9932251-6.61308288 0-11.99337768 5.38012696-11.99337768 11.9932251zm.93635559-.00006103c0-6.09674072 4.96005249-11.05682373 11.05703735-11.05682373 6.0969696 0 11.0570221 4.960083 11.0570221 11.05682373 0 6.09680176-4.9600525 11.05688476-11.0570221 11.05688476-6.09698486 0-11.05703735-4.960083-11.05703735-11.05688476z"/>
  </defs>
  <g>
    <g>
      <use fill="rgb(117,117,117)" xlink:href="#path-1"/>
      <use fill-opacity="0" stroke="rgb(117,117,117)" stroke-linecap="butt" stroke-linejoin="miter" stroke-width=".3" xlink:href="#path-1"/>
    </g>
    <path fill="rgb(117,117,117)" fill-rule="evenodd" d="M15.94965937 12.58222988l-.9574278 3.13284918-1.66922256-8.63221576c-.04826094-.24996137-.26446129-.43240071-.518751-.43824396-.25731954-.00411192-.4787139.16664091-.5382285.41443811l-1.65212564 6.86171016L9.3470001 9.4030675c-.05994744-.21446903-.24541662-.36985627-.46681097-.39236361-.22290928-.0231566-.43413205.09327563-.53563151.29129697L6.72359599 12.4625514H3.50612785c-.29887156 0-.54104193.24217037-.54104193.54104193 0 .29887156.24217037.54104193.54104193.54104193H7.0540644c.20299893 0 .38890094-.1136188.48152732-.2941104l1.1420313-2.22692857 1.45518637 5.18902493c.06643995.23719278.2954089.4014531.53108676.3949606.24628228-.00454475.4581543-.17486475.51593758-.41443811l1.55452167-6.45636154 1.60884227 8.3192771c.04717886.2439017.25450613.4243933.50251975.43759472.00973875.00043283.0192611.00064925.02878343.00064925.23675995 0 .44733347-.15452158.51723608-.38305769l1.47596238-4.83020592h3.43691475c.29887156 0 .54104193-.24217037.54104193-.54104193 0-.29887156-.24217037-.54104193-.54104193-.54104193h-3.83728577c-.23827487.00021642-.44819914.15560366-.51766892.3832741z"/>
  </g>
</svg>
