<svg xmlns="http://www.w3.org/2000/svg" width="41" height="41" viewBox="0 0 41 41">
  <g>
    <g>
      <path fill="rgb(117,117,117)" fill-rule="evenodd" d="M23.8421135 11.3518982l8.79116058 15.22290038c.48888016.8465271.48888016 1.8572693 0 2.7038269-.48892594.84643556-1.36449433 1.35186768-2.34221268 1.35186768H12.70882988c-.97776413 0-1.85328674-.5054016-2.3421688-1.35189819-.48888207-.8465271-.48888207-1.85726929 0-2.7038269l8.7911148-15.22286988C19.64661408 10.50543213 20.52222443 10 21.49994659 10c.97776032 0 1.8533287.50543213 2.3421669 1.3518982zm6.4489479 17.93148803c.49058914 0 .92992401-.25357056 1.17523956-.67834473.24526978-.42474365.24526978-.93188476.00004578-1.35662841l-8.79116058-15.22293091c-.2452736-.42474365-.68465042-.67831421-1.17519379-.67831421-.49059296 0-.92992401.25357056-1.1751976.6783142L11.53359032 27.2484131c-.24527169.42474365-.24527169.93188476 0 1.35662841.24527168.42477417.68460655.67834473 1.17523956.67834473H30.2910614z"/>
      <rect width="1.347" height="6.736" x="20.826" y="16.723" fill="rgb(117,117,117)" rx="0" ry="0"/>
      <path fill="rgb(117,117,117)" fill-rule="evenodd" d="M21.49994516 24.80582742c-.49535067 0-.8983425.40289096-.8983425.89811765 0 .4952267.40299183.89811766.8983425.89811766.49530575 0 .8983425-.40289097.8983425-.89811766s-.40299183-.89811765-.8983425-.89811765z"/>
    </g>
    <g opacity=".1">
      <path fill="rgb(158,176,172)" fill-rule="evenodd" d="M20.5 0C31.814258 0 41 9.185742 41 20.5S31.814258 41 20.5 41 0 31.814258 0 20.5 9.185742 0 20.5 0z"/>
    </g>
  </g>
</svg>
