<svg xmlns="http://www.w3.org/2000/svg" xmlns:xlink="http://www.w3.org/1999/xlink" width="41" height="41" viewBox="0 0 41 41">
  <defs>
    <path id="path-1" fill-rule="evenodd" d="M27.79245758 15.5173645h-6.21452331c-.47575379.00012207-.91181565-.26535034-1.12991333-.68814087l-.87504578-1.68640136c-.3643818-.70471192-1.09274483-1.14584351-1.88602066-1.14276123h-3.91222c-1.17279053.0005188-2.12336731.95108032-2.12389756 2.12387084v11.87698365c.00053025 1.17279052.95110703 2.12335205 2.12389756 2.12390136h14.01772308c1.17279053-.00054931 2.12336731-.95111084 2.12390137-2.12390136v-8.35964966c-.00053406-1.17279053-.95111084-2.12365723-2.12390137-2.12390137zM13.7747345 12.8539734h3.91222c.47575378-.00039673.91181564.26535034 1.12991333.68814087l.87504577 1.68624878c.05429268.10180664.11535454.199646.18265534.29321289h-7.37417221v-1.38916016c.00013351-.70431518.5700016-1.27590942 1.27433777-1.27844238zM27.79245758 27.2793579c.70288086-.00198364 1.27235031-.57131958 1.27434158-1.27435303V17.6454773c-.00199127-.70300292-.57146072-1.27233886-1.27434158-1.2743225h-6.21027374c-.09955979-.0006714-.19871903-.00784302-.29734802-.02124024-.03995514.01208496-.08150483.01779175-.1231842.0169983h-8.6612549v9.63809203c.00199128.70303345.57146073 1.27236939 1.27433778 1.27435303h14.01772308z"/>
    <path id="path-2" fill-rule="evenodd" d="M22.86173248 18.3085022c.66625214 0 1.18812561.18435669 1.56586075.55319214.37771988.36871337.56656265.88015747.5665474 1.53448486 0 .6572876-.34049988 1.32644653-1.02156067 2.00738525l-2.77922059 2.67669678c-.05351638.05352783-.11898422.0803833-.19629669.0803833s-.14273452-.02685547-.19628143-.0803833l-2.7836399-2.68554687c-.02973557-.02380372-.07064057-.0625-.12267304-.11602784-.05198479-.05355835-.1345768-.15090942-.24759293-.29217529-.11301613-.14126587-.2141571-.28625488-.30334473-.434906-.08920288-.14865113-.1688118-.32861329-.23867034-.53976441C17.03499985 20.80078125 17 20.5954895 17 20.39624023c0-.65429687.18885994-1.16577148.5665474-1.5345459.37768745-.36880493.89959335-.55319213 1.5657959-.55319213.18437576 0 .37251662.03198242.56431197.09588623.19181443.06396484.37026596.150177.53532791.25875854.16509629.10858155.30706406.2104187.42606354.30557251.11892319.09518433.23193741.19631958.33903122.30334473.10704804-.10702515.22009278-.2081604.3390007-.30334473.11904526-.0951538.260952-.197052.4260788-.3055725.16490555-.10852052.3433876-.19482423.5352478-.25875855.1917839-.06390381.3799553-.09588623.56432724-.09588623zm-1.86465454 6.16949463l2.58737564-2.49371338c.55913925-.559021.83864212-1.08843994.83867264-1.58810425 0-.24084473-.03196716-.45352173-.09581375-.63787842-.0639534-.18435669-.1457634-.33087158-.24538803-.4394226-.09960938-.10852051-.22078324-.19699097-.36354828-.2654419-.1427803-.0683899-.282547-.11450195-.41937637-.13827515-.13684464-.02374267-.28249741-.03564453-.4371376-.03564453-.15464402 0-.32126618.03790283-.49964143.11373902-.17850112.07583618-.3428154.17098999-.49301529.28549194-.15014266.1145935-.27878189.22158813-.38584518.3211975-.10704803.0996399-.1962967.19107057-.2676735.27435304-.05356216.0654602-.1264038.09817504-.21859359.09817504-.09215546 0-.1650772-.03271484-.21857834-.09817504-.07138824-.08328248-.16057586-.17468262-.2676239-.27435303-.10710907-.09960938-.23573303-.20663452-.38593674-.32119751-.15017318-.11450195-.31448364-.20965576-.4928913-.28549194-.17843629-.0758667-.34501458-.11373902-.49963952-.11373902-.15467262 0-.30037498.01190186-.43715668.03564453-.13678169.0237732-.27654647.06988526-.41937446.13827515-.1427517.06845093-.26392365.15686035-.36356354.2654419-.09962463.10855102-.18140602.25506591-.24535942.4394226-.06390572.1843567-.09587479.3970337-.09587479.63787842 0 .4996643.2780304 1.02758789.83418656 1.58361816l2.59179687 2.49819947z"/>
  </defs>
  <g>
    <g>
      <g>
        <use fill="rgb(117,117,117)" xlink:href="#path-1"/>
        <use fill-opacity="0" stroke="rgb(117,117,117)" stroke-linecap="butt" stroke-linejoin="miter" stroke-width=".2" xlink:href="#path-1"/>
      </g>
      <g>
        <use fill="rgb(117,117,117)" xlink:href="#path-2"/>
        <use fill-opacity="0" stroke="rgb(117,117,117)" stroke-linecap="butt" stroke-linejoin="miter" stroke-width=".4" xlink:href="#path-2"/>
      </g>
    </g>
    <g opacity=".1">
      <path fill="rgb(158,176,172)" fill-rule="evenodd" d="M20.5 0C31.814258 0 41 9.185742 41 20.5S31.814258 41 20.5 41 0 31.814258 0 20.5 9.185742 0 20.5 0z"/>
    </g>
  </g>
</svg>
