<svg xmlns="http://www.w3.org/2000/svg" xmlns:xlink="http://www.w3.org/1999/xlink" width="41" height="41" viewBox="0 0 41 41">
  <defs>
    <path id="path-1" fill-rule="evenodd" d="M24.4544375 17.46038733h-5.96039063c-.52532812 0-.95114062.42576562-.95114062.95114062 0 .52532813.42576562.95114063.95114062.95114063h5.96039063c.52565625 0 .95114062-.42576563.95114062-.95114063-.00004687-.525375-.4258125-.95114062-.95114062-.95114062z"/>
    <path id="path-2" fill-rule="evenodd" d="M26.73710937 20.85746558h-8.2430625c-.52532812 0-.95114062.42576562-.95114062.95114062 0 .52532813.42576562.95114063.95114062.95114063h8.2430625c.52532813 0 .95114063-.42576563.95114063-.95114063s-.4258125-.95114062-.95114063-.95114062z"/>
    <path id="path-3" fill-rule="evenodd" d="M31.04885864 9.5h-16.8348732c-.52532959 0-.95114135.425766-.95114135.95114136v8.97224426h-1.6802826C9.6070633 19.42338562 8 21.03077698 8 23.00595092v5.29458619c0 1.97549438 1.6070633 3.58255005 3.5825615 3.58255005.16167259 0 .3208599-.0107727.47653198-.03167725h15.69257736C30.09397125 31.85140991 32 29.9456482 32 27.60307312V10.45114136C32 9.92576599 31.574234 9.5 31.04885864 9.5zm-3.2971878 20.4491272c1.27195358 0 2.34609222-1.07441712 2.34609222-2.34609986v-16.2007904H15.1651249V28.3005371c0 .5940857-.1452198 1.154953-.40232849 1.64859009h12.98887444zm-14.48878098-1.64860535c0 .81510925-.58368683 1.4967804-1.3550148 1.64860535h-.32526588v.03167724c-.92671967 0-1.68032837-.75393676-1.68032837-1.68032837v-5.29452514c0-.9263916.75393677-1.68032837 1.68032837-1.68032837h1.68032837l-.00004769 6.9748993z"/>
    <path id="path-4" fill-rule="evenodd" d="M24.4544375 24.36954358h-5.96039063c-.52532812 0-.95114062.42576562-.95114062.95114062 0 .52532813.42576562.95114063.95114062.95114063h5.96039063c.52565625 0 .95114062-.42576563.95114062-.95114063-.00004687-.525375-.4258125-.95114062-.95114062-.95114062z"/>
  </defs>
  <g>
    <g>
      <g>
        <use fill="rgb(117,117,117)" xlink:href="#path-1"/>
        <use fill-opacity="0" stroke="rgb(255,255,255)" stroke-linecap="butt" stroke-linejoin="miter" stroke-width=".7" xlink:href="#path-1"/>
      </g>
      <g>
        <use fill="rgb(117,117,117)" xlink:href="#path-2"/>
        <use fill-opacity="0" stroke="rgb(255,255,255)" stroke-linecap="butt" stroke-linejoin="miter" stroke-width=".7" xlink:href="#path-2"/>
      </g>
      <g>
        <use fill="rgb(117,117,117)" xlink:href="#path-3"/>
        <use fill-opacity="0" stroke="rgb(255,255,255)" stroke-linecap="butt" stroke-linejoin="miter" stroke-width=".7" xlink:href="#path-3"/>
      </g>
      <g>
        <use fill="rgb(117,117,117)" xlink:href="#path-4"/>
        <use fill-opacity="0" stroke="rgb(255,255,255)" stroke-linecap="butt" stroke-linejoin="miter" stroke-width=".7" xlink:href="#path-4"/>
      </g>
    </g>
    <g opacity=".1">
      <path fill="rgb(158,176,172)" fill-rule="evenodd" d="M20.5 0C31.814258 0 41 9.185742 41 20.5S31.814258 41 20.5 41 0 31.814258 0 20.5 9.185742 0 20.5 0z"/>
    </g>
  </g>
</svg>
