<svg xmlns="http://www.w3.org/2000/svg" width="41" height="41" viewBox="0 0 41 41">
  <g>
    <g>
      <path fill="rgb(117,117,117)" fill-rule="evenodd" d="M20.51736832 21.33917236h-.14867401c-1.36129952-.02374267-2.4624176-.51217651-3.27083397-1.44638061-1.78873825-2.05810547-1.49139023-5.58630371-1.45886803-5.92297363.1161518-2.54656983 1.30554771-3.75582886 2.28122139-4.3201294C18.89124298 9.08535767 19.90408707 9 20.4197998 9h.07898331c.93850708.01898193 1.77944565.24658203 2.49958801.66864014.96638108.56433105 2.13719178 1.77359008 2.2533455 4.30117798.03252029.33666992.32986831 3.86486816-1.45886994 5.92297363-.81306076.9342041-1.91418076 1.42263794-3.27547836 1.44638061zm-3.6332283-7.28875732c0 .00949097-.0046463.02371216-.0046463.03793335-.0046463.0284729-.32057954 3.2673645 1.15222549 4.95559692.58075905.67337036 1.3659439 1.00534058 2.3880806 1.01483155h.0464592c1.02678298-.00949097 1.80732345-.34146119 2.3927269-1.01483155 1.47745132-1.69772339 1.15222549-4.9223938 1.147583-4.95559692-.0046463-.00949097-.0046463-.02371216-.0046463-.03793335-.14403153-3.21520996-2.276577-3.73684692-3.5310173-3.7652893h-.0557518c-1.0128441 0-3.37769318.36514281-3.5310135 3.7652893z"/>
      <path fill="rgb(117,117,117)" fill-rule="evenodd" d="M29.99070786 27.19101263v-.01422655c0-.03793746-.00464607-.07587492-.00464607-.11855456-.02787643-.93895217-.08827536-3.13458273-2.1046704-3.83642576-.01393822-.00474219-.0325225-.00948437-.04646072-.01422655-2.09537825-.545351-3.83765507-1.7783185-3.85623935-1.79254504-.28341037-.20391386-.67368037-.13278112-.87346145.15649203-.19978107.28927314-.13009.68761648.15332036.89153033.07898322.0569062 1.92811968 1.37049079 4.2418633 1.97749017 1.08253466.39360116 1.20333252 1.57440464 1.23585502 2.65562228 0 .04267964 0 .0806171.00464607.11855457.00464607.42679643-.02323036 1.08595982-.0975675 1.46533443-.75266359.4362808-3.702919 1.94429489-8.19102408 1.94429489-4.4695208 0-7.4383605-1.51275627-8.19567016-1.94903707-.07433714-.37937461-.10685964-1.038538-.0975675-1.46533444 0-.03793746.00464607-.07587492.00464607-.11855456.0325225-1.08121765.15332036-2.26202113 1.23585503-2.65562229 2.31374361-.60699937 4.16288007-1.92532615 4.24186329-1.97749016.28341036-.20391385.35310143-.6022572.15332036-.89153034-.19978108-.28927314-.59005108-.36040588-.87346145-.15649202-.01858428.01422654-1.75156896 1.24719403-3.85623935 1.79254504-.01858429.00474218-.0325225.00948436-.04646072.01422654-2.01639504.70658522-2.07679397 2.90221578-2.1046704 3.83642577 0 .04267964 0 .0806171-.00464607.11855456v.01422655c-.00464607.2465935-.00929214 1.51275626.23694965 2.14820874.04646072.12329675.13009.22762477.24159572.2987575C11.52721965 29.72808035 14.86774507 31.9 20.4569691 31.9c5.58922403 0 8.92974945-2.17666183 9.0691316-2.2667633.10685964-.07113274.195135-.17546076.24159571-.29875751.23230358-.6307103.2276575-1.89687306.22301144-2.14346656z"/>
    </g>
    <g opacity=".1">
      <path fill="rgb(158,176,172)" fill-rule="evenodd" d="M20.5 0C31.814258 0 41 9.185742 41 20.5S31.814258 41 20.5 41 0 31.814258 0 20.5 9.185742 0 20.5 0z"/>
    </g>
  </g>
</svg>
