<svg xmlns="http://www.w3.org/2000/svg" width="41" height="41" viewBox="0 0 41 41">
  <g>
    <g>
      <path fill="rgb(117,117,117)" fill-rule="evenodd" d="M11.42550468 28.41415405H30.5643921c1.33712387 0 2.4255066-1.13259887 2.4255066-2.52526855V14.52523804C32.98989868 13.13256836 31.90151595 12 30.56439208 12h-19.1388874C10.08838462 12 9 13.13256836 9 14.52523804V25.8888855c0 1.39266968 1.08838463 2.52526855 2.42550468 2.52526855zm-1.16287803-13.8888855c0-.69570922.5214653-1.26263427 1.16287803-1.26263427H30.5643921c.64141846 0 1.16287994.56692505 1.16287994 1.26263427V25.8888855c0 .69570923-.52146148 1.26263428-1.16287994 1.26263428h-19.1388874c-.64141274 0-1.16287804-.56692505-1.16287804-1.26263428V14.52526855z"/>
      <path fill="rgb(117,117,117)" fill-rule="evenodd" d="M20.9949495 22.09469697c-.41666667 0-.83207071-.1010101-1.2108586-.3030303L9.33459597 16.21843434c-.3080808-.16414141-.42424242-.54671717-.26010101-.85479798.16414141-.30681818.54671717-.4229798.85479798-.260101l10.44949495 5.57323232c.38636364.20580808.84848485.20580808 1.23484848 0l10.44949495-5.57323233c.30808081-.16161616.68939394-.04671717.85479798.26010101.16414142.30808081.0479798.68939394-.260101.85479798l-10.44949496 5.57323233c-.38131313.2020202-.79671717.3030303-1.21338384.3030303z"/>
    </g>
    <g opacity=".1">
      <path fill="rgb(158,176,172)" fill-rule="evenodd" d="M20.5 0C31.814258 0 41 9.185742 41 20.5S31.814258 41 20.5 41 0 31.814258 0 20.5 9.185742 0 20.5 0z"/>
    </g>
  </g>
</svg>
