<svg xmlns="http://www.w3.org/2000/svg" xmlns:xlink="http://www.w3.org/1999/xlink" width="41" height="41" viewBox="0 0 41 41">
  <defs>
    <path id="path-1" fill-rule="evenodd" d="M15.7431717 9h10.0761566c1.5029068 0 2.72559358 1.22268677 2.72559358 2.7256012v18.54881286C28.54492188 31.77731323 27.3222351 33 25.8193283 33H15.74317169c-1.5029068 0-2.72559357-1.22268677-2.72559357-2.72558594V11.7256012C13.01757813 10.22268677 14.2402649 9 15.7431717 9zm-1.31934357 12.70898438V11.7256012c0-.72750855.59184455-1.3193512 1.31934356-1.3193512h1.14909363l.3711567 2.23622131c.0562973.3392334.34973334.58799744.69360923.58799744h5.6484375c.34387589 0 .63731384-.24876404.69361115-.58799744l.37115478-2.23622131h1.14909363c.72750091 0 1.31934357.59184265 1.31934357 1.3193512v9.98338318H14.42382811zm4.12926483-9.88476563h4.45635986l.23531342-1.41796875h-4.92703248l.2353592 1.41796875zM15.74317169 31.59375h10.07615662c.72750091 0 1.31934357-.59184265 1.31934357-1.31933594v-7.15917969H14.42382811v7.1591797c0 .72749328.59184456 1.31933593 1.31934357 1.31933593z"/>
    <path id="path-2" fill-rule="evenodd" d="M22.40223438 15.5604375L20.15125 17.81142187l-.9256875-1.23426562c-.23301562-.31059375-.67364062-.37364063-.984375-.140625-.31064062.23301562-.37364062.67373437-.140625.984375l1.41210938 1.88282812c.12229687.16307813.30932812.26503125.51267187.27946875.0166875.00117188.03328125.00178125.049875.00178125.18576563 0 .36482813-.07364062.49710938-.20596875l2.82421875-2.82421875c.27459375-.27459375.27459375-.71976562 0-.99435937-.2745-.27459375-.71976563-.27459375-.9943125 0z"/>
    <path id="path-3" fill-rule="evenodd" d="M22.69051563 25.44520313c-.27454688-.27459375-.71976563-.27459375-.99435938 0l-.91490625.91495312-.91495312-.91495312c-.27454688-.27459375-.71976563-.27459375-.99435938 0-.27459375.27459375-.27459375.71976562 0 .99435937l.91495313.91495313-.91495313.91495312c-.27459375.27459375-.27459375.71976563 0 .99435938.13729688.13729687.31725.20596875.49715625.20596875.17990625 0 .35990625-.068625.49715625-.20596875l.915-.915.91495313.91495312c.13729687.13729688.31725.20596875.49715625.20596875.17990625 0 .35990625-.068625.49715625-.20596875.27459375-.27459375.27459375-.71976562 0-.99435937l-.91495313-.91495313.91495313-.91495312c.27459375-.27454688.27459375-.71971875 0-.9943125z"/>
  </defs>
  <g>
    <g>
      <g>
        <use fill="rgb(117,117,117)" xlink:href="#path-1"/>
        <use fill-opacity="0" stroke="rgb(255,255,255)" stroke-linecap="butt" stroke-linejoin="miter" stroke-width=".3" xlink:href="#path-1"/>
      </g>
      <g>
        <use fill="rgb(117,117,117)" xlink:href="#path-2"/>
        <use fill-opacity="0" stroke="rgb(255,255,255)" stroke-linecap="butt" stroke-linejoin="miter" stroke-width=".5" xlink:href="#path-2"/>
      </g>
      <g>
        <use fill="rgb(117,117,117)" xlink:href="#path-3"/>
        <use fill-opacity="0" stroke="rgb(255,255,255)" stroke-linecap="butt" stroke-linejoin="miter" stroke-width=".5" xlink:href="#path-3"/>
      </g>
    </g>
    <g opacity=".1">
      <path fill="rgb(158,176,172)" fill-rule="evenodd" d="M20.5 0C31.814258 0 41 9.185742 41 20.5S31.814258 41 20.5 41 0 31.814258 0 20.5 9.185742 0 20.5 0z"/>
    </g>
  </g>
</svg>
