<svg xmlns="http://www.w3.org/2000/svg" width="20" height="19.739" viewBox="0 0 20 19.739">
  <g>
    <path fill="rgb(151,0,82)" fill-rule="evenodd" d="M6.75840533 6.78824074c.50415956-.50504889.66843914-1.25882703.42040667-1.92898813L5.83457393 1.22988198C5.65396846.74806468 5.282033.36319992 4.80768565.16729682 4.47973049.03314672 4.11940945 0 3.77261825.07207868L6.4312406 7.1264293l.32716473-.33818855z"/>
    <path fill="rgb(151,0,82)" fill-rule="evenodd" d="M11.9758648 14.60803025c-.44241232.46357002-1.1573101.52971656-1.67671922.1551399-1.89895204-1.39080426-3.5700108-3.0704888-4.952865-4.97843105-.36482365-.5071803-.31304032-1.20425919.12268677-1.65154218l.50751428-.52903525L3.21602926.27975272C2.03859292.94031455 1.1167371 1.979099.59871145 3.22905244c-.00476895.01342996-.00872933.02713544-.01185972.0410423C0 5.15270506.45598583 7.50073507 1.93885996 10.23866694c.89854353 1.66039719 2.0297876 3.18284119 3.35916382 4.5208094 1.3313494 1.33605099 2.84868206 2.47132436 4.50464932 3.37039372 1.9588988 1.06709981 3.71536443 1.6039331 5.24608639 1.6039331.57495047.00563277 1.14735036-.07742072 1.69716701-.2462538.0142342-.00363269.02796917-.00900854.0408956-.0160065 1.24711702-.51959595 2.28410082-1.44466608 2.94448253-2.62670723l-7.26796439-2.74614033-.48747544.50933495z"/>
    <path fill="rgb(151,0,82)" fill-rule="evenodd" d="M19.83517943 15.2528048c-.1915275-.47853706-.57632627-.85308167-1.05878685-1.03057217L15.1636761 12.8731722c-.66919067-.24986613-1.4221124-.085175-1.92700024.42150442l-.32511995.33859898 7.01850129 2.65010135c.0699428-.34541865.03694335-.70386207-.09487777-1.03057217z"/>
  </g>
</svg>
