<svg xmlns="http://www.w3.org/2000/svg" xmlns:xlink="http://www.w3.org/1999/xlink" width="25" height="25" viewBox="0 0 25 25">
  <defs>
    <rect id="rect-1" width="25" height="25" x="0" y="0"/>
    <mask id="mask-2" maskContentUnits="userSpaceOnUse" maskUnits="userSpaceOnUse">
      <rect width="25" height="25" x="0" y="0" fill="black"/>
      <use fill="white" xlink:href="#rect-1"/>
    </mask>
  </defs>
  <g>
    <use fill="none" xlink:href="#rect-1"/>
    <g mask="url(#mask-2)">
      <path fill="rgb(158,176,172)" fill-rule="evenodd" d="M12.57506561 13.47070313h-.16566467c-1.51687622-.02587891-2.74383926-.55911255-3.6446457-1.57901001-1.99316787-2.24682618-1.6618347-6.09857178-1.62559508-6.4661255C7.2685852 2.6454773 8.59391022 1.32531739 9.6810913.70925904 10.76309586.09320068 11.8916931 0 12.46634674 0h.0880127c1.04576492.02072144 1.98281097.26919556 2.78525543.72994995 1.076828.61608887 2.38144302 1.93624878 2.51087189 4.69561768.03623962.3675537.36756897 4.21929931-1.6255951 6.46612549-.90598678 1.01989746-2.13294983 1.5531311-3.64982605 1.57901zm-4.0484581-7.9571228c0 .01034545-.00517654.0258789-.00517654.04141235-.00517654.03106689-.35721588 3.56698608 1.28390884 5.41000366.64713288.73513794 1.52205658 1.09753418 2.66100693 1.10791015h.05177307c1.1441269-.01037597 2.01387406-.37277221 2.66618347-1.10791015 1.64630127-1.85336304 1.28390885-5.3737793 1.2787323-5.41000366-.00517654-.01037598-.00517654-.02590943-.00517654-.04141236-.16048813-3.5100708-2.53675842-4.0795288-3.93456268-4.1105957h-.06212616c-1.12859726 0-3.76371765.3986206-3.93456269 4.1105957z"/>
      <path fill="rgb(158,176,172)" fill-rule="evenodd" d="M23.13108304 19.8591841v-.01553117c0-.04141644-.00517706-.08283288-.00517706-.12942638-.03106233-1.02505695-.09836405-3.42203355-2.34520604-4.18823773-.01553117-.00517706-.03623939-.01035411-.05177056-.01553117-2.33485193-.59536136-4.27624767-1.94139573-4.29695589-1.9569269-.31580037-.22261338-.75067301-.14495755-.9732864.17084283-.22261337.31580037-.14495754.75067301.17084283.9732864.08800994.06212465 2.14847795 1.49616897 4.72665148 2.15883205 1.20625389.42969559 1.34085732 1.71878235 1.37709671 2.89915096 0 .0465935 0 .08800994.00517706.12942638.00517705.46593498-.02588528 1.18554566-.10871816 1.59971009-.83868296.47628908-4.12611307 2.12259267-9.12714848 2.12259267-4.9803272 0-8.28846552-1.65148064-9.13232554-2.12776973-.08283288-.41416442-.11907227-1.1337751-.10871816-1.59971008 0-.04141645.00517706-.08283289.00517706-.12942639.03623939-1.1803686.17084282-2.46945537 1.3770967-2.89915096 2.57817354-.66266308 4.63864155-2.10188445 4.72665149-2.15883205.31580037-.22261338.3934562-.65748603.17084282-.9732864-.22261338-.31580037-.65748602-.3934562-.9732864-.17084282-.02070821.01553116-1.95174984 1.36156554-4.29695588 1.9569269-.02070823.00517705-.0362394.0103541-.05177056.01553116-2.246842.77138124-2.31414371 3.16835784-2.34520604 4.18823773 0 .0465935 0 .08800994-.00517706.12942638v.01553117c-.00517706.26920688-.01035411 1.65148064.26402982 2.34520605.05177055.13460344.14495755.24849865.26920688.32615448C2.5574653 22.62890867 6.27976806 25 12.50776558 25c6.22799752 0 9.95030027-2.37626838 10.10561193-2.47463243.11907227-.07765583.21743632-.19155104.26920688-.32615448.25885276-.68854836.2536757-2.07082212.24849865-2.340029z"/>
    </g>
  </g>
</svg>
