<svg xmlns="http://www.w3.org/2000/svg" width="19.671" height="24" viewBox="0 0 19.671 24">
  <g>
    <path fill="rgb(227,55,55)" fill-rule="evenodd" d="M13.1817518 8.6953095c-.31328812 0-.56719747.25160934-.56719747.56205958v10.6229261c0 .31023048.25390935.56205959.56719747.56205959s.56719747-.25182911.56719747-.56205959V9.25736908c0-.31045024-.25390935-.56205958-.56719747-.56205958z"/>
    <path fill="rgb(227,55,55)" fill-rule="evenodd" d="M6.48882164 8.6953095c-.31328812 0-.56719747.25160934-.56719747.56205958v10.6229261c0 .31023048.25390935.56205959.56719747.56205959s.56719747-.25182911.56719747-.56205959V9.25736908c0-.31045024-.25390935-.56205958-.56719747-.56205958z"/>
    <path fill="rgb(227,55,55)" fill-rule="evenodd" d="M1.6109314 7.14501953v13.84796143c0 .81851196.3028717 1.58718872.83197021 2.13870239.52664185.55303955 1.25956726.8670044 2.02661133.86831665h10.73155212c.76727295-.00131226 1.50019837-.3152771 2.02662659-.86831665.52909851-.55151367.83197022-1.32019043.83197022-2.1387024V7.14501954c1.05174255-.27661133 1.73327636-1.2835083 1.59257507-2.3529663-.14091492-1.06921387-1.0601654-1.86904908-2.14848328-1.8692627H14.5997467v-.70257569c.00332642-.5908203-.23240661-1.1581726-.65447998-1.575531-.42208862-.41714478-.9954834-.64944458-1.59170532-.6446228H7.31703186c-.59622192-.00482178-1.16963196.22747802-1.59170532.6446228-.42207337.4173584-.65782166.9847107-.65449524 1.575531v.70257569H2.16682434c-1.08830261.00021362-2.00756836.80004883-2.14848328 1.8692627-.14068603 1.069458.54083252 2.07635497 1.59259034 2.3529663zM6.52716064 1.4392395c-.20959472.206604-.32569885.48831177-.32192993.78097534v.70257569h7.26013184v-.70257569c.00375366-.29266357-.1123352-.57458496-.32192993-.78097534-.2093811-.206604-.49430847-.32009888-.78987122-.31506347H7.3170166c-.29556274-.0050354-.58049011.10845947-.78985596.31506347zM2.16680908 4.04690552H17.5037384c.5638733 0 1.02096558.4529419 1.02096558 1.01171875 0 .55874634-.45709229 1.01168823-1.02096558 1.01168823H2.16680908c-.56387329 0-1.02095032-.4529419-1.02095032-1.01168823 0-.55877686.45707703-1.01171875 1.02095032-1.01171875zM15.20106506 22.875885H4.46951294c-.9697876 0-1.72419739-.825531-1.72419739-1.88290405V7.19442749H16.9252472v13.79855347c0 1.05737304-.75440979 1.88290405-1.72418213 1.88290405z"/>
    <path fill="rgb(227,55,55)" fill-rule="evenodd" d="M9.83528137 8.6953125c-.31329345 0-.5671997.25161743-.5671997.56207275v10.6229248c0 .31021119.25390625.56204224.5671997.56204224.3132782 0 .5671997-.25183105.5671997-.56204223V9.25738526c0-.31045533-.2539215-.56207276-.5671997-.56207276z"/>
  </g>
</svg>
