<svg xmlns="http://www.w3.org/2000/svg" width="19.966" height="20" viewBox="0 0 19.966 20">
  <path fill="rgb(51,51,51)" fill-rule="evenodd" d="M18.27160645.89859009c-1.19621277-1.19812012-3.13555909-1.19812012-4.33177186 0L1.79641724 13.06158447c-.08322144.0833435-.14331055.18667603-.17468262.30014038L.0248413 19.13613892c-.06567383.23675537.00106811.4902954.17442322.66418457.1736145.17364502.42674255.24047851.6631012.17495727l5.76515197-1.59973144c.113266-.0314331.21643066-.09161377.2996521-.17495728L19.0703125 6.03735352c1.1943512-1.1989441 1.1943512-3.13980103 0-4.33874512l-.79870605-.80001831zm-.1638031 4.17471313l-.7218628.72305298-3.20549011-3.21066284.72213745-.72302246c.66444397-.66552735 1.74180603-.66552735 2.40625 0l.79896545.7999878c.66339112.6663208.66339112 1.74459838 0 2.41064452zM3.2795105 13.50469971l9.93844604-9.95471192L16.423172 6.76037598l-9.93870545 9.95471191-3.20495605-3.21038818zm1.92048645 3.85195923l-2.56072998-2.56512452-.98136902 3.54806519 3.542099-.98294067z"/>
</svg>
