<svg xmlns="http://www.w3.org/2000/svg" width="20" height="20" viewBox="0 0 20 20">
  <g>
    <path fill="rgb(151,0,82)" fill-rule="evenodd" d="M11.8578415.6595459l7.99959945 6.54626465c.08761597.06964111.1398201.17422485.14255905.28567505v10.45480346C19.99269867 19.08026123 19.06487274 19.99673462 17.92056274 20H2.07943726C.93512726 19.99673462.00730133 19.08026123 0 17.94628906V7.4914856c.00292206-.1116333.0554924-.21621705.14347076-.28567505L8.14763641.6595459c1.0775032-.87939453 2.63270188-.87939453 3.71020508 0zm-.4795189.57150268c-.80059814-.65380859-1.95622635-.65380859-2.7566452 0L.91705704 7.54556274 4.48598099 11.597229V6.87509155c-.00310135-.09442138.0335884-.18615722.1011238-.25289917.06772233-.06658935.16026688-.10256958.2557335-.0991516H8.5048561c.14365387-.00271607.28639603.01956176.42220306.06585693l.91632462.32220458c.10733414.03942872.22525024.04034424.33294678.00234986l.91650772-.32580567c.13580703-.04595947.2787323-.06784057.42201996-.06478881h3.66220092c.2064476 0 .38368988.14764404.38368988.35223388v4.77026367l3.53533554-4.10015869-7.71776199-6.31414795zm-6.1446762 11.2168274l1.38325118 1.5838623 2.03343964-1.64212036c.28165054-.22866821.61751556-.3826294.9758339-.44720459V7.62008667c0-.00506592-.0273819-.0046997-.04326249-.01049805l-.91139603-.32580566c-.05403137-.01629639-.11025238-.02297974-.16665649-.01989746H5.23364639v5.18399048zm5.1401863-4.82778931c.01880265.0001831.03723526-.00506592.05311585-.01501465l.91906738-.32128906c.05475998-.01629639.1118927-.02297974.16884232-.01989746h3.2982254v5.24731445l-1.37540054 1.58712769-2.14460373-1.70889283c-.26558686-.21762085-.58137513-.36669921-.91924668-.43362426V7.62008667zM.92819214 18.5930481c-.11609268-.19628907-.1783371-.41915894-.18052673-.64675904V8.50637817l5.26942062 5.99249268-5.0888939 4.09417725zm13.0968895-4.02905274l5.04289627 4.0357666c.11864852-.197937.18217086-.42333984.1843605-.6534729v-9.432312l-5.22725678 6.0500183zM2.07944106 19.2590027c-.20882034-.00091553-.41435623-.0512085-.59962845-.14672852l7.64420319-6.14733887c.00146103-.00109863.00273895-.00308227.00419617-.00415039.48901367-.40579223 1.20126342-.40597534 1.6904602-.0003662.00182343.00125121.00328445.00253295.0051117.00378417l7.68855667 6.1520691c-.18326569.09298705-.38587952.14181518-.5917778.1427307H2.07944106z"/>
    <path fill="rgb(151,0,82)" fill-rule="evenodd" d="M11.35094452 9.07006836h1.10123444c.20644378 0 .37382888-.16589356.37382888-.3704834 0-.20462036-.1673851-.37051392-.37382888-.37051392h-1.10123444c-.2064476 0-.3738327.16589356-.3738327.37051392 0 .20458984.1673851.3704834.3738327.3704834z"/>
    <g>
      <path fill="rgb(151,0,82)" fill-rule="evenodd" d="M11.35094452 10.41317749h2.60805893c.2064476 0 .3738327-.16589355.3738327-.3704834 0-.20462036-.1673851-.37051391-.3738327-.37051391h-2.60805893c-.2064476 0-.3738327.16589355-.3738327.37051391 0 .20458985.1673851.3704834.3738327.3704834z"/>
      <path fill="rgb(151,0,82)" fill-rule="evenodd" d="M13.95900345 11.7562561c.2064476 0 .3738327-.16589355.3738327-.3704834 0-.20462036-.1673851-.37051391-.3738327-.37051391h-2.60805893c-.2064476 0-.3738327.16589355-.3738327.37051392 0 .20458984.1673851.3704834.3738327.3704834h2.60805893z"/>
    </g>
  </g>
</svg>
