<svg xmlns="http://www.w3.org/2000/svg" width="18.988" height="18" viewBox="0 0 18.988 18">
  <g>
    <path fill="rgb(131,0,81)" fill-rule="evenodd" d="M12.7699034 7.04348783c.22738644 0 .41194483-.17531681.41194483-.3913171V1.95651216C13.1818096.87808815 12.25828392 0 11.12216272 0H2.05964689C.92356431 0 0 .87808815 0 1.95651217v14.08697566C0 17.12191185.92356431 18 2.05964689 18h9.06251583c1.1361212 0 2.05964689-.87808815 2.05964689-1.95651217v-4.69565855c0-.2160003-.18455839-.39131711-.41194483-.39131711-.22738643 0-.4119062.17531681-.4119062.3913171v4.69565856c0 .6472305-.55444754 1.17391464-1.23579586 1.17391464H2.05964689c-.68134832 0-1.23579586-.52668414-1.23579586-1.17391464V1.95651217c0-.6472305.55444754-1.17391464 1.23579586-1.17391464h9.06251583c.68134832 0 1.23579586.52668414 1.23579586 1.17391464v4.69565855c0 .2160003.18455838.39131711.41194482.39131711z"/>
    <path fill="rgb(131,0,81)" fill-rule="evenodd" d="M18.53693787 8.60871958H5.35512826c-.22738644 0-.41194483.17531681-.41194483.3913171 0 .2160003.18455839.39128043.41194483.39128043h13.1818096c.22738644 0 .41194483-.17531682.41194483-.39131711 0-.2160003-.18455839-.39128042-.41194482-.39128042z"/>
    <path fill="rgb(131,0,81)" fill-rule="evenodd" d="M18.8277747 8.7245336l-2.47159172-2.34782928c-.16065346-.1526089-.4218312-.1526089-.58248465 0-.16065346.1526089-.16065346.40070842 0 .55331732l2.17994389 2.07078543-2.1799439 2.07078542c-.16065345.1526089-.16065345.40070842 0 .55331733.08075154.07590091.18618038.11427325.29164783.11427325.10546745 0 .21089629-.03833565.29083683-.11346619l2.47159172-2.34782927c.16065346-.1526456.16065346-.40074511 0-.55335402z"/>
  </g>
</svg>
