<svg xmlns="http://www.w3.org/2000/svg" width="24.708" height="24.484" viewBox="0 0 24.708 24.484">
  <g>
    <ellipse cx="12.354" cy="12.242" fill="rgb(202,208,217)" rx="12.354" ry="12.242"/>
    <path fill="rgb(88,89,91)" fill-rule="evenodd" d="M18.5311035 10.60676172v5.26156616c0 .7014389-.61166382 1.27014924-1.36607361 1.27014924H7.54305876c-.75441742 0-1.36608124-.56871033-1.36608124-1.27014924v-5.26156616c0-.7014389.61166382-1.27014923 1.36608124-1.27014923h1.68027496v-.43946838c0-.61379242.53482056-1.1113739 1.19532013-1.1113739h3.87078095c.66049194 0 1.1953125.49758148 1.1953125 1.1113739v.43915558h1.68028259c.75440979.0003128 1.3660736.56902313 1.3660736 1.27046203zm-6.177063-.1746521c1.6635437 0 3.01698304 1.25839234 3.01698304 2.80511475 0 1.54671478-1.35343933 2.80510712-3.01698303 2.80510712-1.66320038 0-3.01663971-1.25839234-3.01663971-2.80510712 0-1.54672241 1.35343933-2.80511475 3.0166397-2.80511475zm1.99243165 2.80511475c0 1.0215149-.89376068 1.85250854-1.99243164 1.85250854-1.09866333 0-1.99208069-.83099365-1.99208069-1.85250854 0-1.02150726.89341736-1.85250092 1.99208069-1.85250092 1.09867096 0 1.99243164.83130646 1.99243164 1.85250092z"/>
  </g>
</svg>
