<svg xmlns="http://www.w3.org/2000/svg" xmlns:xlink="http://www.w3.org/1999/xlink" width="16.705" height="16.705" viewBox="0 0 16.705 16.705">
  <defs>
    <path id="path-1" fill-rule="evenodd" d="M13.17353756 7.17353751H9.5310926V3.53109255c0-.64821593-.53056157-1.1787775-1.1787776-1.1787775-.64821592 0-1.17877749.53056157-1.17877749 1.1787775V7.1735375H3.53109255c-.64821593 0-1.1787775.53056157-1.1787775 1.1787776 0 .64821592.53056157 1.17877749 1.1787775 1.17877749H7.1735375v3.64244496c0 .64821593.53056157 1.1787775 1.1787775 1.1787775.64821602 0 1.17877759-.53056157 1.17877759-1.1787775V9.5310926h3.64244496c.64821593 0 1.1787775-.53056157 1.1787775-1.1787775 0-.64821602-.53056157-1.17877759-1.1787775-1.17877759z"/>
  </defs>
  <g>
    <use fill="rgb(117,117,117)" xlink:href="#path-1"/>
    <use fill-opacity="0" stroke="rgb(247,247,247)" stroke-linecap="butt" stroke-linejoin="miter" stroke-width="1" xlink:href="#path-1"/>
  </g>
</svg>
