<svg xmlns="http://www.w3.org/2000/svg" xmlns:xlink="http://www.w3.org/1999/xlink" width="21.673" height="21.673" viewBox="0 0 21.673 21.673">
  <defs>
    <path id="path-1" fill-rule="evenodd" d="M15.65752659 9.65752654h-3.64244497V6.01508157c0-.64821592-.53056157-1.17877749-1.17877759-1.17877749-.64821592 0-1.1787775.53056157-1.1787775 1.1787775v3.64244496H6.01508158c-.64821592 0-1.17877749.53056157-1.17877749 1.17877759 0 .64821592.53056157 1.1787775 1.1787775 1.1787775h3.64244496v3.64244496c0 .64821592.53056157 1.17877749 1.1787775 1.17877749.64821601 0 1.17877758-.53056157 1.17877758-1.1787775v-3.64244496h3.64244497c.64821592 0 1.17877749-.53056157 1.17877749-1.1787775 0-.64821601-.53056157-1.17877758-1.1787775-1.17877758z"/>
  </defs>
  <g transform="rotate(46.000016 10.83630408 10.83630408)">
    <use fill="rgb(117,117,117)" xlink:href="#path-1"/>
    <use fill-opacity="0" stroke="rgb(247,247,247)" stroke-linecap="butt" stroke-linejoin="miter" stroke-width="1" xlink:href="#path-1"/>
  </g>
</svg>
