<svg xmlns="http://www.w3.org/2000/svg" width="15.971" height="13.998" viewBox="0 0 15.971 13.998">
  <g>
    <path fill="rgb(131,0,81)" fill-rule="evenodd" d="M6.45898438 6.56994629c0-.89978027.72943115-1.6291504 1.6291809-1.6291504.89978028 0 1.62918091.72937013 1.62918091 1.6291504 0 .8998413-.72943115 1.62921142-1.6291809 1.62921142-.89979554 0-1.62918091-.72943115-1.62918091-1.62921142zm.7758026 0c0 .47131348.38206483.85339355.8533783.85339355.47131348 0 .85339356-.38208007.85339356-.85339355 0-.47131348-.38208008-.85339356-.85339356-.85339356-.47131347 0-.8533783.38208008-.8533783.85339356z"/>
    <path fill="rgb(131,0,81)" fill-rule="evenodd" d="M3.99588013.01446533l10.58958435 1.20245362c.85417175.10137939 1.46800232.8708496 1.37704468 1.72619628l-.8921814 7.87432862c-.04699707.40802002-.24819946.78271484-.56243897 1.04730224-.2214508.15350342-.47242736.25915528-.73701477.31030274v.31030273c0 .85339356-.77578735 1.51281739-1.62916565 1.51281739H1.49394227c-.0195923.00024414-.03923036.00012207-.0588379-.00036622-.81381226-.02148437-1.45606995-.69866943-1.43458557-1.51245117V4.55285645c0-.85333252.64004516-1.60974122 1.49342346-1.60974122h.60128784l.19392395-1.59039306c.04251099-.39868164.24560547-.76281738.56245423-1.00848389.31687927-.26818848.73329162-.3881836 1.14427185-.32977295zm11.19078064 2.83166504l.0007782-.00775146c.04051208-.42651368-.27244568-.80511475-.69891358-.8456421L3.9183197.77087403c-.20610046-.01727295-.41175842.03759766-.5818634.15515137-.15065003.13085938-.25306702.30841065-.29093933.5043335l-.17454529 1.51275634h9.27067566c.88386536.02001954 1.59855652.7261963 1.6291809 1.60980225v6.84631348c0-.03875733.17456055-.07757569.2521515-.15515137.1605835-.12609863.25369262-.319458.25213623-.52368164l.9115448-7.87426758zm-2.1915741 4.9650879l-4.22808838 2.46313476c-.36305237.21508789-.82260132.17614746-1.14431763-.09692383L5.48927307 8.29608154c-.6114502-.52539062-1.50515747-.55761718-2.15284729-.07757568L.77632141 10.0803833V4.55291748c0-.42669678.29093933-.83398437.71762085-.83398437h10.64776611c.45587159.0189209.82402039.3786621.8533783.83398437v3.25830078zm-.85339355 5.4111328c.42669677 0 .8533783-.31030273.8533783-.7369995l.00004577-3.76257325-3.82077027 2.21099854c-.2809143.16888427-.60325622.25616455-.93096923.25213623-.41915894-.00646973-.82327271-.15716553-1.14431763-.42669678l-2.1140442-1.86187744c-.33268737-.31085205-.84135436-.33544922-1.20248412-.05822754L.77630615 11.0501709v1.43518066c-.00111389.01983643-.00137329.03973389-.0007782.05957032.01132203.385437.33296204.68878173.71841431.6774292h10.64775086z"/>
  </g>
</svg>
