<svg xmlns="http://www.w3.org/2000/svg" width="13.446" height="15.895" viewBox="0 0 13.446 15.895">
  <g>
    <path fill="rgb(131,0,81)" fill-rule="evenodd" d="M6.72286987 0c1.79571534 0 3.4840088.69927979 4.75375367 1.96905518 1.2698059 1.26983642 1.96905517 2.95806884 1.96908569 4.75378418 0 3.63269043-3.43478394 6.65411376-5.28009033 8.27740478-.25643921.22558594-.47787476.42034912-.6543274.58520508-.22106933.20648193-.50473022.30969238-.78845214.30969238-.2836609 0-.56738282-.10321045-.78842164-.30969238-.17642211-.16479492-.39788818-.35961914-.65432739-.58520508C3.43478393 13.37701416 0 10.3555298 0 6.72283936 0 4.92712402.6993103 3.2388916 1.9690857 1.96905518 3.23883056.69927978 4.92715453 0 6.72286986 0zm.15280152 14.9050293c.18655395-.17425537.41287231-.37335205.67489624-.60388184 1.73483276-1.52606201 4.96398925-4.36663818 4.96395874-7.57824707 0-3.19360352-2.59817505-5.79174805-5.79174805-5.79174805-3.19360352 0-5.79174805 2.59814453-5.79174805 5.79174805 0 3.21160889 3.22918702 6.05218506 4.96398926 7.57824707.26205444.23052979.4883728.42956543.67492676.60388184.0857544.08001709.22000122.08001709.3057251 0z"/>
    <path fill="rgb(131,0,81)" fill-rule="evenodd" d="M3.76016235 6.46887207c0-1.63360596 1.32904053-2.96264648 2.962677-2.96264648 1.63363648 0 2.962677 1.32904052 2.962677 2.96264648 0 1.633667-1.32904052 2.96264648-2.962677 2.96264648-1.63363647 0-2.962677-1.32897949-2.962677-2.96264648zm.93112183-.00006103c0 1.12017822.91137695 2.03155517 2.0315857 2.03155517 1.12020873 0 2.03152465-.91137695 2.03152465-2.03155517 0-1.12017823-.91131592-2.03155518-2.03152466-2.03155518-1.12020874 0-2.03158569.91137695-2.03158569 2.03155518z"/>
  </g>
</svg>
