<svg xmlns="http://www.w3.org/2000/svg" xmlns:xlink="http://www.w3.org/1999/xlink" width="10.005" height="16" viewBox="0 0 10.005 16">
  <defs>
    <path id="path-2" fill-rule="evenodd" d="M4.97118378 0c1.65574507 0 3 1.34425493 3 3v5c0 1.65574507-1.34425493 3-3 3-1.65574508 0-3-1.34425493-3-3V3c0-1.65574507 1.34425492-3 3-3z"/>
    <mask id="mask-3" x="0" y="0" maskContentUnits="userSpaceOnUse" maskUnits="userSpaceOnUse">
      <rect width="10.005" height="16" x="0" y="0" fill="black"/>
      <use fill="white" xlink:href="#path-2"/>
    </mask>
  </defs>
  <g>
    <path fill="rgb(117,117,117)" fill-rule="evenodd" d="M8.83699799 7.92211914c0-.32250977.26140594-.58392334.5839386-.58392334.32253265 0 .5839386.26141357.5839386.58392334v.46716309c0 2.56085205-1.93424988 4.6784668-4.41850281 4.9685669v1.47430419h.95378112c.32252503 0 .58393097.26141357.58393097.58392334 0 .3225708-.26140594.58392334-.58393097.58392334H3.46471405c-.32253265 0-.5839386-.26135254-.5839386-.58392334 0-.32250977.26140595-.58392334.5839386-.58392334h.95378113v-1.4743042C1.93424988 13.06774902 0 10.95013428 0 8.38928222v-.46716308c0-.32250977.26140594-.58392334.5839386-.58392334.32253265 0 .5839386.26141357.5839386.58392334v.46716309c0 2.11431884 1.72012329 3.83459472 3.83455658 3.83459472 2.11428833 0 3.8345642-1.72033691 3.8345642-3.83459472v-.46716309z"/>
    <use fill-opacity="0" stroke="rgb(117,117,117)" stroke-linecap="butt" stroke-linejoin="miter" stroke-width="2" mask="url(#mask-3)" xlink:href="#path-2"/>
  </g>
</svg>
