<svg xmlns="http://www.w3.org/2000/svg" width="15.942" height="12.191" viewBox="0 0 15.942 12.191">
  <g>
    <path fill="rgb(131,0,81)" fill-rule="evenodd" d="M4.68868637 7.03308105c0-1.80987548 1.47228623-3.28210449 3.28211594-3.28210449 1.80987167 0 3.28211212 1.47229004 3.28211212 3.2821045 0 1.80981445-1.47224045 3.28210449-3.28211212 3.28210449-1.8098755 0-3.28211594-1.472229-3.28211594-3.2821045zm.93777084.00006104c0 1.2921753 1.0511818 2.34429932 2.34434128 2.34429932 1.2931633 0 2.34434128-1.05212403 2.34434128-2.34429932 0-1.29223633-1.05122375-2.34436035-2.34434128-2.34436035-1.29311752 0-2.34434128 1.05212402-2.34434128 2.34436035z"/>
    <path fill="rgb(131,0,81)" fill-rule="evenodd" d="M10.60490417 1.87548828h2.99234772c1.2931633 0 2.34438706 1.05218506 2.3443451 2.34436035v5.62646485c0 1.29217529-1.0511818 2.34429931-2.3443451 2.34429931H2.34434128C1.05122375 12.1906128 0 11.13848877 0 9.84631348V4.21984863c0-1.29217529 1.05122375-2.34436035 2.34434128-2.34442138H5.3366928l.54858017-1.0980835C6.12439728.29821777 6.60730743 0 7.14370728 0h1.65417861c.5363617 0 1.01931382.29821777 1.25843812.77832031l.54858016 1.09716797zm2.99235154 9.3774414c.77552795 0 1.4066124-.6311035 1.4066124-1.4066162V4.2197876c0-.7755127-.63108445-1.40661621-1.4066124-1.40661621h-3.28211594c-.17723083 0-.33947754-.1003418-.41917038-.25878907l-.6789093-1.35687255c-.07969284-.16131592-.24004746-.25976563-.41917038-.25976563H7.14371109c-.17912674 0-.33947754.0984497-.41917038.25878906l-.67891312 1.35791016c-.07969284.15844726-.24193573.25878906-.41917038.25878906H2.34434128c-.77552796 0-1.4066124.63110352-1.4066124 1.40661621v5.62646485c0 .7755127.63108444 1.4066162 1.4066124 1.4066162H13.5972557z"/>
  </g>
</svg>
