<svg xmlns="http://www.w3.org/2000/svg" xmlns:xlink="http://www.w3.org/1999/xlink" width="14.797" height="18.352" viewBox="0 0 14.797 18.352">
  <defs>
    <path id="path-1" fill-rule="evenodd" d="M13.5290628 5.20148712l-4.12490845-3.9432373c-.05516052-.05267335-.12846374-.0820923-.20474243-.0820923H1.47243743c-.16362 0-.2962799.1326294-.2962799.2963257v15.40740966c0 .16363525.1326599.29626465.2962799.29626465h11.85188294c.16362 0 .2962799-.1326294.2962799-.29626465V5.41565948c0-.08087158-.0330963-.15826416-.09153747-.21417236zM1.76874786 1.76874786V16.5835672H13.0280252V5.91688018H9.17618804c-.16366577 0-.29631042-.13269043-.29631042-.29626464V1.76874786H1.76874786zm7.70368957.37463379l3.3274994 3.1809082h-3.3274994v-3.1809082z"/>
  </defs>
  <g>
    <use fill="rgb(131,0,81)" xlink:href="#path-1"/>
    <use fill-opacity="0" stroke="rgb(131,0,81)" stroke-linecap="butt" stroke-linejoin="miter" stroke-width=".5" xlink:href="#path-1"/>
  </g>
</svg>
