<svg xmlns="http://www.w3.org/2000/svg" xmlns:xlink="http://www.w3.org/1999/xlink" width="23" height="23" viewBox="0 0 23 23">
  <defs>
    <rect id="rect-1" width="23" height="23" x="0" y="0"/>
    <mask id="mask-2" maskContentUnits="userSpaceOnUse" maskUnits="userSpaceOnUse">
      <rect width="23" height="23" x="0" y="0" fill="black"/>
      <use fill="white" xlink:href="#rect-1"/>
    </mask>
  </defs>
  <g>
    <use fill="none" xlink:href="#rect-1"/>
    <g mask="url(#mask-2)">
      <path fill="rgb(227,55,55)" fill-rule="evenodd" d="M11.02081836 8.14581836V9.7306621c-.2811211.16728906-.47918164.46098828-.47918164.8109746 0 .52828126.4300371.95831837.95831836.95831837.52828125 0 .95831836-.43003711.95831836-.95831836 0-.35003125-.19806055-.64368555-.47918164-.81097461V8.14581836c0-.26485938-.21432227-.47918164-.47918164-.47918164-.26485938 0-.4790918.21436719-.4790918.47918164z"/>
      <path fill="rgb(227,55,55)" fill-rule="evenodd" d="M16.29163605 3.83331837C16.29163605 1.68362696 17.76516348 0 19.64581871 0 21.52647257 0 23 1.68362696 23 3.83331837c0 1.54266226-1.16356677 4.27548449-2.875 4.72223218v9.17363074C20.125 20.63553667 17.76053667 23 14.85418129 23c-2.78430218 0-5.06525534-2.17152327-5.25253493-4.90910769-1.25161326.10448915-2.43952733.11747164-2.89332834.11747164C5.58810173 18.20836395 0 18.1390934 0 16.77086395V3.35418163c0-1.36827537 5.58810173-1.4375 6.70831802-1.4375 1.12021733 0 6.70831803.06926953 6.70831803 1.4375v2.80191182c1.68924236.741481 2.875 2.4256469 2.875 4.38549805 0 1.95985183-1.18575764 3.64397248-2.875 4.38549873v1.84368324c0 .67126727-1.34603858 1.02884501-2.84854013 1.21998781.13817919 2.2542246 1.99758536 4.05087477 4.28604013 4.05087477 2.37802982 0 4.3125-1.93442494 4.3125-4.3125v-9.1735855c-1.71143323-.4467477-2.875-3.17956992-2.875-4.72223218zM17.25 3.83336327c0 1.40798643 1.18387127 3.83331802 2.39581871 3.83331802 1.21199131 0 2.39586258-2.4253316 2.39581871-3.83331803 0-1.61202158-1.05238485-2.875-2.39581871-2.875S17.25 2.22134168 17.25 3.83336326zM6.70831871 2.875c2.27605629 0 4.2633996.24145508 5.23573446.47918163-.97233486.23768166-2.95967817.47913674-5.23573446.47913674-2.27605697 0-4.2633559-.24145508-5.2357348-.47918163C2.4449628 3.11645508 4.43230662 2.875 6.7083187 2.875zM.95831837 16.60424805c.26557815.13211566.96051953.28579294 1.91668163.41049611V4.57776362c-.71717774-.09020327-1.3966211-.21885945-1.91668163-.40056835v12.42705278zM6.7083187 17.25c-1.0428166 0-2.02323674-.05112112-2.87500034-.12892556V4.67573822c1.24483001.10305072 2.42344557.11594341 2.87500034.11594341.82943702 0 4.10356832-.03944133 5.75-.61444147v1.66965622C12.14858151 5.78369141 11.82815397 5.75 11.5 5.75c-2.6419904 0-4.79168129 2.14969158-4.79168129 4.79168129 0 2.6419897 2.14973614 4.79163742 4.79168129 4.79163742.32815397 0 .6485815-.0336914.95831871-.09685183v1.36778117c-.55213547.27469682-2.92926598.64575195-5.75.64575195zM11.5 14.375c2.11366415 0 3.83331871-1.71965456 3.83331871-3.83331871S13.61366415 6.70836326 11.5 6.70836326 7.66668198 8.42801714 7.66668198 10.5416813 9.38633585 14.375 11.5 14.375z"/>
    </g>
  </g>
</svg>
