<svg xmlns="http://www.w3.org/2000/svg" width="19.697" height="26" viewBox="0 0 19.697 26">
  <g>
    <path fill="rgb(255,121,86)" fill-rule="evenodd" d="M19.51875444 5.13010846C19.3692479 2.4736624 17.21900339.33459843 14.51692154.15441155c-3.09770434-.20586604-6.23919308-.20586604-9.3374264 0C2.477798.33459843.32774585 2.4736624.1782393 5.13006037c-.15696023 2.780033-.21060273 5.59473766-.15953295 8.3659224.04618882 2.51795174 1.0812415 4.87860663 2.91453599 6.6471983 1.31523918 1.26885802 2.9344205 2.1295425 4.69267319 2.51598012v1.9280525C7.62591553 25.36624423 8.27239065 26 9.06704989 26h1.56284587c.79465924 0 1.44113437-.63375577 1.44113437-1.41278631V22.6591131c.5376032-.11858576 1.0638816-.28266305 1.5768636-.49170291.00045684.0320749.00067324.06400553.00170714.09636896.03515255 1.00076571.70295484 1.7578199 1.701244 1.9288219.13825388.02365946.27537768.03520065.4101692.03515256.8618386-.00004809 1.6247836-.47020745 1.93444824-1.22990649.07958615-.1953347-.01731179-.4169256-.21651759-.4950691-.19932602-.0780954-.4251487.01697518-.50478294.21235796-.18021092.44222005-.72310384.85837624-1.48970355.72704708-.23981638-.04106741-1.02495413-.24933786-1.05851977-1.203506-.00139456-.04428934-.00238037-.08901146-.00238037-.13382976 0-1.10930102.47936827-2.13363 1.32497707-2.85264634.65873764.5612867 1.10278505 1.3195431 1.26126006 2.16349284.0388313.2068278.24125902.34363903.4522705.30560118.2109634-.03808594.35046757-.23669064.31163627-.44351844-.10413523-.55450624-.31122751-1.07785126-.60629735-1.54878003 1.57847456-1.71458851 2.46791585-3.9156864 2.51078657-6.23301373.05121405-2.77118475-.00247654-5.5859375-.15943677-8.36587432zm-2.82369718 13.97398053c1.38785253-1.5608502 2.16806123-3.54054954 2.206604-5.62185947.05073317-2.75267075-.00254867-5.54857289-.1585231-8.3099957-.12789084-2.27323036-1.96741277-4.1036155-4.27887332-4.25773853-3.06264796-.20355779-6.16888798-.20355779-9.23218513 0-2.3110518.15412302-4.15035733 1.98446008-4.27827223 4.25759426C.79783307 7.93365663.74455123 10.72955877.79530843 13.4822776c.04251006 2.31732733.99521152 4.49000503 2.68263014 6.11784224 1.68749075 1.62793339 3.91816295 2.52617484 6.28115012 2.5292044h.17917702c1.32286118-.00134647 2.59426788-.27944114 3.78216923-.82572429.20798192-1.12545868.8470274-2.15257679 1.79638672-2.84524073.13762873-.10040838.3260868-.10040838.46366744 0 .26325942.1920166.50163315.4091353.71456816.64572976zm-5.40079752 5.4831247c0 .3589792-.29800323.65106756-.66438802.65106756H9.06704989c-.36631266 0-.66438802-.29208836-.66438802-.65106756v-1.79008715c.44575455.06131259.89850594.0933394 1.35594594.09391646h.18011474c.45792089-.00048088.91009522-.03188255 1.35553719-.09300278v1.78917347z"/>
    <path fill="rgb(255,121,86)" fill-rule="evenodd" d="M13.78660445 14.45702755H5.9109904c-.8311823 0-1.56354315.45900287-1.91131777 1.19792776-.34996264.74354138-.2300304 1.59355025.3130789 2.21840969.13731616.15801817.28408167.3124778.43611285.45919522 1.3470015 1.29949027 3.12715842 2.01658307 5.01318174 2.0193241h.17352665c1.88544626-.00269294 3.66560317-.71983383 5.01260468-2.0193241.1622259-.15647934.31832054-.32180694.46393193-.49141439.52745657-.61413574.63943019-1.45029518.29225667-2.1821511-.35176595-.7413774-1.0865793-1.20196718-1.9177616-1.20196718zm-8.88275147 2.92223011c-.34421608-.39605527-.42048414-.93440385-.19896536-1.404996.2226248-.47304466.67350076-.75546727 1.20610278-.75546727h3.55374978v4.36410985c-1.56969845-.07290187-3.04124867-.70329146-4.17115553-1.79326098-.13589755-.1311368-.26701031-.26919833-.38973167-.4103856zm9.49950802.41033751c.14498624-.13988888.28449041-.28761615.41456928-.43909431.33563232-.39076557.40365323-.9029541.18203828-1.37018007-.2228412-.46972657-.68780703-.7615264-1.2134122-.7615264h-3.5450458v4.36377323c1.56594757-.0748735 3.03405947-.70497455 4.16185044-1.79297245z"/>
    <path fill="rgb(255,121,86)" fill-rule="evenodd" d="M14.34163327 2.68796357c-1.49411324-.09933133-3.00578114-.14965717-4.49311072-.14965717-.9145508 0-1.8439117.01904358-2.76229448.0566737-.21433247.00878544-.38081686.18627163-.37185829.396462.00895857.21019036.18983881.37340656.40427485.3646719.90761178-.03717307 1.82609812-.0560643 2.72987792-.0560643 1.4698785 0 2.96388817.04976722 4.44049854.14793054 1.00941841.06723655 1.81284152.86889519 1.86887141 1.86489994.103153 1.82000787.1604257 3.6866852.1702646 5.54818269.00517836.95766367-.73392947 1.7825301-1.68146644 1.87779879-.02547755.00223445-.05090331.0044689-.07493092.00614473-1.5622605.10420648-3.15139671.15707147-4.7232372.15707147-1.57184047 0-3.16097668-.05286499-4.72189081-.1569699-.02464901-.00172662-.04924624-.0038595-.0775201-.00634787-.94758875-.09653826-1.68545378-.92084608-1.68027541-1.87769722.00983889-1.85829816.06695624-3.72502628.16974675-5.54818269.05644417-.99595397.8600744-1.79771418 1.86913033-1.86489994.06053507-.00401184.12101836-.0079729.18155343-.01147693.21412533-.01234024.37755449-.1925687.36497106-.40255594-.01253164-.20993645-.19589749-.36995333-.41048888-.35791778-.06270998.00360558-.12541996.00776978-.18844065.0118832-1.39971167.09323737-2.5141473 1.20350362-2.59234058 2.58276681-.10351549 1.83590291-.1610471 3.71542832-.17093778 5.58632064-.0035213.65174756.23514949 1.28018578.6720998 1.76952967.44186977.49482845 1.04851506.8038931 1.70813501.87021554.00176064.00015235.00745684.00066018.0091657.00086331.02993095.00258993.0598101.00517986.09108742.0074143 1.57971159.1053745 3.18660959.1587981 4.77595293.1587981 1.58934335 0 3.19624135-.0534236 4.77729931-.15889966.02987916-.00213288.0598101-.00467203.0936766-.00761743.00170886-.00015235.0034695-.0003047.00523015-.00050783.65967173-.06632245 1.26631703-.3753871 1.708135-.87021554.43695032-.4893439.67556932-1.11773133.67209981-1.7694789-.00994246-1.8741932-.06762943-3.75371861-.17145561-5.58632063-.0775719-1.37916163-1.19180038-2.48958022-2.59182275-2.5828176z"/>
    <path fill="rgb(255,121,86)" fill-rule="evenodd" d="M5.4716661 5.14240203c-.21448783 0-.38837727.17052893-.38837727.38087165v1.88663501c0 .21034272.17388944.38087165.38837726.38087165s.38837727-.17052893.38837727-.38087165V5.52327368c0-.21034272-.17388945-.38087165-.38837727-.38087165z"/>
    <path fill="rgb(255,121,86)" fill-rule="evenodd" d="M7.95914482 4.4050853H6.03533097c-.21448782 0-.38837727.17052894-.38837727.38087165 0 .21034272.17388945.38087165.38837727.38087165h1.92381385c.21448782 0 .38837726-.17052893.38837726-.38087165 0-.21034271-.17388944-.38087165-.38837726-.38087165z"/>
    <path fill="rgb(255,121,86)" fill-rule="evenodd" d="M9.00620993 10.71216745V8.82553243c0-.21034271-.17388945-.38087165-.38837727-.38087165s-.38837726.17052894-.38837726.38087165v1.88663502c0 .21034271.17388944.38087164.38837726.38087164s.38837727-.17052893.38837727-.38087164z"/>
    <path fill="rgb(255,121,86)" fill-rule="evenodd" d="M5.6469537 8.0882157c0 .21034272.17388945.38087165.38837727.38087165h1.92381385c.21448782 0 .38837726-.17052893.38837726-.38087164 0-.21034272-.17388944-.38087165-.38837726-.38087165H6.03533097c-.21448782 0-.38837727.17052893-.38837727.38087165z"/>
    <path fill="rgb(255,121,86)" fill-rule="evenodd" d="M6.03533097 11.77139689h1.92381385c.21448782 0 .38837726-.17052893.38837726-.38087165 0-.21034271-.17388944-.38087165-.38837726-.38087165H6.03533097c-.21448782 0-.38837727.17052894-.38837727.38087165 0 .21034272.17388945.38087165.38837727.38087165z"/>
    <path fill="rgb(255,121,86)" fill-rule="evenodd" d="M10.55930473 5.52327368v1.88663501c0 .21034272.17388945.38087165.38837727.38087165s.38837727-.17052893.38837727-.38087165V5.52327368c0-.21034272-.17388945-.38087165-.38837727-.38087165s-.38837727.17052893-.38837727.38087165z"/>
    <path fill="rgb(255,121,86)" fill-rule="evenodd" d="M13.43516072 4.4050853h-1.92381385c-.21448782 0-.38837726.17052894-.38837726.38087165 0 .21034272.17388944.38087165.38837726.38087165h1.92381385c.21448782 0 .38837727-.17052893.38837727-.38087165 0-.21034271-.17388945-.38087165-.38837727-.38087165z"/>
    <path fill="rgb(255,121,86)" fill-rule="evenodd" d="M14.48222584 10.71216745V8.82553243c0-.21034271-.17388945-.38087165-.38837727-.38087165s-.38837727.17052894-.38837727.38087165v1.88663502c0 .21034271.17388945.38087164.38837727.38087164s.38837727-.17052893.38837727-.38087164z"/>
    <path fill="rgb(255,121,86)" fill-rule="evenodd" d="M11.51134687 8.46908735h1.92381385c.21448782 0 .38837727-.17052893.38837727-.38087164 0-.21034272-.17388945-.38087165-.38837727-.38087165h-1.92381385c-.21448782 0-.38837726.17052893-.38837726.38087165 0 .21034271.17388944.38087164.38837726.38087164z"/>
    <path fill="rgb(255,121,86)" fill-rule="evenodd" d="M11.51134687 11.77139689h1.92381385c.21448782 0 .38837727-.17052893.38837727-.38087165 0-.21034271-.17388945-.38087165-.38837727-.38087165h-1.92381385c-.21448782 0-.38837726.17052894-.38837726.38087165 0 .21034272.17388944.38087165.38837726.38087165z"/>
    <path fill="rgb(255,121,86)" fill-rule="evenodd" d="M10.1312612 11.77139689c.21448782 0 .38837727-.17052893.38837727-.38087165 0-.21034271-.17388945-.38087165-.38837727-.38087165h-.02589182c-.21448782 0-.38837727.17052894-.38837727.38087165 0 .21034272.17388945.38087165.38837727.38087165h.02589182z"/>
    <path fill="rgb(255,121,86)" fill-rule="evenodd" d="M11.8416229 15.90715516c-.15167427-.14874308-.39759475-.14874308-.54921724 0-.15167427.14874307-.15167427.389911 0 .53860329l.74138631.72705858-.7413863.72705859c-.15167428.14874307-.15167428.389911 0 .5386033.07581123.07434614.17523582.11157.27460861.11157.0993728 0 .19879738-.03717308.27460862-.11157l1.01604672-.99641102c.15167427-.14874308.15167427-.389911 0-.5386033l-1.01604672-.99630944z"/>
    <path fill="rgb(255,121,86)" fill-rule="evenodd" d="M7.6721599 17.17286782l.74138632-.72705859c.15167427-.14874307.15167427-.389911 0-.53860329-.15167427-.14874307-.39759475-.14874307-.54921724 0l-1.01604672.99641101c-.15167426.14874308-.15167426.389911 0 .5386033l1.01604672.99641101c.07581124.07434615.17523582.11157.27460862.11157.0993728 0 .19879738-.03717307.27460862-.11157.15167427-.14874307.15167427-.389911 0-.5386033l-.74138631-.72716014z"/>
  </g>
</svg>
