<svg xmlns="http://www.w3.org/2000/svg" width="20" height="20" viewBox="0 0 20 20">
  <g>
    <path fill="rgb(117,117,117)" fill-rule="evenodd" d="M0 10C0 4.47292984 4.47253913 0 10 0c5.52703142 0 10 4.47253913 10 10 0 5.52707076-4.47253942 10-10 10-5.52707016 0-10-4.47253942-10-10zm1.5625 0c0 4.66347694 3.77371073 8.4375 8.4375 8.4375 4.6634376 0 8.4375-3.77371073 8.4375-8.4375 0-4.66347694-3.77371073-8.4375-8.4375-8.4375-4.66347694 0-8.4375 3.77371073-8.4375 8.4375z"/>
    <path fill="rgb(117,117,117)" fill-rule="evenodd" d="M10 8.37226563c-.43148438 0-.78125.34976562-.78125.78125v5.03097656c0 .43148437.34976562.78125.78125.78125s.78125-.34980469.78125-.78128906v-5.0309375c0-.43148438-.34976562-.78125-.78125-.78125z"/>
    <ellipse cx="10" cy="6.361" fill="rgb(117,117,117)" rx="1.055" ry="1.055"/>
  </g>
</svg>
