<svg xmlns="http://www.w3.org/2000/svg" xmlns:xlink="http://www.w3.org/1999/xlink" width="26" height="26" viewBox="0 0 26 26">
  <defs>
    <rect id="rect-1" width="26" height="26" x="0" y="0"/>
    <mask id="mask-2" maskContentUnits="userSpaceOnUse" maskUnits="userSpaceOnUse">
      <rect width="26" height="26" x="0" y="0" fill="black"/>
      <use fill="white" xlink:href="#rect-1"/>
    </mask>
  </defs>
  <g>
    <use fill="none" xlink:href="#rect-1"/>
    <g mask="url(#mask-2)">
      <path fill="rgb(131,0,81)" fill-opacity=".4" fill-rule="evenodd" d="M15.68983203 3.35740234c-.63796484 0-1.13607812-.52035547-1.13607812-1.13607812 0-.66985547.58327343-1.19676172 1.24794922-1.13039063.59053515.06296875 1.02420703.5506211 1.02420703 1.13039063 0 .61597656-.49785938 1.13607812-1.13607813 1.13607812z"/>
      <path fill="rgb(131,0,81)" fill-opacity=".8" fill-rule="evenodd" d="M23.3396211 14.40521875h.00055859c.0590586-.62430469.61348828-1.08265625 1.23830078-1.02364844.62430469.0590586 1.08270703.61353906 1.02364844 1.23835156-.05626563.58789454-.55102735 1.02867579-1.12988282 1.02867579-.67452734.00005078-1.1954414-.57900782-1.132625-1.24337891z"/>
      <path fill="rgb(131,0,81)" fill-opacity=".7" fill-rule="evenodd" d="M23.03457812 10.72261328c-.1625-.60607422.19708204-1.22865234.80320704-1.39115234.60607421-.16244922 1.22926171.19713281 1.39171093.80325781.1625.60607422-.19764062 1.22921094-.80320703 1.39171094-.0988711.02615234-.1976914.03859375-.29483594.03859375-.502125 0-.96113671-.33454688-1.096875-.84241016z"/>
      <path fill="rgb(131,0,81)" fill-opacity=".6" fill-rule="evenodd" d="M21.45655078 7.38653906c-.36521875-.51065625-.24760937-1.22017187.2624375-1.58539062.51014844-.36466016 1.2195625-.24766016 1.58483203.2629961.36521875.51004687.24760938 1.2195625-.2624375 1.58478124-.20053515.14315234-.43113281.21246875-.66005468.21246875-.35445313 0-.70321875-.16529297-.92477735-.47485547z"/>
      <path fill="rgb(131,0,81)" fill-opacity=".5" fill-rule="evenodd" d="M18.50047266 3.23303906c.35049218-.52035547 1.05660547-.65726172 1.57691015-.30676953.5202539.35105078.65771875 1.05716406.30671875 1.57685938-.21922265.3255078-.5776875.5010078-.94290625.5010078-.90217968 0-1.45142968-1.01420312-.94072265-1.77109765z"/>
      <path fill="rgb(131,0,81)" fill-opacity=".9" fill-rule="evenodd" d="M23.35947656 19.59541797c-.62511719 0-1.13607812-.50852344-1.13607812-1.13607813 0-.67117578.5823086-1.19640625 1.248-1.1304414.60079297.06601562 1.02415625.55813672 1.02415625 1.1304414 0 .61206641-.49638672 1.13607813-1.13607813 1.13607813z"/>
      <path fill="rgb(131,0,81)" fill-opacity=".9" fill-rule="evenodd" d="M21.87635938 20.6269375c-.45114063-.37095703-1.109875-.3390664-1.5234375.0733789-1.86463672 1.8595586-4.3756172 2.94917188-7.03183204 3.02336329-5.7140078.15960547-10.49252343-4.35921485-10.6521289-10.07322266C2.5555664 9.59171484 4.82548828 5.89138672 8.3521953 4.10713672l.3650664 1.49667578c.0842461.34551562.51482032.46469922.76476563.21170703L12.95775 2.29719141c.2378086-.24070313.13853125-.6475625-.1833711-.75171485L8.06898829.02275c-.33835547-.10948438-.6656914.19454297-.58139453.5400586l.31438672 1.2888789C3.23207422 3.92782812.25446484 8.58634766.39766797 13.71388281c.19505078 6.98272656 6.00351172 12.47614063 12.98684766 12.28103906 3.23796484-.0904414 6.29880468-1.41837109 8.57167187-3.68458593.47607422-.47465235.43946094-1.25642969-.07982812-1.68339844z"/>
      <path fill="rgb(131,0,81)" fill-opacity=".9" fill-rule="evenodd" d="M24.44817578 13.37694922c.10989063.19505078.16366797.4243789.14101953.66416797-.05555469.5806836-.53914453 1.01704687-1.1088086 1.02771093.19347657.34358594.56123438.57982032.99191016.57982032.57885547 0 1.0736172-.44078125 1.12988282-1.02867578.06352734-.67208985-.47038672-1.25627735-1.1540039-1.24302344z"/>
      <path fill="rgb(131,0,81)" fill-opacity=".7" fill-rule="evenodd" d="M25.2294961 10.13471875c-.138125-.51532812-.60932423-.85221094-1.1199297-.84180078.41935157.74663672-.10760546 1.67522266-.96814453 1.69253906.20028125.35719531.58078516.5795664.99003125.5795664.09714454 0 .19596485-.01249218.29483594-.03859374.60551563-.1625.96565625-.78563672.80320703-1.39171094z"/>
      <path fill="rgb(131,0,81)" fill-opacity=".6" fill-rule="evenodd" d="M23.3038711 6.06414453c-.22648438-.3166211-.58525391-.48150781-.94681641-.4745.4222461.74826172-.11263281 1.67567969-.96682422 1.69213281.20916797.37151563.59266797.57966797.99109766.57966797.91629687-.00005078 1.46224609-1.04355468.92254296-1.79730078z"/>
      <path fill="rgb(131,0,81)" fill-opacity=".5" fill-rule="evenodd" d="M20.07738281 2.92626953c-.2020586-.13609375-.43214844-.19784375-.65853125-.19301953.20342969.36257813.20073828.82326563-.04773437 1.19102344-.21409375.31789062-.56108203.49227344-.91736328.5002461.18961718.33657812.54605078.57961718.98739062.57961718.36521875 0 .7236836-.1755.94290625-.50100781.35110156-.51969532.21363672-1.2258086-.30666797-1.57685938z"/>
      <path fill="rgb(131,0,81)" fill-rule="evenodd" d="M23.47144922 17.32889844c-.04555078-.00451953-.09059375-.00599219-.13517969-.0051289.0934375.1660039.14635156.3561289.14635156.55671484 0 .60465234-.48455468 1.12297656-1.11292187 1.13546875.19530469.34576953.56621094.57941406.98982812.57941406.63964063 0 1.13607813-.52401172 1.13607813-1.13607813 0-.5722539-.42341406-1.06432422-1.02415625-1.13039062z"/>
      <path fill="rgb(131,0,81)" fill-rule="evenodd" d="M21.87635938 20.6269375c-.2256211-.1855039-.50308985-.27025781-.77588672-.25705469.26030468.43397657.20794922 1.01029297-.17301172 1.3901875-2.27286719 2.26626563-5.33370703 3.59414453-8.57167188 3.68458594-2.07014843.05783984-4.0370586-.3843125-5.78510156-1.21692187 1.98864453 1.1840664 4.32651172 1.83670703 6.81377734 1.76723828 3.23796485-.09044141 6.2988047-1.4183711 8.57167188-3.68458594.476125-.47470313.43951172-1.25648047-.07977734-1.68344922z"/>
    </g>
  </g>
</svg>
