<svg xmlns="http://www.w3.org/2000/svg" xmlns:xlink="http://www.w3.org/1999/xlink" width="26" height="26" viewBox="0 0 26 26">
  <defs>
    <rect id="rect-1" width="26" height="26" x="0" y="0"/>
    <mask id="mask-2" maskContentUnits="userSpaceOnUse" maskUnits="userSpaceOnUse">
      <rect width="26" height="26" x="0" y="0" fill="black"/>
      <use fill="white" xlink:href="#rect-1"/>
    </mask>
  </defs>
  <g>
    <use fill="none" xlink:href="#rect-1"/>
    <g mask="url(#mask-2)">
      <path fill="rgb(239,172,0)" fill-rule="evenodd" d="M7.4140625 0h11.171875c1.89006584 0 3.42773438 1.53766854 3.42773438 3.42773438v13.55859375C22.01367188 21.95649178 17.97016364 26 13 26c-4.97016365 0-9.01367188-4.04350822-9.01367188-9.01367187V3.42773437C3.98632813 1.53766855 5.52399667 0 7.4140625 0zM13 25.23828125c4.55014333 0 8.25195313-3.7018098 8.25195313-8.25195312V3.42773437c0-1.47007111-1.1959957-2.66601562-2.66601563-2.66601562H7.4140625c-1.47001993 0-2.66601563 1.1959445-2.66601563 2.66601563v13.55859375c0 4.55014333 3.7018098 8.25195312 8.25195313 8.25195312z"/>
      <path fill="rgb(239,172,0)" fill-rule="evenodd" d="M13 23.88170009c-1.33001315 0-2.41210938-1.08209623-2.41210938-2.41210938 0-1.33001315 1.08209623-2.41210937 2.41210938-2.41210937 1.33001315 0 2.41210938 1.08209622 2.41210938 2.41210937S14.33001315 23.88170009 13 23.88170009zm0-.76171875c.91004402 0 1.65039063-.7403978 1.65039063-1.65039063S13.91004402 19.81920009 13 19.81920009c-.91004402 0-1.65039063.74039779-1.65039063 1.65039062 0 .90999283.7403466 1.65039063 1.65039063 1.65039063z"/>
      <path fill="rgb(239,172,0)" fill-rule="evenodd" d="M18.96679688 2.49915929v13.55859375c0 .2103429-.17046529.38085937-.38085938.38085937H7.4140625c-.21039409 0-.38085938-.17051647-.38085938-.38085937V2.49915929c0-.2103429.17046529-.38085938.38085938-.38085938h11.171875c.21039409 0 .38085938.17051648.38085938.38085938zm-11.171875 13.17773437h10.41015624v-12.796875H7.79492189v12.796875z"/>
      <path fill="rgb(239,172,0)" fill-rule="evenodd" d="M17.0625 14.91517491h-8.125c-.21039409 0-.38085938-.17051647-.38085938-.38085937v-4.5703125c0-.2103429.17046529-.38085938.38085938-.38085938h8.125c.21039409 0 .38085938.17051648.38085938.38085938v4.5703125c0 .2103429-.17046529.38085937-.38085938.38085937zm-5.79753457-4.5703125H9.31835937v3.80859375h1.94660606v-3.80859375zm.76171875 0v3.80859375h1.94665724v-3.80859375h-1.94665724zm4.65495644 3.80859375h-1.94660605v-3.80859375h1.94660606v3.80859375z"/>
      <path fill="rgb(239,172,0)" fill-rule="evenodd" d="M13 8.82142491c-.05067887 0-.10130655-.01011017-.14893956-.03030493-.11308043-.04804255-2.77098231-1.20057728-2.77098231-3.24508569 0-1.0500508.85424607-1.90429688 1.90429687-1.90429688.36217474 0 .71342025.1026887 1.015625.29347672.30220475-.19078802.65345026-.29347672 1.015625-.29347672 1.0500508 0 1.90429688.85424608 1.90429688 1.90429688 0 2.04450841-2.6578507 3.19704314-2.77098232 3.24508569-.04763301.02019476-.0982607.03030493-.14893956.03030493zm-.25405982-4.1268468c-.20967742-.18774217-.48014389-.29112195-.76156518-.29112195-.63000488 0-1.14257813.51254765-1.14257813 1.14257813 0 1.31278746 1.64678168 2.2232922 2.1578448 2.4741526.51024406-.25155148 2.15856145-1.16581874 2.15856145-2.4741526 0-.63003048-.51257324-1.14257813-1.14257812-1.14257813-.2814213 0-.55188776.10337978-.76156518.29112195-.14461394.12948707-.3635057.12948707-.50811964 0z"/>
    </g>
  </g>
</svg>
