<svg xmlns="http://www.w3.org/2000/svg" xmlns:xlink="http://www.w3.org/1999/xlink" width="30" height="30" viewBox="0 0 30 30">
  <defs>
    <rect id="rect-1" width="30" height="30" x="0" y="0"/>
    <mask id="mask-2" maskContentUnits="userSpaceOnUse" maskUnits="userSpaceOnUse">
      <rect width="30" height="30" x="0" y="0" fill="black"/>
      <use fill="white" xlink:href="#rect-1"/>
    </mask>
  </defs>
  <g>
    <use fill="none" xlink:href="#rect-1"/>
    <g mask="url(#mask-2)">
      <path fill="rgb(117,117,117)" fill-rule="evenodd" d="M1.7578125 15C1.7578125 7.69822266 7.69822266 1.7578125 15 1.7578125c2.74611328 0 5.36501953.83267578 7.57007813 2.37814453h-1.7035547c-.48539062 0-.87890624.39351563-.87890624.87890625 0 .48539063.39351562.87890625.87890625.87890625h4.11867187c.48539063 0 .87890625-.39351562.87890625-.87890625V.89619141c0-.48539063-.39351562-.87890625-.87890625-.87890625-.48539062 0-.87890625.39351562-.87890625.87890625v2.18783203C21.50314453 1.08392578 18.33457031 0 15 0 10.99335938 0 7.22654297 1.56029297 4.39335938 4.39335938 1.56029297 7.22654297 0 10.99335938 0 15c0 2.63208984.6955664 5.22550781 2.01152344 7.49988281.16289062.28160157.45808594.43886719.76154297.43886719.14941406 0 .3008203-.03814453.43939453-.11830078.42011719-.24310547.56361328-.78076172.3205664-1.2009375C2.37169922 19.61238282 1.7578125 17.32335938 1.7578125 15z"/>
      <path fill="rgb(117,117,117)" fill-rule="evenodd" d="M27.98847656 7.50011719c-.24316406-.42017578-.7809375-.56361328-1.2009375-.32050781-.42011718.24310546-.56361328.78076171-.3205664 1.2009375C27.62830078 10.38755859 28.2421875 12.67652344 28.2421875 15c0 7.30177734-5.94041016 13.2421875-13.2421875 13.2421875-2.7458789 0-5.3643164-.83291016-7.56914062-2.37814453h1.70261718c.48539063 0 .87890625-.39351563.87890625-.87890625 0-.48539063-.39351562-.87890625-.87890625-.87890625H5.01486328c-.48539062 0-.87890625.39351562-.87890625.87890625v4.11867187c0 .48539063.39351563.87890625.87890625.87890625.48539063 0 .87890625-.39351562.87890625-.87890625v-2.19C8.49685547 28.9145508 11.66501953 30 15 30c4.00664063 0 7.77345703-1.56029297 10.60664063-4.39335937C28.43970703 22.77345703 30 19.00664063 30 15c0-2.63220703-.6955664-5.225625-2.01152344-7.49988281z"/>
      <path fill="rgb(117,117,117)" fill-rule="evenodd" d="M22.43637085 12.05982208c.11657715.20185852.14816284.44174195.08782959.6669159-.06030273.22512054-.20767212.41712951-.40951538.5336151l-.79681397.46007539c.0847168.41964721.12744141.84779358.12744141 1.27957153 0 .43177795-.0427246.85992432-.1274414 1.27957153l.79681396.46007538c.2019043.11654663.34921265.30849457.40951538.53367615.06027222.22511291.02868652.46505737-.08782959.66690826l-1.171875 2.02974701c-.2427063.42029572-.78024292.56437683-1.20059204.32167816l-.79699707-.46012878c-.64764404.5739212-1.39782715 1.00745392-2.21606445 1.28062439v.9190979c0 .48539734-.39352417.87890625-.87890625.87890625h-2.34375c-.4854126 0-.87890625-.39350891-.87890625-.87890625v-.91921997c-.81832886-.27316284-1.56851197-.70664215-2.21615601-1.28062439l-.79693604.46013641c-.42041015.24275208-.95788574.098732-1.20056152-.32167816l-1.171875-2.029747c-.2427063-.42034913-.09869385-.95789338.32165527-1.20058442l.79678345-.46002197c-.08480835-.41964722-.12750244-.84785462-.12750244-1.27957154 0-.43171691.04275513-.85986328.12750244-1.27957153l-.79678345-.46001434c-.42034912-.24269867-.56436157-.7802353-.32165527-1.20058441l1.171875-2.02974701c.24261475-.42041016.7802124-.56449127 1.20056152-.32167816l.79693604.4601364c.64764404-.57392882 1.39788818-1.00746154 2.216156-1.28063201V7.96875c0-.4853897.39349366-.87890625.87890626-.87890625h2.34375c.48538208 0 .87890625.39351654.87890625.87890625v.91915894c.8182373.27316284 1.5684204.70670318 2.21606445 1.28062439l.79699707-.46013642c.42041015-.24269104.95788574-.09867096 1.20059204.32167816l1.171875 2.02974701zM12.65625 15c0 1.29439545 1.04934692 2.34375 2.34375 2.34375S17.34375 16.29439545 17.34375 15 16.29440308 12.65625 15 12.65625 12.65625 13.70560455 12.65625 15z"/>
    </g>
  </g>
</svg>
