<svg xmlns="http://www.w3.org/2000/svg" width="18.321" height="25" viewBox="0 0 18.321 25">
  <g>
    <path fill="rgb(103,210,223)" fill-rule="evenodd" d="M6.38771758 18.92667839c.19824935.00380845.3559481.1707872.35221374.37301945-.0259477 1.40458032.00416537 2.83420909.0833022 4.23552034.00173204.03079837.00153334.06029449.00133026.0904313-.00006648.00984893-.00013295.01976788-.00013295.02982243-.010054.33727873-.14123088.66376834-.36968826.91052786-.25536351.27580863-.61518989.43400083-.98717633.43400083h-3.3740156c-.55185106 0-1.04543886-.3382085-1.25747584-.86165425-.08033377-.19827628-.15520991-.4016305-.22443665-.6084013-.03537931-.10555931-.16631658-.5405361-.19561586-.65024507-1.10528274-4.1354785.33186722-8.13644693.41770648-8.3689486.90823052-2.6639106 1.10777214-4.2275138 1.10968717-4.24299121.05012464-.42086645-.09843032-.85481812-.44159634-1.28842782-.45437842-.57324765-.69849135-1.29028363-.68719293-2.0188418.03935292-2.44576251.53519105-4.49673103.94423223-5.78662371.23219247-.73139021.92120474-1.21275037 1.6752309-1.17139607L4.8489298.08015045c.19800974.01093668.34991629.18343344.33923989.38537132-.01067567.20193788-.17972143.35666256-.37787435.34597002L3.39540712.73376323c-.4291963-.023631-.82129002.24993238-.9532332.6654772-.3225313 1.01706173-.86959533 3.09361435-.90947495 5.57301667-.0086653.55713549.1787641 1.10655723.52777054 1.5468563.46323512.585307.66919208 1.22090384.59565679 1.83819078-.00818682.06708518-.20806374 1.64963154-1.14573709 4.39859453-.00110088.00322288-.00224997.00649493-.00344654.00966715-.014219.03832736-1.38448808 3.8080636-.46596431 7.65166974h5.0118561c-.0390662-1.06988972-.04959796-2.12156861-.03087938-3.13135606.00373437-.20218158.16880616-.36291126.3657625-.35920115zm-.92024704 5.34100177c.17780677 0 .34297426-.07260192.46500734-.20442702.12227124-.13202178.18393428-.30461636.17368889-.48594981-.00143618-.02607208-.02207016-.42111081-.02240473-.42765342H1.24530737c.07607271.23904428.16004515.47633184.25435833.70912555.10063244.24837021.3337344.4089047.59378924.4089047h3.3740156z"/>
    <path fill="rgb(103,210,223)" fill-rule="evenodd" d="M13.10879518.53040748L6.50228194.1709619c-.19829756-.01088785-.3671512.1440321-.37787508.34597002-.0106764.20193787.14123015.37448342.33923989.38537125l5.20699274.28596473v5.69732387c-2.43265538.6696278-3.76266205 3.0696416-3.89316759 3.31522848-.92924765 1.4464241-1.49847752 3.9224579-1.69217871 7.36013786-.01134628.20188954.13988966.37497135.3378994.38659189.00698951.00039038.01397976.00058557.02092106.00058557.18886595 0 .34713962-.1504278.3581506-.34518916.08598316-1.52659374.24540592-2.84973493.4764011-3.96405656h1.44442638c.30558458 0 .59379034-.13656182.79074595-.37467782.19748304-.23875224.28102558-.55254702.2292719-.860872-.16320461-.97243678-.2258239-2.40143006-.24976123-3.31083446.6213174-.65122028 1.49794936-1.32323952 2.6030409-1.55779218l1.0809628-.17542634c.51766977-.06239763.90684145-.50806743.90684145-1.04079032V1.5771547c0-.55860053-.42842926-1.0183802-.97539832-1.04674721zm-.01881354 6.1018345c.15741166-.01747923.27609317-.15238119.27609317-.31384358V1.5771059c0-.16824908-.12907081-.30676402-.29380657-.31530835l-.68345893-.03549534-.00004821 5.51926126s.69533117-.11268675.70122054-.11332149zm-4.12507443 6.1597402c-.03537931.04272138-.11379806.11449337-.24176727.11449337H7.44838098c.24918778-.96198812.56204897-1.73609944.93757765-2.31642683.00641534-.0099115.01235146-.02016497.0178091-.03066204.00416536-.00800728.14017748-.26570268.39927535-.62944462.03667158.8428072.10494136 1.8384843.23223996 2.59687459.02187876.1302144-.03470943.22205376-.07037583.26516553z"/>
    <path fill="rgb(103,210,223)" fill-rule="evenodd" d="M2.56123858 6.114343c.00895276-1.47147124.42029175-3.01520226.66464429-3.8044494.11164378-.36047083.43589873-.60268882.80687999-.60268882h5.9490988c.46658524 0 .84623108.38712905.84623108.86302077V5.437295c0 .44435114-.32683876.81341463-.76029685.8585774l-6.57410236.68461647c-.02858119.00297852-.05716237.0044432-.08559965.0044432-.2092121 0-.41277554-.0793889-.56894279-.22410476-.1781417-.16502611-.27939654-.40065306-.2779125-.6464843zm7.54868726-.67699958V2.57022555c0-.07201597-.0574502-.13065414-.12811385-.13065414H4.03276213c-.05620468 0-.10522845.03652074-.12208058.0908623-.18690234.6036655-.62260967 2.16184881-.63132319 3.58845008-.00028709.05219334.02666653.08500322.04275235.09994349.01570303.01459905.04907125.03832736.09862171.03310341l6.5741031-.68461648c.06558806-.00683539.11509032-.06269041.11509032-.12997079z"/>
    <path fill="rgb(103,210,223)" fill-rule="evenodd" d="M6.6051165 4.08664949c0 .64331097-.51321659 1.16670904-1.14401308 1.16670904-.6307965 0-1.14401308-.52339807-1.14401308-1.16670904 0-.6433106.51321659-1.16670868 1.14401308-1.16670868.6307965 0 1.14401309.52339808 1.14401309 1.16670868zm-.71812014.00004917c0-.2394842-.1910677-.43434242-.42589294-.43434242-.23482523 0-.42589293.19485822-.42589293.43434242 0 .23948383.1910677.43434204.42589293.43434204s.42589294-.19485821.42589294-.43434204z"/>
    <path fill="rgb(103,210,223)" fill-rule="evenodd" d="M9.50641716 4.08664949c0 .64331097-.51316837 1.16670904-1.14396487 1.16670904-.63079649 0-1.14401308-.52339807-1.14401308-1.16670904 0-.6433106.51326407-1.16670868 1.14401308-1.16670868.63074901 0 1.14396487.52339808 1.14396487 1.16670868zm-.71807193.00004917c0-.2394842-.1910677-.43434242-.42589294-.43434242-.23482523 0-.42589293.19485822-.42589293.43434242 0 .23948383.1910677.43434204.42589293.43434204s.42589294-.19485821.42589294-.43434204z"/>
    <path fill="rgb(103,210,223)" fill-rule="evenodd" d="M17.0731541 1.31285447c-.1535341-.128065-.37974194-.10482484-.50526934.05165565-.12557528.15657813-.10288268.3872709.0506514.51528707.62543478.52163418.98415973 1.29275832.98415973 2.11563575 0 .80598437-.34666053 1.56690431-.95107832 2.08761084-.15147548.1305062-.17057748.36154072-.04260846.51601943.07104602.08573471.1723967.12987149.27446552.12987149.08181782 0 .16411439-.02836667.23152193-.08646707.76628207-.66014749 1.2057716-1.62500472 1.2057716-2.64708352.00004788-1.04351248-.45471367-2.0212592-1.24761407-2.68252964z"/>
    <path fill="rgb(103,210,223)" fill-rule="evenodd" d="M16.32520802 2.83103257c-.15353409-.12796735-.37969406-.10487367-.50526933.05170447-.1255274.15657814-.1028348.3872709.05069928.51528708.17364145.14481158.27326865.35890423.27326865.58730228 0 .22371095-.09627597.43492299-.26407671.57953928-.15147548.1305062-.17057748.36154072-.04260847.51601943.07104602.08573471.17239671.12987149.27446553.12987149.08181782 0 .16411439-.02836667.23152193-.08646707.3297129-.28400842.51877-.69915775.51877-1.13901196 0-.44903309-.1956638-.86979716-.53677088-1.154245z"/>
  </g>
</svg>
