<svg xmlns="http://www.w3.org/2000/svg" xmlns:xlink="http://www.w3.org/1999/xlink" width="24" height="24" viewBox="0 0 24 24">
  <defs>
    <rect id="rect-1" width="24" height="24" x="0" y="0"/>
    <mask id="mask-2" maskContentUnits="userSpaceOnUse" maskUnits="userSpaceOnUse">
      <rect width="24" height="24" x="0" y="0" fill="black"/>
      <use fill="white" xlink:href="#rect-1"/>
    </mask>
  </defs>
  <g>
    <use fill="none" xlink:href="#rect-1"/>
    <g mask="url(#mask-2)">
      <path fill="rgb(196,214,0)" fill-rule="evenodd" d="M22.90804687 1.28090625C22.13620312.45492188 21.08873437 0 19.958625 0H4.04085938C1.73259375 0-.144 2.01201563.01223438 4.31409375l.7044375 10.38159375c.03065625.45220312.7321875.4048125.70153125-.047625L.71376563 4.26651563C.58467188 2.36479687 2.13473438.703125 4.04085938.703125H19.958625c1.906125 0 3.45614062 1.66167187 3.32709375 3.56339063l-1.0801875 15.91921875c-.11835938 1.74454687-1.57982813 3.11114062-3.32709375 3.11114062H5.12109375c-1.7473125 0-3.20873437-1.36659375-3.32714062-3.1111875l-.24534375-3.61575c-.03075-.45229688-.7321875-.40476563-.70153125.047625l.24534375 3.61575C1.23576563 22.3455 3.00534375 24 5.12104688 24h13.75734375c2.11575 0 3.88532812-1.6545 4.028625-3.7666875l1.0801875-15.91921875c.0766875-1.12926563-.30660938-2.20645312-1.07915626-3.0331875z"/>
      <path fill="rgb(196,214,0)" fill-rule="evenodd" d="M15.53878125 8.1796875c0 .19415625.15740625.3515625.3515625.3515625h1.40625c.19415625 0 .3515625-.15740625.3515625-.3515625 0-3.1145625-2.533875-5.6484375-5.6484375-5.6484375s-5.6484375 2.533875-5.6484375 5.6484375c0 .19415625.15740625.3515625.3515625.3515625h7.265625c.45342187 0 .45342187-.703125 0-.703125h-1.70282813l-1.529625-2.72667188c-.2218125-.3954375-.83503125-.05142187-.61321875.34401563L11.4594375 7.828125H7.06678125c.076125-1.0790625.5000625-2.063625 1.16001562-2.84207813l.48253125.48248438c.32053125.32067188.81782813-.17657812.49715625-.49715625l-.48820312-.48825c.468-.41592188 1.01526562-.744375 1.61592187-.95985938l.1755.65489063c.11695313.43645312.79659375.25621875.67917188-.18201562l-.17746875-.66225C11.628 3.2083125 12.268125 3.20184375 12.88720312 3.31448438L12.714 3.96079688c-.117375.43823437.56221875.61846874.67917187.18201562l.17503125-.65315625c.60271875.20207813 1.15401563.51707813 1.62853125.92010938l-.46504687.46504687c-.320625.32057812.17657812.81778125.49715625.49715625l.4704375-.4704375c.7018125.79115625 1.1544375 1.80810938 1.233375 2.92659375h-1.0423125c-.19415625 0-.3515625.15740625-.3515625.3515625z"/>
      <path fill="rgb(196,214,0)" fill-rule="evenodd" d="M2.29659373 3.4921875c0-.68493748.55725002-1.2421875 1.24218767-1.2421875.68498397 0 1.2421875.55725002 1.2421875 1.2421875S4.22371888 4.734375 3.5387814 4.734375c-.68493765 0-1.24218767-.55725002-1.24218767-1.2421875zm.703125 0c0 .29723454.24182814.5390625.53906267.5390625.29728103 0 .5390625-.24182796.5390625-.5390625s-.24182832-.5390625-.5390625-.5390625c-.29723453 0-.53906267.24182796-.53906267.5390625z"/>
      <path fill="rgb(196,214,0)" fill-rule="evenodd" d="M21.70284319 3.4921875c0 .68493748-.55725002 1.2421875-1.2421875 1.2421875s-1.2421875-.55725002-1.2421875-1.2421875S19.775671 2.25 20.46065569 2.25s1.2421875.55725002 1.2421875 1.2421875zm-.703125 0c0-.29723454-.24182797-.5390625-.5390625-.5390625-.29723454 0-.5390625.24182796-.5390625.5390625s.24182796.5390625.5390625.5390625c.29723453 0 .5390625-.24182796.5390625-.5390625z"/>
      <path fill="rgb(196,214,0)" fill-rule="evenodd" d="M4.6169064 21.5625c-.68493747 0-1.2421875-.55725002-1.2421875-1.2421875s.55725003-1.2421875 1.2421875-1.2421875c.68493748 0 1.2421875.55725002 1.2421875 1.2421875S5.30184388 21.5625 4.6169064 21.5625zm.5390625-1.2421875c0-.29723454-.24182796-.5390625-.5390625-.5390625-.29723453 0-.5390625.24182796-.5390625.5390625s.24182797.5390625.5390625.5390625c.29723454 0 .5390625-.24182796.5390625-.5390625z"/>
      <path fill="rgb(196,214,0)" fill-rule="evenodd" d="M19.38253069 21.5625c-.68493748 0-1.2421875-.55725002-1.2421875-1.2421875s.55725002-1.2421875 1.2421875-1.2421875 1.2421875.55725002 1.2421875 1.2421875-.55725002 1.2421875-1.2421875 1.2421875zm.5390625-1.2421875c0-.29723454-.24182797-.5390625-.5390625-.5390625-.29723454 0-.5390625.24182796-.5390625.5390625s.24182796.5390625.5390625.5390625c.29723453 0 .5390625-.24182796.5390625-.5390625z"/>
    </g>
  </g>
</svg>
