<svg xmlns="http://www.w3.org/2000/svg" width="41" height="41" viewBox="0 0 41 41">
  <g>
    <g opacity=".1">
      <path fill="rgb(255,121,86)" fill-rule="evenodd" d="M20.5 0C31.814258 0 41 9.185742 41 20.5S31.814258 41 20.5 41 0 31.814258 0 20.5 9.185742 0 20.5 0z"/>
    </g>
    <g>
      <path fill="rgb(255,121,86)" fill-rule="evenodd" d="M24.11239624 11.78125h2.7204628c.64288711 0 1.16591263.5256958 1.16591263 1.171875v16.875c0 .6461792-.52302552 1.171875-1.16591263 1.171875H15.17372513c-.6428833 0-1.16591263-.5256958-1.16591263-1.171875v-16.875c0-.6461792.52302933-1.171875 1.16591263-1.171875h2.72046661v-.390625c0-.21575928.1740303-.390625.38863754-.390625h5.44092942c.21460342 0 .38863754.17486572.38863754.390625v.390625zm2.7204628 18.4375c.21429443 0 .38863754-.17523193.38863754-.390625v-16.875c0-.21539307-.1743431-.390625-.38863754-.390625h-2.7204628v.390625c0 .21575928-.17403412.390625-.38863754.390625h-5.44092942c-.21460723 0-.38863754-.17486572-.38863754-.390625V12.5625h-2.72046661c-.21429444 0-.38863754.17523193-.38863754.390625v16.875c0 .21539307.1743431.390625.38863754.390625h11.6591339z"/>
      <path fill="rgb(255,121,86)" fill-rule="evenodd" d="M16.64275302 20.26229508c0 .16697025.13750827.30358227.30557394.30358227h8.13437835c.16806567 0 .30557395-.13661202.30557395-.30358227s-.13750828-.30358227-.30557395-.30358227h-8.13437835c-.16806567 0-.30557394.13661202-.30557394.30358227z"/>
      <path fill="rgb(255,121,86)" fill-rule="evenodd" d="M16.64275302 18.41469338c0 .16697025.13750827.30358227.30557394.30358227h8.13437835c.16806567 0 .30557395-.13661202.30557395-.30358227s-.13750828-.30358227-.30557395-.30358227h-8.13437835c-.16806567 0-.30557394.13661202-.30557394.30358227z"/>
      <path fill="rgb(255,121,86)" fill-rule="evenodd" d="M16.94832696 16.79234973h5.31393086c.16806567 0 .3025182-.13661203.3025182-.30358227 0-.16697025-.13750827-.30358227-.30557394-.30358227h-5.31087512c-.16806567 0-.30557394.13661202-.30557394.30358227 0 .16697024.13750827.30358227.30557394.30358227z"/>
      <path fill="rgb(255,121,86)" fill-rule="evenodd" d="M16.94832696 22.4177292h8.13437835c.16806567 0 .30557395-.13661202.30557395-.30358227s-.13750828-.30358227-.30557395-.30358227h-8.13437835c-.16806567 0-.30557394.13661202-.30557394.30358227s.13750827.30358227.30557394.30358227z"/>
      <path fill="rgb(255,121,86)" fill-rule="evenodd" d="M22.26225782 24.26958106c.16806567 0 .3025182-.13661203.3025182-.30358227 0-.16697025-.13750827-.30358228-.30557394-.30358228h-5.31087512c-.16806567 0-.30557394.13661203-.30557394.30358228 0 .16697024.13750827.30358227.30557394.30358227h5.31393086z"/>
      <path fill="rgb(255,121,86)" fill-rule="evenodd" d="M24.88102651 24.65816636l-2.5729326 2.2586521-.74254468-.98664238c-.1008394-.1335762-.29335098-.1608986-.42780352-.06071646-.13445253.10018215-.16195419.29143898-.06111479.42501518l.94116775 1.25075896c.05194757.06982392.12834105.11232544.21390176.1214329.00916722.00303583.02139017.00303583.0305574.00303583.07333774 0 .14361974-.0273224.2016788-.0789314l2.82044748-2.47723132c.12834106-.10928962.14056402-.30358227.02750166-.428051-.11000662-.12750456-.30557394-.13964785-.43085926-.0273224z"/>
    </g>
  </g>
</svg>
