<svg xmlns="http://www.w3.org/2000/svg" width="41" height="41" viewBox="0 0 41 41">
  <g>
    <g opacity=".1">
      <path fill="rgb(103,210,223)" fill-rule="evenodd" d="M20.5 0C31.814258 0 41 9.185742 41 20.5S31.814258 41 20.5 41 0 31.814258 0 20.5 9.185742 0 20.5 0z"/>
    </g>
    <path fill="rgb(103,210,223)" fill-rule="evenodd" d="M21.18829727 13.3239441c1.79960251-1.78082276 4.69869614-1.76202393 6.47480011.03759765 1.77610779 1.79959106 1.76201248 4.69866943-.03758621 6.47479248l-3.82004166 3.82943725c-.01879501.02819825-.0375862.05166626-.06108093.0751648-.02349472.02349853-.04698563.04229736-.07518005.0610962l-3.82473755 3.83883666-.0046959.0046997c-1.8042984 1.78079224-4.69869613 1.78079224-6.49829482 0-1.7855034-1.78552245-1.7902031-4.68460082-.00469971-6.47482299l3.82943725-3.82473755c.04228592-.0751648.10337067-.13626099.1785469-.17852783l3.80594636-3.80593872.03758621-.03759766zM14.003994 26.97833251c1.43310165 1.41900635 3.7401619 1.41430664 5.17326355 0l3.56630707-3.5756836-5.14976883-5.15917968-3.5898018 3.58981323c-1.41430663 1.42370606-1.41430663 3.721344 0 5.14505005z"/>
  </g>
</svg>
