<svg xmlns="http://www.w3.org/2000/svg" width="41" height="41" viewBox="0 0 41 41">
  <g>
    <g opacity=".1">
      <path fill="rgb(131,0,81)" fill-rule="evenodd" d="M20.5 0C31.814258 0 41 9.185742 41 20.5S31.814258 41 20.5 41 0 31.814258 0 20.5 9.185742 0 20.5 0z"/>
    </g>
    <g>
      <path fill="rgb(131,0,81)" fill-rule="evenodd" d="M13.02189255 28h15.95412063c1.11462403 0 2.02189637-.96600342 2.02189637-2.15386963v-9.69229126C30.99790955 14.96600341 30.0906372 14 28.97601318 14H13.02189255C11.90727234 14 11 14.96600342 11 16.15383911v9.69229126C11 27.03399658 11.90727234 28 13.02189255 28zm-.9693718-11.84613037c0-.59338379.43469238-1.07693482.9693718-1.07693482h15.95412063c.53468323 0 .96937561.48355103.96937561 1.07693482v9.69229126c0 .59338379-.43469238 1.0769043-.9693756 1.0769043H13.02189254c-.53467942 0-.9693718-.48352051-.9693718-1.0769043v-9.69229126z"/>
      <path fill="rgb(131,0,81)" fill-rule="evenodd" d="M20.9989549 22.60999337c-.34733211 0-.69361171-.08615378-1.00936818-.25846134l-8.7106685-4.7535348c-.25681527-.1399999-.35364725-.46630733-.21681945-.72907636.1368278-.2616921.45574184-.36076896.7125571-.22184599l8.7106685 4.7535348c.3220716.17553833.7072945.17553833 1.0293661 0l8.7106685-4.7535348c.25681527-.13784604.57467678-.03984612.7125571.22184599.13682781.26276903.03999583.58799955-.21681944.72907636l-8.7106685 4.7535348c-.31786151.17230756-.6641411.25846134-1.01147323.25846134z"/>
    </g>
  </g>
</svg>
