<svg xmlns="http://www.w3.org/2000/svg" xmlns:xlink="http://www.w3.org/1999/xlink" width="41" height="41" viewBox="0 0 41 41">
  <defs>
    <path id="path-2" fill-rule="evenodd" d="M18.60087852 14.48726778h-2.38506157v-2.36266174c0-.42046345-.34741006-.76461072-.77185988-.76461072-.42444976 0-.77185981.34414727-.77185981.76461072v2.36266174h-2.38506157c-.42444976 0-.77185982.34414728-.77185982.76461079 0 .42046345.34741006.76461072.77185982.76461072h2.38506157v2.36266174c0 .42046345.34741005.76461073.77185981.76461073.42444982 0 .77185988-.34414728.77185988-.76461073V16.0164893h2.38506157c.42444976 0 .77185981-.34414727.77185981-.76461072 0-.42046351-.34741005-.76461079-.77185981-.76461079z"/>
  </defs>
  <g>
    <g opacity=".1">
      <path fill="rgb(227,55,55)" fill-rule="evenodd" d="M20.5 0C31.814258 0 41 9.185742 41 20.5S31.814258 41 20.5 41 0 31.814258 0 20.5 9.185742 0 20.5 0z"/>
    </g>
    <g>
      <g transform="rotate(46.000016 15.4439571 15.25187854)">
        <use fill="rgb(227,55,55)" xlink:href="#path-2"/>
        <use fill-opacity="0" stroke="rgb(252,235,235)" stroke-linecap="butt" stroke-linejoin="miter" stroke-width=".5" xlink:href="#path-2"/>
      </g>
      <path fill="rgb(227,55,55)" fill-rule="evenodd" d="M22.89658356 14.79876709c1.63685608-1.6135254 4.27378082-1.59649658 5.88927078.03405762 1.61548996 1.6305542 1.60266876 4.25732422-.03419113 5.86657715l-3.47458649 3.46972656c-.01709366.0255127-.03418732.04681396-.05555725.06811523-.02136993.02130127-.04273987.03833008-.06838226.05535889l-3.47885895 3.47821045-.00427246.00427246c-1.64113236 1.61352539-4.27378464 1.61352539-5.91064072 0-1.6240387-1.61779785-1.62831497-4.24456787-.00427627-5.86657715l3.48313522-3.4654541c.0384636-.06817627.09402084-.12347412.1624031-.1618042l3.4617653-3.4484253.03419113-.03405761zm-6.53461838 12.37176514c1.30350494 1.28570556 3.40193176 1.2814331 4.7054367 0L24.311203 23.9307251l-4.68406677-4.67456055-3.26517105 3.25262451c-1.28640747 1.289917-1.28640747 3.37176514 0 4.66174317z"/>
    </g>
  </g>
</svg>
