<svg xmlns="http://www.w3.org/2000/svg" xmlns:xlink="http://www.w3.org/1999/xlink" width="41" height="41" viewBox="0 0 41 41">
  <defs>
    <rect id="rect-2" width="17" height="17" x="12" y="12"/>
    <mask id="mask-3" maskContentUnits="userSpaceOnUse" maskUnits="userSpaceOnUse">
      <rect width="41" height="41" x="0" y="0" fill="black"/>
      <use fill="white" xlink:href="#rect-2"/>
    </mask>
  </defs>
  <g>
    <g opacity=".1">
      <path fill="rgb(239,172,0)" fill-rule="evenodd" d="M20.5 0C31.814258 0 41 9.185742 41 20.5S31.814258 41 20.5 41 0 31.814258 0 20.5 9.185742 0 20.5 0z"/>
    </g>
    <g>
      <use fill="none" xlink:href="#rect-2"/>
      <g mask="url(#mask-3)">
        <path fill="rgb(239,172,0)" fill-rule="evenodd" d="M25.64648438 19.13867188v1.58917236c0 2.03637695.77622222 3.9673767 2.18566131 5.43721008.13809204.14402771.17690659.35656738.09861374.54011536-.07829285.18354797-.25855255.30264282-.45810318.30264282h-4.5325241C22.70873641 28.14309692 21.70261764 29 20.5 29c-1.20258331 0-2.20877075-.85690308-2.44013214-1.9921875h-4.53252411c-.19955063 0-.37984467-.11909485-.45813751-.30264282-.07829285-.18354798-.0394783-.39608765.09864807-.54011536 1.40943909-1.46983337 2.18566132-3.40080261 2.18566132-5.43721008v-1.58917236c0-2.31834412 1.54095458-4.28323365 3.65234374-4.92501832v-.71951293C19.00585938 12.67027282 19.6761322 12 20.5 12c.8238678 0 1.49414063.67027283 1.49414063 1.49414063v.71951293c2.111351.64178467 3.65234374 2.60670472 3.65234374 4.92501832zM20.5 12.99609374c-.27462387 0-.49804688.22341919-.49804688.49804688v.5222168c.16392518-.01580811.33003998-.02416993.49804688-.02416993.1680069 0 .3341217.00836182.49804688.02416992v-.5222168c0-.27462768-.223423-.49804687-.49804688-.49804687zm-4.15039063 7.73175049c0 1.92344665-.61455917 3.763443-1.7488098 5.28387451h11.79843139c-1.13428498-1.52043152-1.74884034-3.36042786-1.74884034-5.28387451v-1.58917236c0-2.28852845-1.861866-4.15039063-4.15039062-4.15039063-2.28852844 0-4.15039063 1.86186218-4.15039063 4.15039063v1.58917236zM20.5 28.00390625c-.64928818 0-1.20288467-.4163971-1.40847778-.99609375h2.81695175c-.20559311.57969666-.7591896.99609375-1.40847397.99609375z"/>
        <path fill="rgb(239,172,0)" fill-rule="evenodd" d="M26.97460938 19.13867187c0 .2750547.22299218.49804688.49804687.49804688.27505469 0 .49804688-.22299219.49804688-.49804688 0-1.9955078-.77708594-3.87158398-2.18811915-5.28261718-.1944707-.1944707-.50983398-.1945039-.70433789 0-.1945039.1945039-.1945039.50983398 0 .70433789 1.2229043 1.2229043 1.89636329 2.84882812 1.89636329 4.5782793z"/>
        <path fill="rgb(239,172,0)" fill-rule="evenodd" d="M13.52734375 19.63671875c.27505469 0 .49804688-.22299219.49804688-.49804688 0-1.72941796.67349218-3.3553418 1.89636328-4.57824609.1945039-.1945039.1945039-.50983398 0-.70433789-.1944707-.1945039-.50983399-.1945039-.7043379 0-1.4110332 1.4110332-2.18811914 3.28707617-2.18811914 5.28258398 0 .2750547.2229922.49804688.49804688.49804688z"/>
      </g>
    </g>
  </g>
</svg>
