<svg xmlns="http://www.w3.org/2000/svg" xmlns:xlink="http://www.w3.org/1999/xlink" width="61.409" height="61.409" viewBox="0 0 61.409 61.409">
  <defs>
    <path id="path-1" fill-rule="evenodd" d="M4.7046301 30.7046301c0-14.33639525 11.66360475-26 26-26 14.33656312 0 26 11.66360475 26 26 0 14.33639527-11.66360473 26-26 26-14.33639525 0-26-11.66360473-26-26zm4.72727967 0c0 11.72994996 9.5429535 21.2727356 21.27272034 21.2727356 11.72979736 0 21.2727356-9.54293823 21.2727356-21.2727356 0-11.72976684-9.54293824-21.27272033-21.2727356-21.27272033-11.72976685 0-21.27272034 9.54278565-21.27272034 21.27272034z"/>
    <path id="path-3" fill-rule="evenodd" d="M22.84790284 27.89032708c.58775757-.58618182.92339394-1.39927273.92339394-2.22812121 0-.82884849-.33563637-1.6419394-.92339394-2.2282788-.58618182-.58602423-1.39927273-.92323635-2.22812122-.92323635-.83042424 0-1.64193939.33721212-2.2281212.92323636-.58618183.5863394-.92339395 1.3994303-.92339395 2.22827879 0 .82884848.33721212 1.6419394.92339394 2.2281212.58618182.58618183 1.39927273.92339395 2.22812121.92339395.82884849 0 1.6419394-.33721212 2.22812122-.92339394z"/>
    <path id="path-4" fill-rule="evenodd" d="M40.7894786 22.51069072c-.83042425 0-1.6419394.33721212-2.22812122.92323636-.58775757.5863394-.92339394 1.3994303-.92339394 2.22827879 0 .82884848.33563637 1.6419394.92339394 2.2281212.58618182.58618183 1.39927273.92339395 2.22812121.92339395.82884849 0 1.6419394-.3373697 2.22812122-.92339394.58775757-.58618182.92339394-1.39927273.92339394-2.22812121 0-.82884849-.33563637-1.6419394-.92339394-2.2282788-.58618182-.58602423-1.39927273-.92323635-2.22812122-.92323635z"/>
  </defs>
  <g>
    <g>
      <use fill="rgb(51,51,51)" xlink:href="#path-1"/>
      <use fill-opacity="0" stroke="rgb(255,255,255)" stroke-linecap="butt" stroke-linejoin="miter" stroke-width="2" xlink:href="#path-1"/>
    </g>
    <path fill="rgb(51,51,51)" fill-rule="evenodd" d="M23.03796344 37.2046301h15.33333334c.55191502 0 1 .44808498 1 1v.16666668c0 .55191502-.44808498 1-1 1H23.03796344c-.55191502 0-1-.44808498-1-1v-.16666667c0-.55191503.44808498-1 1-1z"/>
    <g>
      <use fill="rgb(51,51,51)" xlink:href="#path-3"/>
      <use fill-opacity="0" stroke="rgb(255,255,255)" stroke-linecap="butt" stroke-linejoin="miter" stroke-width="2" xlink:href="#path-3"/>
    </g>
    <g>
      <use fill="rgb(51,51,51)" xlink:href="#path-4"/>
      <use fill-opacity="0" stroke="rgb(255,255,255)" stroke-linecap="butt" stroke-linejoin="miter" stroke-width="2" xlink:href="#path-4"/>
    </g>
  </g>
</svg>
