<svg xmlns="http://www.w3.org/2000/svg" xmlns:xlink="http://www.w3.org/1999/xlink" width="61.409" height="61.409" viewBox="0 0 61.409 61.409">
  <defs>
    <path id="path-1" fill-rule="evenodd" d="M30.7046301 3.7046301c-14.3364 0-26 11.6636-26 26s11.6636 26 26 26 26-11.6636 26-26-11.66344241-26-26-26z"/>
    <path id="path-2" fill-rule="evenodd" d="M23.03796344 37.2046301h15.33333334c.55191502 0 1 .44808498 1 1v.16666668c0 .55191502-.44808498 1-1 1H23.03796344c-.55191502 0-1-.44808498-1-1v-.16666667c0-.55191503.44808498-1 1-1z"/>
    <path id="path-3" fill-rule="evenodd" d="M22.84790284 27.89032708c.58775757-.58618182.92339394-1.39927273.92339394-2.22812121 0-.82884849-.33563637-1.6419394-.92339394-2.2282788-.58618182-.58602423-1.39927273-.92323635-2.22812122-.92323635-.83042424 0-1.64193939.33721212-2.2281212.92323636-.58618183.5863394-.92339395 1.3994303-.92339395 2.22827879 0 .82884848.33721212 1.6419394.92339394 2.2281212.58618182.58618183 1.39927273.92339395 2.22812121.92339395.82884849 0 1.6419394-.33721212 2.22812122-.92339394z"/>
    <path id="path-4" fill-rule="evenodd" d="M40.7894786 22.51069072c-.83042425 0-1.6419394.33721212-2.22812122.92323636-.58775757.5863394-.92339394 1.3994303-.92339394 2.22827879 0 .82884848.33563637 1.6419394.92339394 2.2281212.58618182.58618183 1.39927273.92339395 2.22812121.92339395.82884849 0 1.6419394-.3373697 2.22812122-.92339394.58775757-.58618182.92339394-1.39927273.92339394-2.22812121 0-.82884849-.33563637-1.6419394-.92339394-2.2282788-.58618182-.58602423-1.39927273-.92323635-2.22812122-.92323635z"/>
  </defs>
  <g>
    <g>
      <use fill="rgb(255,210,93)" xlink:href="#path-1"/>
      <use fill-opacity="0" stroke="rgb(255,255,255)" stroke-linecap="butt" stroke-linejoin="miter" stroke-width="1" xlink:href="#path-1"/>
    </g>
    <g>
      <use fill="rgb(215,177,63)" xlink:href="#path-2"/>
      <use fill-opacity="0" stroke="rgb(215,177,63)" stroke-linecap="butt" stroke-linejoin="miter" stroke-width="1" xlink:href="#path-2"/>
    </g>
    <g>
      <use fill="rgb(215,177,63)" xlink:href="#path-3"/>
      <use fill-opacity="0" stroke="rgb(255,210,93)" stroke-linecap="butt" stroke-linejoin="miter" stroke-width="1" xlink:href="#path-3"/>
    </g>
    <g>
      <use fill="rgb(215,177,63)" xlink:href="#path-4"/>
      <use fill-opacity="0" stroke="rgb(255,210,93)" stroke-linecap="butt" stroke-linejoin="miter" stroke-width="1" xlink:href="#path-4"/>
    </g>
  </g>
</svg>
