<svg xmlns="http://www.w3.org/2000/svg" xmlns:xlink="http://www.w3.org/1999/xlink" width="61.409" height="61.409" viewBox="0 0 61.409 61.409">
  <defs>
    <path id="path-1" fill-rule="evenodd" d="M4.7046301 30.7046301c0-14.33639525 11.66360475-26 26-26 14.33656312 0 26 11.66360475 26 26 0 14.33639527-11.66360473 26-26 26-14.33639525 0-26-11.66360473-26-26zm4.72727967 0c0 11.72994996 9.5429535 21.2727356 21.27272034 21.2727356 11.72979736 0 21.2727356-9.54293823 21.2727356-21.2727356 0-11.72976684-9.54293824-21.27272033-21.2727356-21.27272033-11.72976685 0-21.27272034 9.54278565-21.27272034 21.27272034z"/>
    <path id="path-2" fill-rule="evenodd" d="M30.70447253 35.04037556c-.00015757 0 .00015758 0 0 0-3.66174545 0-7.10461818 1.42606061-9.69374545 4.01534546-.92307879.92292121-.92307879 2.41957576 0 3.34265454.4615394.4615394 1.06647273.69238788 1.67140606.69238788.60493333 0 1.20986667-.23084848 1.67124848-.69238788 1.69646061-1.6964606 3.952-2.6305697 6.35109091-2.6305697s4.6546303.93426667 6.35109091 2.6305697c.92292121.92292122 2.41957576.92292122 3.34265455 0 .92307879-.9229212.92307879-2.41957575 0-3.34265454-2.58928485-2.58928485-6.03184243-4.01534546-9.69374546-4.01534546z"/>
    <path id="path-3" fill-rule="evenodd" d="M22.84790284 27.89032708c.58775757-.58618182.92339394-1.39927273.92339394-2.22812121 0-.82884849-.33563637-1.6419394-.92339394-2.2282788-.58618182-.58602423-1.39927273-.92323635-2.22812122-.92323635-.83042424 0-1.64193939.33721212-2.2281212.92323636-.58618183.5863394-.92339395 1.3994303-.92339395 2.22827879 0 .82884848.33721212 1.6419394.92339394 2.2281212.58618182.58618183 1.39927273.92339395 2.22812121.92339395.82884849 0 1.6419394-.33721212 2.22812122-.92339394z"/>
    <path id="path-4" fill-rule="evenodd" d="M40.7894786 22.51069072c-.83042425 0-1.6419394.33721212-2.22812122.92323636-.58775757.5863394-.92339394 1.3994303-.92339394 2.22827879 0 .82884848.33563637 1.6419394.92339394 2.2281212.58618182.58618183 1.39927273.92339395 2.22812121.92339395.82884849 0 1.6419394-.3373697 2.22812122-.92339394.58775757-.58618182.92339394-1.39927273.92339394-2.22812121 0-.82884849-.33563637-1.6419394-.92339394-2.2282788-.58618182-.58602423-1.39927273-.92323635-2.22812122-.92323635z"/>
  </defs>
  <g>
    <g>
      <use fill="rgb(51,51,51)" xlink:href="#path-1"/>
      <use fill-opacity="0" stroke="rgb(255,255,255)" stroke-linecap="butt" stroke-linejoin="miter" stroke-width="2" xlink:href="#path-1"/>
    </g>
    <g transform="rotate(-179.999936 30.70447253 39.0655695)">
      <use fill="rgb(51,51,51)" xlink:href="#path-2"/>
      <use fill-opacity="0" stroke="rgb(255,255,255)" stroke-linecap="butt" stroke-linejoin="miter" stroke-width="2" xlink:href="#path-2"/>
    </g>
    <g>
      <use fill="rgb(51,51,51)" xlink:href="#path-3"/>
      <use fill-opacity="0" stroke="rgb(255,255,255)" stroke-linecap="butt" stroke-linejoin="miter" stroke-width="2" xlink:href="#path-3"/>
    </g>
    <g>
      <use fill="rgb(51,51,51)" xlink:href="#path-4"/>
      <use fill-opacity="0" stroke="rgb(255,255,255)" stroke-linecap="butt" stroke-linejoin="miter" stroke-width="2" xlink:href="#path-4"/>
    </g>
  </g>
</svg>
