<svg xmlns="http://www.w3.org/2000/svg" xmlns:xlink="http://www.w3.org/1999/xlink" width="61.409" height="61.409" viewBox="0 0 61.409 61.409">
  <defs>
    <path id="path-1" fill-rule="evenodd" d="M30.7046301 4.7046301c-14.3364 0-26 11.6636-26 26s11.6636 26 26 26 26-11.6636 26-26-11.66344241-26-26-26z"/>
    <path id="path-2" fill-rule="evenodd" d="M30.6896301 36.04037556c-.00016514 0 .00016516 0 0 0-3.83765548 0-7.44592362 1.49456848-10.15943241 4.20824242-.96742344.9672583-.96742344 2.53581204 0 3.50323547.48371172.48371172 1.11770601.72565016 1.7517003.72565016.6339943 0 1.2679886-.24193844 1.75153517-.72565016 1.77795848-1.77795847 4.14185385-2.7569421 6.65619695-2.7569421 2.5143431 0 4.87823847.97914878 6.65619695 2.7569421.96725829.9672583 2.53581203.9672583 3.50323547 0 .96742344-.96725829.96742344-2.53581203 0-3.50323547-2.71367394-2.71367394-6.32161178-4.20824242-10.15943242-4.20824242z"/>
    <path id="path-3" fill-rule="evenodd" d="M22.84790284 27.89032708c.58775757-.58618182.92339394-1.39927273.92339394-2.22812121 0-.82884849-.33563637-1.6419394-.92339394-2.2282788-.58618182-.58602423-1.39927273-.92323635-2.22812122-.92323635-.83042424 0-1.64193939.33721212-2.2281212.92323636-.58618183.5863394-.92339395 1.3994303-.92339395 2.22827879 0 .82884848.33721212 1.6419394.92339394 2.2281212.58618182.58618183 1.39927273.92339395 2.22812121.92339395.82884849 0 1.6419394-.33721212 2.22812122-.92339394z"/>
    <path id="path-4" fill-rule="evenodd" d="M40.7894786 22.51069072c-.83042425 0-1.6419394.33721212-2.22812122.92323636-.58775757.5863394-.92339394 1.3994303-.92339394 2.22827879 0 .82884848.33563637 1.6419394.92339394 2.2281212.58618182.58618183 1.39927273.92339395 2.22812121.92339395.82884849 0 1.6419394-.3373697 2.22812122-.92339394.58775757-.58618182.92339394-1.39927273.92339394-2.22812121 0-.82884849-.33563637-1.6419394-.92339394-2.2282788-.58618182-.58602423-1.39927273-.92323635-2.22812122-.92323635z"/>
  </defs>
  <g>
    <g>
      <use fill="rgb(83,223,115)" xlink:href="#path-1"/>
      <use fill-opacity="0" stroke="rgb(255,255,255)" stroke-linecap="butt" stroke-linejoin="miter" stroke-width="1" xlink:href="#path-1"/>
    </g>
    <g transform="rotate(-179.999936 30.6896301 40.25893959)">
      <use fill="rgb(38,113,56)" xlink:href="#path-2"/>
      <use fill-opacity="0" stroke="rgb(83,223,115)" stroke-linecap="butt" stroke-linejoin="miter" stroke-width="2" xlink:href="#path-2"/>
    </g>
    <g>
      <use fill="rgb(38,113,56)" xlink:href="#path-3"/>
      <use fill-opacity="0" stroke="rgb(83,223,115)" stroke-linecap="butt" stroke-linejoin="miter" stroke-width="1" xlink:href="#path-3"/>
    </g>
    <g>
      <use fill="rgb(38,113,56)" xlink:href="#path-4"/>
      <use fill-opacity="0" stroke="rgb(83,223,115)" stroke-linecap="butt" stroke-linejoin="miter" stroke-width="1" xlink:href="#path-4"/>
    </g>
  </g>
</svg>
