<svg xmlns="http://www.w3.org/2000/svg" xmlns:xlink="http://www.w3.org/1999/xlink" width="27.293" height="25.676" viewBox="0 0 27.293 25.676">
  <defs>
    <path id="path-1" fill-rule="evenodd" d="M18.10105804 9.6069926H12.1406674c-.52532812 0-.95114062.42576563-.95114062.95114063 0 .52532813.42576562.95114063.95114062.95114063h5.96039063c.52565625 0 .95114062-.42576563.95114062-.95114063-.00004687-.525375-.4258125-.95114062-.95114062-.95114062z"/>
    <path id="path-2" fill-rule="evenodd" d="M20.38372991 13.00407086h-8.2430625c-.52532812 0-.95114062.42576562-.95114062.95114062 0 .52532813.42576562.95114063.95114062.95114063h8.2430625c.52532813 0 .95114063-.42576563.95114063-.95114063s-.4258125-.95114062-.95114063-.95114062z"/>
    <path id="path-3" fill-rule="evenodd" d="M24.69547918 1.64662054H7.86060598c-.52532959 0-.95114136.42578125-.95114136.95111084v8.97229004H5.22918203c-1.9754982 0-3.5825615 1.60736084-3.5825615 3.58258056v5.29455567c0 1.97546386 1.6070633 3.58258056 3.5825615 3.58258056.1616726 0 .32085991-.01080322.47653198-.03173828h15.69257737c2.34230041 0 4.24832916-1.90570068 4.24832916-4.24829101V2.59773138c0-.5253296-.425766-.95111084-.95114136-.95111084zM21.3982952 22.09571722c1.27195358 0 2.34609222-1.07440186 2.34609222-2.34606934V3.54884222H8.81174734v16.89831543c0 .59405517-.1452179 1.15490722-.4023285 1.64855957H21.3982952zM6.9095104 20.44715765c0 .8151245-.58368683 1.49676513-1.3550148 1.64855957H5.2292297v.03173828c-.92671966 0-1.68032836-.75396729-1.68032836-1.68035889v-5.29455566c0-.92633057.75393676-1.68029785 1.68032836-1.68029785h1.68032837l-.00004768 6.97491455z"/>
    <path id="path-4" fill-rule="evenodd" d="M18.10105804 16.51614886H12.1406674c-.52532812 0-.95114062.42576562-.95114062.95114062 0 .52532813.42576562.95114063.95114062.95114063h5.96039063c.52565625 0 .95114062-.42576563.95114062-.95114063-.00004687-.525375-.4258125-.95114062-.95114062-.95114062z"/>
  </defs>
  <g>
    <g>
      <use fill="rgb(131,0,81)" xlink:href="#path-1"/>
      <use fill-opacity="0" stroke="rgb(255,255,255)" stroke-linecap="butt" stroke-linejoin="miter" stroke-width=".7" xlink:href="#path-1"/>
    </g>
    <g>
      <use fill="rgb(131,0,81)" xlink:href="#path-2"/>
      <use fill-opacity="0" stroke="rgb(255,255,255)" stroke-linecap="butt" stroke-linejoin="miter" stroke-width=".7" xlink:href="#path-2"/>
    </g>
    <g>
      <use fill="rgb(131,0,81)" xlink:href="#path-3"/>
      <use fill-opacity="0" stroke="rgb(255,255,255)" stroke-linecap="butt" stroke-linejoin="miter" stroke-width=".7" xlink:href="#path-3"/>
    </g>
    <g>
      <use fill="rgb(131,0,81)" xlink:href="#path-4"/>
      <use fill-opacity="0" stroke="rgb(255,255,255)" stroke-linecap="butt" stroke-linejoin="miter" stroke-width=".7" xlink:href="#path-4"/>
    </g>
  </g>
</svg>
