<svg xmlns="http://www.w3.org/2000/svg" width="15.973" height="15.98" viewBox="0 0 15.973 15.98">
  <g>
    <path fill="rgb(239,172,0)" fill-rule="evenodd" d="M13.58556366 7.19195557c.24918747-.3338623.64093399-.53102112 1.05752945-.53222657.62414932-.0006256 1.16452408.4334259 1.29851913 1.04302979.13399506.60958862-.1745491 1.23025513-.74142456 1.49142456-.56687927.2611847-1.23913192.09240723-1.6154213-.40556335h-1.41651534c-.10834885.5699768-.33281327 1.11157226-.65942765 1.59109497l1.0021782 1.0024414c.56697845-.08106994 1.12220764.2097931 1.378376.7220459.25616837.51226807.1557808 1.13098145-.24920654 1.53596497-.40499115.40499878-1.02370071.50537109-1.53596115.24920654-.51226044-.25616455-.80311584-.81140137-.72205734-1.3783722l-1.00510407-1.00511169c-.47878647.32617188-1.019413.55059815-1.58842468.65943909v1.41970825c.45817184.34362793.64505386.94187927.46394348 1.48519898-.18110657.54333496-.68956756.9098053-1.2622795.9098053-.57271577 0-1.08117295-.36647034-1.26228333-.9098053-.18110657-.5433197.00577545-1.14157105.4639473-1.48519898v-1.41679382c-.56955338-.10914612-1.11063767-.33403015-1.58975602-.66075134l-1.00377655 1.00350952c.08107758.56695556-.20973969 1.12217712-.72196198 1.37837219-.51222229.25619507-1.1309166.15586853-1.53593826-.24905396-.40502167-.40492248-.50548935-1.02359008-.24941254-1.5358734.256073-.51228333.8112259-.80323792 1.37820054-.72229005l1.00244522-1.0024414C4.14351654 9.90060425 3.91758347 9.358963 3.80806732 8.78862H2.3950119c-.34362793.45817565-.9418869.64505004-1.48521042.46394348C.36647797 9.0714569 0 8.56300354 0 7.99028015c0-.57270813.36647797-1.0811615.90980148-1.26226807.54332352-.18112182 1.1415825.00576783 1.48521042.46394349h1.4213028c.10857773-.5689087.33264541-1.1095276.65836334-1.58842469l-1.00510788-1.0051117c-.58662415.09637452-1.16839218-.19688415-1.4398117-.72579955-.27141572-.5289154-.1704216-1.17254639.24994277-1.59291077.4203682-.42037964 1.064003-.5213623 1.59291458-.24995422.5289154.27142334.8221817.85319519.72580338 1.43981933l1.00164795 1.0013733c.47949219-.32762146 1.0214119-.5528412 1.59188461-.6615448v-1.4143982C6.73377991 2.05137634 6.5468979 1.453125 6.72800445.9098053 6.90911485.36647034 7.41757203 0 7.99028779 0c.57271195 0 1.08117294.36647034 1.26227951.9098053.18111038.5433197-.00577164 1.14157104-.46394348 1.48519897v1.41944886c.56929398.10858154 1.11015701.33312988 1.58895493.65969848l1.00457382-1.00457764c-.0810585-.56697082.2097969-1.12220764.72205734-1.37837219.51226044-.2561798 1.13097-.15579223 1.53596115.24920655.40498734.40498352.5053749 1.0236969.24920654 1.5359497-.25616836.51226807-.81139755.8031311-1.378376.72206116l-1.0053711 1.00564575c.32603455.47859192.55029679 1.01905823.65889359 1.58789063h1.42103958zM8.78862381 1.33747864c0-.44091797-.35742569-.79833985-.79833603-.79833985-.44091034 0-.79833603.35742188-.79833603.79833985 0 .4409027.3574257.79833984.79833603.79833984.44091034 0 .79833603-.35743713.79833603-.79833984zm4.47029495 1.38383484c-.3117485-.31176758-.81720352-.3117981-1.12898636-.00006104-.15106582.14901734-.23610687.35235596-.23610687.56455994 0 .21218872.08504105.4155426.23610687.56455993.31178284.3117218.81723786.31169129 1.12898636-.00007629.3117485-.31175232.3117485-.81721497 0-1.12898254zM2.4876175 3.2859497c.00004578-.38084412.26909638-.70863343.64262772-.78291321.37353134-.07427979.74752045.1256256.8932724.47747803.14574814.35185241.02266693.75767517-.29397583.96928405-.31664276.2116089-.73867417.17008973-1.00801087-.09916687-.15029525-.14941406-.23452758-.35276794-.23391342-.564682zm8.42990494 4.97044372c-.14696884 0-.26611328.11914063-.26611328.26611328 0 .1469574.11914444.26609803.26611328.26609803h.70812607c-.31383515 1.41647338-1.42041016 2.52253723-2.83702469 2.83569336v-.70678711c0-.14697266-.11914444-.26611328-.26611328-.26611328s-.26611328.11914062-.26611328.26611328v2.4216156c-.17559433-.0358429-.3566246-.0358429-.53222275 0v-2.4216156c0-.14697266-.11914444-.26611328-.26611328-.26611328s-.26611328.11914062-.26611328.26611328v.70759582c-1.41670227-.3135376-2.52322388-1.41984558-2.83702088-2.83650207h.70812607c.14696884 0 .26610947-.11914063.26610947-.26609803 0-.14697265-.11914063-.26611328-.26610947-.26611328H2.6414299c.0358429-.17559814.0358429-.35662842 0-.53222656h2.42162323c.14696884 0 .26610947-.11914062.26610947-.26611328s-.11914063-.26611328-.26610947-.26611328H4.3573227c.31300354-1.416214 1.41861725-2.5225525 2.83462525-2.83648682v.70758057c0 .14697265.11914444.26611328.26611328.26611328s.26611328-.11914063.26611328-.26611328v-2.4216156c.17559814.0358429.35662842.0358429.53222275 0v2.4216156c0 .14697265.11914444.26611328.26611328.26611328s.26611328-.11914063.26611328-.26611328v-.7054596c1.41579819.31329346 2.52173233 1.41871643 2.83568954 2.83436585h-.70679092c-.14696884 0-.26611328.11914062-.26611328.26611328s.11914444.26611328.26611328.26611328h2.42161942c-.0358429.17559814-.0358429.35662842 0 .53222656h-2.42161942zm.66687775-4.23704529c.0988617.14961243.22694397.2776947.37654876.3765564l-.78290176.7826233c-.11789703-.13275147-.24392319-.2580719-.37734604-.37521363l.78369904-.78396607zm-7.1882248.00027466c-.09886169.14961243-.22694015.2776947-.37654876.3765564l.78157043.78129578c.1180191-.13265992.24422837-.25779725.3778801-.37467957l-.78290177-.7831726zM1.33747864 8.78862c-.44091034 0-.79833603-.35743714-.79833603-.79833985 0-.44091797.35742569-.79833984.79833603-.79833984.44091034 0 .79833603.35742187.79833603.79833984 0 .44090271-.3574257.79833985-.79833603.79833985zm12.50727844-.79833985c0 .44090271.35742569.79833985.79833603.79833985.44091034 0 .79833603-.35743714.79833603-.79833985 0-.44091797-.3574257-.79833984-.79833603-.79833984-.44091034 0-.79833603.35742187-.79833603.79833984zm-2.2603569 3.9706726c.09877395-.14961242.2268753-.2776184.37654876-.37628173l-.78369903-.78370666c-.11686325.13375854-.24190903.26013183-.37442017.37841796l.78157044.78157044zm-7.1882248.0002594c-.09877395-.14959716-.2268753-.2776184-.37654876-.37628173l.78210449-.7821045c.11742401.13325501.24300384.2591095.3760147.3768158l-.78157043.78157044zM2.72153091 13.2592926c.3159256.30166626.81319046.30166626 1.12911225 0 .31173324-.31178283.31170273-.81723022-.00006104-1.12898254-.31176758-.31175232-.8172226-.31175232-1.12898636 0-.31176757.31175232-.3117981.8171997-.00006485 1.12898254zm10.77142716-.564682c.00068283.21188354-.08345413.41523742-.2336502.564682-.3159256.30166626-.81318665.30166626-1.12911225 0-.25538635-.25553894-.30731964-.65075683-.12662125-.96360779.1806984-.31285095.54898071-.46536254.89795685-.37184143.34897613.09352112.5916481.40974427.59169006.77102662l-.00026321-.0002594zm-6.30100632 1.94848632c0 .44090271.3574257.79833985.79833603.79833985.44091034 0 .79833603-.35743714.79833603-.79833985 0-.44091796-.35742569-.79833984-.79833603-.79833984-.44091034 0-.79833603.35742188-.79833603.79833984z"/>
    <path fill="rgb(239,172,0)" fill-rule="evenodd" d="M5.59527588 6.39361572c0-.44091797.35742569-.79833984.79833603-.79833984.44091034 0 .79833603.35742187.79833603.79833984 0 .44090271-.3574257.79833985-.79833603.79833985-.44091034 0-.79833603-.35743714-.79833603-.79833985zm.53222656-.00001526c0 .14697266.11914063.26611329.26611328.26611329.14696884 0 .26610947-.11914063.26610947-.26611329 0-.14697265-.11914063-.26611328-.26610947-.26611328-.14697265 0-.26611328.11914063-.26611328.26611328z"/>
    <path fill="rgb(239,172,0)" fill-rule="evenodd" d="M7.99028778 9.05473328c0-.58789063.47657013-1.06445313 1.06444931-1.06445313.58787918 0 1.06444931.4765625 1.06444931 1.06445313 0 .58787536-.47657013 1.06443786-1.0644493 1.06443786-.58787919 0-1.06444932-.4765625-1.06444932-1.06443786zm.53222275 0c0 .29393005.23828506.53222656.53222275.53222656.2939415 0 .53222656-.23829651.53222656-.53222656 0-.29394532-.23828507-.53222657-.53222656-.53222657-.29393769 0-.53222275.23828125-.53222275.53222657z"/>
  </g>
</svg>
