<svg xmlns="http://www.w3.org/2000/svg" xmlns:xlink="http://www.w3.org/1999/xlink" width="19.132" height="25.882" viewBox="0 0 19.132 25.882">
  <defs>
    <path id="path-1" fill-rule="evenodd" d="M4.31592602 23.44092602c-1.03387451 0-1.875-.84112549-1.875-1.875s.84112549-1.875 1.875-1.875h13.125c.41423035 0 .75-.33581543.75-.75v-17.25c0-.41418457-.33576965-.75-.75-.75h-13.40625c-1.70592499 0-3.09375 1.38781738-3.09375 3.09375v17.53125c0 1.86096192 1.5140152 3.375 3.375 3.375h13.125c.41423035 0 .75-.33581543.75-.75s-.33576965-.75-.75-.75h-13.125zm0-21h-.28125c-.8788147 0-1.59375.71496582-1.59375 1.59375v14.72625733c.53662873-.35986329 1.1817398-.57000733 1.875-.57000733v-15.75zm1.5 15.75v-15.75h10.875v15.75h-10.875z"/>
    <path id="path-2" fill-rule="evenodd" d="M17.44092602 22.31592602h-13.125c-.41423437 0-.75-.3358125-.75-.75s.33576563-.75.75-.75h13.125c.41423438 0 .75.3358125.75.75s-.33576562.75-.75.75z"/>
  </defs>
  <g>
    <g>
      <use fill="rgb(131,0,81)" xlink:href="#path-1"/>
      <use fill-opacity="0" stroke="rgb(255,255,255)" stroke-linecap="butt" stroke-linejoin="miter" stroke-width=".4" xlink:href="#path-1"/>
    </g>
    <g>
      <use fill="rgb(131,0,81)" xlink:href="#path-2"/>
      <use fill-opacity="0" stroke="rgb(255,255,255)" stroke-linecap="butt" stroke-linejoin="miter" stroke-width=".4" xlink:href="#path-2"/>
    </g>
  </g>
</svg>
