<svg xmlns="http://www.w3.org/2000/svg" width="14" height="14" viewBox="0 0 14 14">
  <g>
    <path fill="rgb(190,217,0)" fill-rule="evenodd" d="M12.49150085 0H1.50839233C.676651 0 0 .67675781 0 1.50848389V12.4915161C0 13.32336426.676651 14 1.50839233 14h10.98310852C13.323349 14 14 13.32336426 14 12.49151611V1.5084839C14 .6767578 13.323349 0 12.49150085 0zM1.50839233.8203125h10.98310852c.37950135 0 .68818665.3086853.68818665.68817139v2.00616455H.8203125V1.50848389c0-.37948609.3086853-.68817139.68807983-.68817139zm0 12.359375h10.98310852c.37950135 0 .68818665-.30871582.68818665-.6882019V4.33493042H.8203125v8.15655518c0 .37948608.3086853.6882019.68807983.6882019z"/>
    <path fill="rgb(190,217,0)" fill-rule="evenodd" d="M3.92468262 2.57757568h6.15052796c.22654723 0 .41015625-.18360901.41015625-.41015625 0-.22644043-.18360902-.41015625-.41015625-.41015625H3.92468262c-.22644043 0-.41015625.18371582-.41015625.41015625 0 .22654724.18371582.41015625.41015625.41015625z"/>
    <path fill="rgb(190,217,0)" fill-rule="evenodd" d="M3.92478943 8.28878784h-1.75737c-.22654724 0-.41015625-.18362427-.41015625-.41015625V6.12136841c0-.2265625.18371582-.41015625.41015625-.41015625h1.75737c.22644043 0 .41015625.18359375.41015625.41015625v1.75726318c0 .22653198-.18371582.41015625-.41015625.41015625zm-.41015625-1.75726318h-.9370575v.93695068h.9370575v-.93695068z"/>
    <path fill="rgb(190,217,0)" fill-rule="evenodd" d="M11.83258057 7.46847533H5.6820526c-.22654724 0-.41015625.18371582-.41015625.41015625 0 .22654726.18360901.41015625.41015625.41015625h6.15052796c.22644043 0 .41015625-.18360899.41015625-.41015625 0-.22644043-.18371582-.41015625-.41015625-.41015625z"/>
    <path fill="rgb(190,217,0)" fill-rule="evenodd" d="M11.83258057 9.22584534H2.16741943c-.22644043 0-.41015625.18360902-.41015625.41015625 0 .22644043.18371582.41015625.41015625.41015625h9.66516114c.22644043 0 .41015625-.18371582.41015625-.41015625 0-.22654723-.18371582-.41015625-.41015625-.41015625z"/>
    <path fill="rgb(190,217,0)" fill-rule="evenodd" d="M11.83258057 5.71121217H5.6820526c-.22654724 0-.41015625.18360899-.41015625.41015625 0 .22654724.18360901.41015625.41015625.41015625h6.15052796c.22644043 0 .41015625-.18360901.41015625-.41015625 0-.22654726-.18371582-.41015625-.41015625-.41015625z"/>
  </g>
</svg>
