<svg xmlns="http://www.w3.org/2000/svg" width="16" height="16" viewBox="0 0 16 16">
  <path fill="rgb(158,176,172)" fill-rule="evenodd" d="M15.86270142 2.80621338L13.19376373.13729858c-.18302917-.18307495-.47984314-.18307495-.66290283 0-.1830635.18307496-.1830635.47982788 0 .66290284l.3357811.3357849-.67153168.67153931L11.19210815.8045044c-.18302917-.18304443-.47984314-.18301391-.66290283 0L9.19473267 2.13897705c-.08790589.08792114-.13731003.2071228-.13731003.33145142 0 .1242981.04937362.24353027.13731003.3314209l.3357849.3357849-2.72100066 2.7210083-3.9981575 3.99816895c-.12556076.1255188-.1694069.31124878-.11325074.4796753l.57562638 1.72683715-3.13643647 3.13647461c-.1830635.18307496-.1830635.47982788 0 .66290284C.22882843 15.95422363.34876633 16 .46873474 16c.11996842 0 .23993683-.04577637.33143616-.1373291l3.1364708-3.1364441 1.7268753.57562257c.0485611.01620483.09856033.02407836.14815521.02407836.12237549 0 .2421875-.04797363.331501-.1373291l6.71915437-6.71914673.3357811.33578492c.09153365.09152221.21150207.13729858.33143997.13729858.11993408 0 .23993682-.04574585.33143615-.13729858l1.33443833-1.33444214c.1830635-.18307495.1830635-.47982788 0-.66290283l-1.00300217-1.00299073.6715622-.67156982.3357811.33578491c.09153365.09152222.21150207.13729858.33143996.13729858.11993409 0 .23993683-.04574584.33143616-.13729858.18312454-.18307495.18312454-.47988892.00006104-.66290283zm-2.33312226 3.00463867L10.1891098 2.47042847l.6715622-.67153931 3.34043884 3.34042358-.67153168.67153931zm-.67153167-3.34042358l.67153167.67150879.67153168-.6715088-.67153168-.6715393-.67153167.6715393zm-7.7230301 6.3885498l2.00597 2.00598145 5.05834199-5.05841065-2.00597-2.00598144-1.05509186 1.05508423.33575058.3357849c.1830635.18307496.1830635.4798584 0 .66290284-.09149933.09152222-.21150208.13729858-.33143998.13729858-.11993408 0-.2399063-.04577636-.33143615-.1373291l-.33575058-.33578491-.6715622.67156982.3357811.33578492c.1830635.18307495.1830635.4798584 0 .66290283-.09149933.09155273-.21149826.1373291-.33143616.1373291-.1199379 0-.2399063-.04580688-.33143615-.1373291l-.33578492-.33578491-.67152786.6715393.3357811.3357544c.1830597.18304443.1830597.47982788 0 .66290283-.09150314.09155273-.21150208.13729858-.33143997.13729858-.1199379 0-.23990631-.04574585-.33143616-.13726806l-.3357811-.33578492-.67153167.67153931zm.5500908 3.46188355l-1.50450135-.50152588-.50149917-1.50448609.79296875-.79296875 2.00597 2.00601197-.79293824.79296875z"/>
</svg>
