<svg xmlns="http://www.w3.org/2000/svg" xmlns:xlink="http://www.w3.org/1999/xlink" width="18.529" height="15" viewBox="0 0 18.529 15">
  <defs>
    <rect id="rect-1" width="18.529" height="15" x="0" y="0"/>
    <mask id="mask-2" maskContentUnits="userSpaceOnUse" maskUnits="userSpaceOnUse">
      <rect width="18.529" height="15" x="0" y="0" fill="black"/>
      <use fill="white" xlink:href="#rect-1"/>
    </mask>
  </defs>
  <g>
    <use fill="none" xlink:href="#rect-1"/>
    <g mask="url(#mask-2)">
      <path fill="rgb(158,176,172)" fill-rule="evenodd" d="M9.26470566 5.15625c1.03064346.00016785 1.95988846-.6279602 2.35438156-1.59144592.39448547-.96350098.17651749-2.07258606-.55226135-2.81002808C10.33805466.01731873 9.2420082-.20324707 8.28985214.19593811c-.95215988.39918518-1.57289886 1.3394928-1.57273102 2.38240051C6.72006607 4.0008545 7.85893631 5.1532898 9.26470566 5.15625zm-6.29341507 5.79499817c-.42334747.25494385-.96992493.12858581-1.24188233-.28707886l-.50934982-.78250122c-.14125442-.21206665-.19037247-.47346496-.13589477-.72317505.05447387-.24972534.20777893-.4658966.42412948-.5980835.21329498-.1287384.50688172-.2929077.83094025-.46875.40917206.35935975.9878273.44433594 1.48106766.21749879.49324035-.2268219.81050872-.72383118.81204986-1.27207947 1.47676468-.5894165 3.04522705-.90881348 4.63235092-.94332886 1.27285004.01916504 2.53538895.23442078 3.74417878.63833618-.14441681.66966248.21049499 1.34687805.83934402 1.60157776.62885284.2546997 1.34751892.01231384 1.6995964-.57324219.6197052.30291748 1.13482667.59457398 1.4794693.80291748.2162552.13224793.36948395.34843445.4239502.59811402.05447388.24967956.00541687.5110321-.13571167.72312927l-.51552963.78208923c-.27393723.41775513-.82375717.54429627-1.24929428.28749085-.96720887-.5743103-1.98778534-1.05119324-3.0470581-1.42375183V12.1875H6.0183525V9.52749634c-1.05876541.37384033-2.07922363.85064697-3.04706192 1.42375183zM3.24264526 7.5c.2558403 0 .46323777-.20986938.46323777-.46875s-.20739746-.46875-.46323777-.46875c-.25583648 0-.46323394.20986938-.46323394.46875.00067901.25860596.20767593.46806335.46323394.46875zm11.11764908 0c.2558403 0 .46323776-.20986938.46323776-.46875s-.20739746-.46875-.46323776-.46875c-.25583648 0-.46323395.20986938-.46323395.46875.00067902.25860596.20767594.46806335.46323395.46875zm-5.99531555.96635437c.19874954-.20124817.25811768-.50382996.15040588-.76663208C8.4079361 7.43756104 8.1553421 7.26649475 7.875 7.26583862h-.00123215c-.18435287-.00067138-.36138534.0730133-.49192047.20478821-.13082886.13206482-.20410538.3115387-.20355224.49853516 0 .28451538.16938781.54100036.42916488.6498413.25977707.10882569.55876541.04858399.75751877-.15264892zm2.77941132 2.8125c.19874954-.20124817.25811767-.50382996.15040588-.76663208-.10744858-.26216125-.36004257-.43322754-.64038467-.43388367h-.00123215c-.18435288-.00067138-.36138535.0730133-.49192047.20478821-.13082886.13206482-.20410538.3115387-.20355225.49853516 0 .28451538.16938782.54100036.42916489.6498413.25977707.10882569.5587654.04858399.75751877-.15264892zM0 13.59375c.00067902-.25860596.20767593-.46806335.46323395-.46875h17.60294342c.2555542.00068665.46255493.21014404.46323395.46875v.9375c-.00067902.25860596-.20767975.46806335-.46323395.46875H.46323395C.20767593 14.99931335.00067902 14.78985596 0 14.53125v-.9375z"/>
    </g>
  </g>
</svg>
